<?xml version="1.0" encoding="utf-8" standalone="no"?>
<!DOCTYPE svg PUBLIC "-//W3C//DTD SVG 1.1//EN"
  "http://www.w3.org/Graphics/SVG/1.1/DTD/svg11.dtd">
<svg xmlns:xlink="http://www.w3.org/1999/xlink" width="648pt" height="432pt" viewBox="0 0 648 432" xmlns="http://www.w3.org/2000/svg" version="1.1">
 <metadata>
  <rdf:RDF xmlns:dc="http://purl.org/dc/elements/1.1/" xmlns:cc="http://creativecommons.org/ns#" xmlns:rdf="http://www.w3.org/1999/02/22-rdf-syntax-ns#">
   <cc:Work>
    <dc:type rdf:resource="http://purl.org/dc/dcmitype/StillImage"/>
    <dc:date>2023-04-03T14:31:11.125205</dc:date>
    <dc:format>image/svg+xml</dc:format>
    <dc:creator>
     <cc:Agent>
      <dc:title>Matplotlib v3.7.1, https://matplotlib.org/</dc:title>
     </cc:Agent>
    </dc:creator>
   </cc:Work>
  </rdf:RDF>
 </metadata>
 <defs>
  <style type="text/css">*{stroke-linejoin: round; stroke-linecap: butt}</style>
 </defs>
 <g id="figure_1">
  <g id="patch_1">
   <path d="M 0 432 
L 648 432 
L 648 0 
L 0 0 
z
" style="fill: #ffffff"/>
  </g>
  <g id="axes_1">
   <g id="patch_2">
    <path d="M 50.87 390.04 
L 637.2 390.04 
L 637.2 10.8 
L 50.87 10.8 
z
" style="fill: #ffffff"/>
   </g>
   <g id="patch_3">
    <path d="M 77.521364 390.04 
L 84.443796 390.04 
L 84.443796 345.306579 
L 77.521364 345.306579 
z
" clip-path="url(#pae77a760bb)" style="fill: #1f77b4; fill-opacity: 0.75; stroke: #000000; stroke-width: 0.703235; stroke-linejoin: miter"/>
   </g>
   <g id="patch_4">
    <path d="M 84.443796 390.04 
L 91.366228 390.04 
L 91.366228 272.407671 
L 84.443796 272.407671 
z
" clip-path="url(#pae77a760bb)" style="fill: #1f77b4; fill-opacity: 0.75; stroke: #000000; stroke-width: 0.703235; stroke-linejoin: miter"/>
   </g>
   <g id="patch_5">
    <path d="M 91.366228 390.04 
L 98.28866 390.04 
L 98.28866 66.965295 
L 91.366228 66.965295 
z
" clip-path="url(#pae77a760bb)" style="fill: #1f77b4; fill-opacity: 0.75; stroke: #000000; stroke-width: 0.703235; stroke-linejoin: miter"/>
   </g>
   <g id="patch_6">
    <path d="M 98.28866 390.04 
L 105.211092 390.04 
L 105.211092 93.473989 
L 98.28866 93.473989 
z
" clip-path="url(#pae77a760bb)" style="fill: #1f77b4; fill-opacity: 0.75; stroke: #000000; stroke-width: 0.703235; stroke-linejoin: miter"/>
   </g>
   <g id="patch_7">
    <path d="M 105.211092 390.04 
L 112.133524 390.04 
L 112.133524 28.859048 
L 105.211092 28.859048 
z
" clip-path="url(#pae77a760bb)" style="fill: #1f77b4; fill-opacity: 0.75; stroke: #000000; stroke-width: 0.703235; stroke-linejoin: miter"/>
   </g>
   <g id="patch_8">
    <path d="M 112.133524 390.04 
L 119.055956 390.04 
L 119.055956 80.219642 
L 112.133524 80.219642 
z
" clip-path="url(#pae77a760bb)" style="fill: #1f77b4; fill-opacity: 0.75; stroke: #000000; stroke-width: 0.703235; stroke-linejoin: miter"/>
   </g>
   <g id="patch_9">
    <path d="M 119.055956 390.04 
L 125.978388 390.04 
L 125.978388 121.639476 
L 119.055956 121.639476 
z
" clip-path="url(#pae77a760bb)" style="fill: #1f77b4; fill-opacity: 0.75; stroke: #000000; stroke-width: 0.703235; stroke-linejoin: miter"/>
   </g>
   <g id="patch_10">
    <path d="M 125.978388 390.04 
L 132.900821 390.04 
L 132.900821 73.592468 
L 125.978388 73.592468 
z
" clip-path="url(#pae77a760bb)" style="fill: #1f77b4; fill-opacity: 0.75; stroke: #000000; stroke-width: 0.703235; stroke-linejoin: miter"/>
   </g>
   <g id="patch_11">
    <path d="M 132.900821 390.04 
L 139.823253 390.04 
L 139.823253 126.609856 
L 132.900821 126.609856 
z
" clip-path="url(#pae77a760bb)" style="fill: #1f77b4; fill-opacity: 0.75; stroke: #000000; stroke-width: 0.703235; stroke-linejoin: miter"/>
   </g>
   <g id="patch_12">
    <path d="M 139.823253 390.04 
L 146.745685 390.04 
L 146.745685 217.733491 
L 139.823253 217.733491 
z
" clip-path="url(#pae77a760bb)" style="fill: #1f77b4; fill-opacity: 0.75; stroke: #000000; stroke-width: 0.703235; stroke-linejoin: miter"/>
   </g>
   <g id="patch_13">
    <path d="M 146.745685 390.04 
L 153.668117 390.04 
L 153.668117 235.958218 
L 146.745685 235.958218 
z
" clip-path="url(#pae77a760bb)" style="fill: #1f77b4; fill-opacity: 0.75; stroke: #000000; stroke-width: 0.703235; stroke-linejoin: miter"/>
   </g>
   <g id="patch_14">
    <path d="M 153.668117 390.04 
L 160.590549 390.04 
L 160.590549 270.750878 
L 153.668117 270.750878 
z
" clip-path="url(#pae77a760bb)" style="fill: #1f77b4; fill-opacity: 0.75; stroke: #000000; stroke-width: 0.703235; stroke-linejoin: miter"/>
   </g>
   <g id="patch_15">
    <path d="M 160.590549 390.04 
L 167.512981 390.04 
L 167.512981 267.437291 
L 160.590549 267.437291 
z
" clip-path="url(#pae77a760bb)" style="fill: #1f77b4; fill-opacity: 0.75; stroke: #000000; stroke-width: 0.703235; stroke-linejoin: miter"/>
   </g>
   <g id="patch_16">
    <path d="M 167.512981 390.04 
L 174.435413 390.04 
L 174.435413 332.052232 
L 167.512981 332.052232 
z
" clip-path="url(#pae77a760bb)" style="fill: #1f77b4; fill-opacity: 0.75; stroke: #000000; stroke-width: 0.703235; stroke-linejoin: miter"/>
   </g>
   <g id="patch_17">
    <path d="M 174.435413 390.04 
L 181.357845 390.04 
L 181.357845 308.857125 
L 174.435413 308.857125 
z
" clip-path="url(#pae77a760bb)" style="fill: #1f77b4; fill-opacity: 0.75; stroke: #000000; stroke-width: 0.703235; stroke-linejoin: miter"/>
   </g>
   <g id="patch_18">
    <path d="M 181.357845 390.04 
L 188.280277 390.04 
L 188.280277 318.797886 
L 181.357845 318.797886 
z
" clip-path="url(#pae77a760bb)" style="fill: #1f77b4; fill-opacity: 0.75; stroke: #000000; stroke-width: 0.703235; stroke-linejoin: miter"/>
   </g>
   <g id="patch_19">
    <path d="M 188.280277 390.04 
L 195.20271 390.04 
L 195.20271 341.992993 
L 188.280277 341.992993 
z
" clip-path="url(#pae77a760bb)" style="fill: #1f77b4; fill-opacity: 0.75; stroke: #000000; stroke-width: 0.703235; stroke-linejoin: miter"/>
   </g>
   <g id="patch_20">
    <path d="M 195.20271 390.04 
L 202.125142 390.04 
L 202.125142 351.933753 
L 195.20271 351.933753 
z
" clip-path="url(#pae77a760bb)" style="fill: #1f77b4; fill-opacity: 0.75; stroke: #000000; stroke-width: 0.703235; stroke-linejoin: miter"/>
   </g>
   <g id="patch_21">
    <path d="M 202.125142 390.04 
L 209.047574 390.04 
L 209.047574 353.590546 
L 202.125142 353.590546 
z
" clip-path="url(#pae77a760bb)" style="fill: #1f77b4; fill-opacity: 0.75; stroke: #000000; stroke-width: 0.703235; stroke-linejoin: miter"/>
   </g>
   <g id="patch_22">
    <path d="M 209.047574 390.04 
L 215.970006 390.04 
L 215.970006 371.815273 
L 209.047574 371.815273 
z
" clip-path="url(#pae77a760bb)" style="fill: #1f77b4; fill-opacity: 0.75; stroke: #000000; stroke-width: 0.703235; stroke-linejoin: miter"/>
   </g>
   <g id="patch_23">
    <path d="M 215.970006 390.04 
L 222.892438 390.04 
L 222.892438 351.933753 
L 215.970006 351.933753 
z
" clip-path="url(#pae77a760bb)" style="fill: #1f77b4; fill-opacity: 0.75; stroke: #000000; stroke-width: 0.703235; stroke-linejoin: miter"/>
   </g>
   <g id="patch_24">
    <path d="M 222.892438 390.04 
L 229.81487 390.04 
L 229.81487 350.276959 
L 222.892438 350.276959 
z
" clip-path="url(#pae77a760bb)" style="fill: #1f77b4; fill-opacity: 0.75; stroke: #000000; stroke-width: 0.703235; stroke-linejoin: miter"/>
   </g>
   <g id="patch_25">
    <path d="M 229.81487 390.04 
L 236.737302 390.04 
L 236.737302 356.904133 
L 229.81487 356.904133 
z
" clip-path="url(#pae77a760bb)" style="fill: #1f77b4; fill-opacity: 0.75; stroke: #000000; stroke-width: 0.703235; stroke-linejoin: miter"/>
   </g>
   <g id="patch_26">
    <path d="M 236.737302 390.04 
L 243.659734 390.04 
L 243.659734 373.472066 
L 236.737302 373.472066 
z
" clip-path="url(#pae77a760bb)" style="fill: #1f77b4; fill-opacity: 0.75; stroke: #000000; stroke-width: 0.703235; stroke-linejoin: miter"/>
   </g>
   <g id="patch_27">
    <path d="M 243.659734 390.04 
L 250.582166 390.04 
L 250.582166 378.442446 
L 243.659734 378.442446 
z
" clip-path="url(#pae77a760bb)" style="fill: #1f77b4; fill-opacity: 0.75; stroke: #000000; stroke-width: 0.703235; stroke-linejoin: miter"/>
   </g>
   <g id="patch_28">
    <path d="M 250.582166 390.04 
L 257.504599 390.04 
L 257.504599 383.412827 
L 250.582166 383.412827 
z
" clip-path="url(#pae77a760bb)" style="fill: #1f77b4; fill-opacity: 0.75; stroke: #000000; stroke-width: 0.703235; stroke-linejoin: miter"/>
   </g>
   <g id="patch_29">
    <path d="M 257.504599 390.04 
L 264.427031 390.04 
L 264.427031 373.472066 
L 257.504599 373.472066 
z
" clip-path="url(#pae77a760bb)" style="fill: #1f77b4; fill-opacity: 0.75; stroke: #000000; stroke-width: 0.703235; stroke-linejoin: miter"/>
   </g>
   <g id="patch_30">
    <path d="M 264.427031 390.04 
L 271.349463 390.04 
L 271.349463 373.472066 
L 264.427031 373.472066 
z
" clip-path="url(#pae77a760bb)" style="fill: #1f77b4; fill-opacity: 0.75; stroke: #000000; stroke-width: 0.703235; stroke-linejoin: miter"/>
   </g>
   <g id="patch_31">
    <path d="M 271.349463 390.04 
L 278.271895 390.04 
L 278.271895 388.383207 
L 271.349463 388.383207 
z
" clip-path="url(#pae77a760bb)" style="fill: #1f77b4; fill-opacity: 0.75; stroke: #000000; stroke-width: 0.703235; stroke-linejoin: miter"/>
   </g>
   <g id="patch_32">
    <path d="M 278.271895 390.04 
L 285.194327 390.04 
L 285.194327 381.756033 
L 278.271895 381.756033 
z
" clip-path="url(#pae77a760bb)" style="fill: #1f77b4; fill-opacity: 0.75; stroke: #000000; stroke-width: 0.703235; stroke-linejoin: miter"/>
   </g>
   <g id="patch_33">
    <path d="M 285.194327 390.04 
L 292.116759 390.04 
L 292.116759 386.726413 
L 285.194327 386.726413 
z
" clip-path="url(#pae77a760bb)" style="fill: #1f77b4; fill-opacity: 0.75; stroke: #000000; stroke-width: 0.703235; stroke-linejoin: miter"/>
   </g>
   <g id="patch_34">
    <path d="M 292.116759 390.04 
L 299.039191 390.04 
L 299.039191 388.383207 
L 292.116759 388.383207 
z
" clip-path="url(#pae77a760bb)" style="fill: #1f77b4; fill-opacity: 0.75; stroke: #000000; stroke-width: 0.703235; stroke-linejoin: miter"/>
   </g>
   <g id="patch_35">
    <path d="M 299.039191 390.04 
L 305.961623 390.04 
L 305.961623 386.726413 
L 299.039191 386.726413 
z
" clip-path="url(#pae77a760bb)" style="fill: #1f77b4; fill-opacity: 0.75; stroke: #000000; stroke-width: 0.703235; stroke-linejoin: miter"/>
   </g>
   <g id="patch_36">
    <path d="M 305.961623 390.04 
L 312.884055 390.04 
L 312.884055 378.442446 
L 305.961623 378.442446 
z
" clip-path="url(#pae77a760bb)" style="fill: #1f77b4; fill-opacity: 0.75; stroke: #000000; stroke-width: 0.703235; stroke-linejoin: miter"/>
   </g>
   <g id="patch_37">
    <path d="M 312.884055 390.04 
L 319.806488 390.04 
L 319.806488 383.412827 
L 312.884055 383.412827 
z
" clip-path="url(#pae77a760bb)" style="fill: #1f77b4; fill-opacity: 0.75; stroke: #000000; stroke-width: 0.703235; stroke-linejoin: miter"/>
   </g>
   <g id="patch_38">
    <path d="M 319.806488 390.04 
L 326.72892 390.04 
L 326.72892 385.06962 
L 319.806488 385.06962 
z
" clip-path="url(#pae77a760bb)" style="fill: #1f77b4; fill-opacity: 0.75; stroke: #000000; stroke-width: 0.703235; stroke-linejoin: miter"/>
   </g>
   <g id="patch_39">
    <path d="M 326.72892 390.04 
L 333.651352 390.04 
L 333.651352 390.04 
L 326.72892 390.04 
z
" clip-path="url(#pae77a760bb)" style="fill: #1f77b4; fill-opacity: 0.75; stroke: #000000; stroke-width: 0.703235; stroke-linejoin: miter"/>
   </g>
   <g id="patch_40">
    <path d="M 333.651352 390.04 
L 340.573784 390.04 
L 340.573784 385.06962 
L 333.651352 385.06962 
z
" clip-path="url(#pae77a760bb)" style="fill: #1f77b4; fill-opacity: 0.75; stroke: #000000; stroke-width: 0.703235; stroke-linejoin: miter"/>
   </g>
   <g id="patch_41">
    <path d="M 340.573784 390.04 
L 347.496216 390.04 
L 347.496216 388.383207 
L 340.573784 388.383207 
z
" clip-path="url(#pae77a760bb)" style="fill: #1f77b4; fill-opacity: 0.75; stroke: #000000; stroke-width: 0.703235; stroke-linejoin: miter"/>
   </g>
   <g id="patch_42">
    <path d="M 347.496216 390.04 
L 354.418648 390.04 
L 354.418648 388.383207 
L 347.496216 388.383207 
z
" clip-path="url(#pae77a760bb)" style="fill: #1f77b4; fill-opacity: 0.75; stroke: #000000; stroke-width: 0.703235; stroke-linejoin: miter"/>
   </g>
   <g id="patch_43">
    <path d="M 354.418648 390.04 
L 361.34108 390.04 
L 361.34108 386.726413 
L 354.418648 386.726413 
z
" clip-path="url(#pae77a760bb)" style="fill: #1f77b4; fill-opacity: 0.75; stroke: #000000; stroke-width: 0.703235; stroke-linejoin: miter"/>
   </g>
   <g id="patch_44">
    <path d="M 361.34108 390.04 
L 368.263512 390.04 
L 368.263512 390.04 
L 361.34108 390.04 
z
" clip-path="url(#pae77a760bb)" style="fill: #1f77b4; fill-opacity: 0.75; stroke: #000000; stroke-width: 0.703235; stroke-linejoin: miter"/>
   </g>
   <g id="patch_45">
    <path d="M 368.263512 390.04 
L 375.185945 390.04 
L 375.185945 386.726413 
L 368.263512 386.726413 
z
" clip-path="url(#pae77a760bb)" style="fill: #1f77b4; fill-opacity: 0.75; stroke: #000000; stroke-width: 0.703235; stroke-linejoin: miter"/>
   </g>
   <g id="patch_46">
    <path d="M 375.185945 390.04 
L 382.108377 390.04 
L 382.108377 386.726413 
L 375.185945 386.726413 
z
" clip-path="url(#pae77a760bb)" style="fill: #1f77b4; fill-opacity: 0.75; stroke: #000000; stroke-width: 0.703235; stroke-linejoin: miter"/>
   </g>
   <g id="patch_47">
    <path d="M 382.108377 390.04 
L 389.030809 390.04 
L 389.030809 388.383207 
L 382.108377 388.383207 
z
" clip-path="url(#pae77a760bb)" style="fill: #1f77b4; fill-opacity: 0.75; stroke: #000000; stroke-width: 0.703235; stroke-linejoin: miter"/>
   </g>
   <g id="patch_48">
    <path d="M 389.030809 390.04 
L 395.953241 390.04 
L 395.953241 390.04 
L 389.030809 390.04 
z
" clip-path="url(#pae77a760bb)" style="fill: #1f77b4; fill-opacity: 0.75; stroke: #000000; stroke-width: 0.703235; stroke-linejoin: miter"/>
   </g>
   <g id="patch_49">
    <path d="M 395.953241 390.04 
L 402.875673 390.04 
L 402.875673 388.383207 
L 395.953241 388.383207 
z
" clip-path="url(#pae77a760bb)" style="fill: #1f77b4; fill-opacity: 0.75; stroke: #000000; stroke-width: 0.703235; stroke-linejoin: miter"/>
   </g>
   <g id="patch_50">
    <path d="M 402.875673 390.04 
L 409.798105 390.04 
L 409.798105 385.06962 
L 402.875673 385.06962 
z
" clip-path="url(#pae77a760bb)" style="fill: #1f77b4; fill-opacity: 0.75; stroke: #000000; stroke-width: 0.703235; stroke-linejoin: miter"/>
   </g>
   <g id="patch_51">
    <path d="M 409.798105 390.04 
L 416.720537 390.04 
L 416.720537 390.04 
L 409.798105 390.04 
z
" clip-path="url(#pae77a760bb)" style="fill: #1f77b4; fill-opacity: 0.75; stroke: #000000; stroke-width: 0.703235; stroke-linejoin: miter"/>
   </g>
   <g id="patch_52">
    <path d="M 416.720537 390.04 
L 423.642969 390.04 
L 423.642969 388.383207 
L 416.720537 388.383207 
z
" clip-path="url(#pae77a760bb)" style="fill: #1f77b4; fill-opacity: 0.75; stroke: #000000; stroke-width: 0.703235; stroke-linejoin: miter"/>
   </g>
   <g id="patch_53">
    <path d="M 423.642969 390.04 
L 430.565401 390.04 
L 430.565401 390.04 
L 423.642969 390.04 
z
" clip-path="url(#pae77a760bb)" style="fill: #1f77b4; fill-opacity: 0.75; stroke: #000000; stroke-width: 0.703235; stroke-linejoin: miter"/>
   </g>
   <g id="patch_54">
    <path d="M 430.565401 390.04 
L 437.487834 390.04 
L 437.487834 388.383207 
L 430.565401 388.383207 
z
" clip-path="url(#pae77a760bb)" style="fill: #1f77b4; fill-opacity: 0.75; stroke: #000000; stroke-width: 0.703235; stroke-linejoin: miter"/>
   </g>
   <g id="patch_55">
    <path d="M 437.487834 390.04 
L 444.410266 390.04 
L 444.410266 390.04 
L 437.487834 390.04 
z
" clip-path="url(#pae77a760bb)" style="fill: #1f77b4; fill-opacity: 0.75; stroke: #000000; stroke-width: 0.703235; stroke-linejoin: miter"/>
   </g>
   <g id="patch_56">
    <path d="M 444.410266 390.04 
L 451.332698 390.04 
L 451.332698 390.04 
L 444.410266 390.04 
z
" clip-path="url(#pae77a760bb)" style="fill: #1f77b4; fill-opacity: 0.75; stroke: #000000; stroke-width: 0.703235; stroke-linejoin: miter"/>
   </g>
   <g id="patch_57">
    <path d="M 451.332698 390.04 
L 458.25513 390.04 
L 458.25513 390.04 
L 451.332698 390.04 
z
" clip-path="url(#pae77a760bb)" style="fill: #1f77b4; fill-opacity: 0.75; stroke: #000000; stroke-width: 0.703235; stroke-linejoin: miter"/>
   </g>
   <g id="patch_58">
    <path d="M 458.25513 390.04 
L 465.177562 390.04 
L 465.177562 390.04 
L 458.25513 390.04 
z
" clip-path="url(#pae77a760bb)" style="fill: #1f77b4; fill-opacity: 0.75; stroke: #000000; stroke-width: 0.703235; stroke-linejoin: miter"/>
   </g>
   <g id="patch_59">
    <path d="M 465.177562 390.04 
L 472.099994 390.04 
L 472.099994 390.04 
L 465.177562 390.04 
z
" clip-path="url(#pae77a760bb)" style="fill: #1f77b4; fill-opacity: 0.75; stroke: #000000; stroke-width: 0.703235; stroke-linejoin: miter"/>
   </g>
   <g id="patch_60">
    <path d="M 472.099994 390.04 
L 479.022426 390.04 
L 479.022426 390.04 
L 472.099994 390.04 
z
" clip-path="url(#pae77a760bb)" style="fill: #1f77b4; fill-opacity: 0.75; stroke: #000000; stroke-width: 0.703235; stroke-linejoin: miter"/>
   </g>
   <g id="patch_61">
    <path d="M 479.022426 390.04 
L 485.944858 390.04 
L 485.944858 388.383207 
L 479.022426 388.383207 
z
" clip-path="url(#pae77a760bb)" style="fill: #1f77b4; fill-opacity: 0.75; stroke: #000000; stroke-width: 0.703235; stroke-linejoin: miter"/>
   </g>
   <g id="patch_62">
    <path d="M 485.944858 390.04 
L 492.86729 390.04 
L 492.86729 390.04 
L 485.944858 390.04 
z
" clip-path="url(#pae77a760bb)" style="fill: #1f77b4; fill-opacity: 0.75; stroke: #000000; stroke-width: 0.703235; stroke-linejoin: miter"/>
   </g>
   <g id="patch_63">
    <path d="M 492.86729 390.04 
L 499.789723 390.04 
L 499.789723 390.04 
L 492.86729 390.04 
z
" clip-path="url(#pae77a760bb)" style="fill: #1f77b4; fill-opacity: 0.75; stroke: #000000; stroke-width: 0.703235; stroke-linejoin: miter"/>
   </g>
   <g id="patch_64">
    <path d="M 499.789723 390.04 
L 506.712155 390.04 
L 506.712155 390.04 
L 499.789723 390.04 
z
" clip-path="url(#pae77a760bb)" style="fill: #1f77b4; fill-opacity: 0.75; stroke: #000000; stroke-width: 0.703235; stroke-linejoin: miter"/>
   </g>
   <g id="patch_65">
    <path d="M 506.712155 390.04 
L 513.634587 390.04 
L 513.634587 390.04 
L 506.712155 390.04 
z
" clip-path="url(#pae77a760bb)" style="fill: #1f77b4; fill-opacity: 0.75; stroke: #000000; stroke-width: 0.703235; stroke-linejoin: miter"/>
   </g>
   <g id="patch_66">
    <path d="M 513.634587 390.04 
L 520.557019 390.04 
L 520.557019 388.383207 
L 513.634587 388.383207 
z
" clip-path="url(#pae77a760bb)" style="fill: #1f77b4; fill-opacity: 0.75; stroke: #000000; stroke-width: 0.703235; stroke-linejoin: miter"/>
   </g>
   <g id="patch_67">
    <path d="M 520.557019 390.04 
L 527.479451 390.04 
L 527.479451 390.04 
L 520.557019 390.04 
z
" clip-path="url(#pae77a760bb)" style="fill: #1f77b4; fill-opacity: 0.75; stroke: #000000; stroke-width: 0.703235; stroke-linejoin: miter"/>
   </g>
   <g id="patch_68">
    <path d="M 527.479451 390.04 
L 534.401883 390.04 
L 534.401883 390.04 
L 527.479451 390.04 
z
" clip-path="url(#pae77a760bb)" style="fill: #1f77b4; fill-opacity: 0.75; stroke: #000000; stroke-width: 0.703235; stroke-linejoin: miter"/>
   </g>
   <g id="patch_69">
    <path d="M 534.401883 390.04 
L 541.324315 390.04 
L 541.324315 390.04 
L 534.401883 390.04 
z
" clip-path="url(#pae77a760bb)" style="fill: #1f77b4; fill-opacity: 0.75; stroke: #000000; stroke-width: 0.703235; stroke-linejoin: miter"/>
   </g>
   <g id="patch_70">
    <path d="M 541.324315 390.04 
L 548.246747 390.04 
L 548.246747 390.04 
L 541.324315 390.04 
z
" clip-path="url(#pae77a760bb)" style="fill: #1f77b4; fill-opacity: 0.75; stroke: #000000; stroke-width: 0.703235; stroke-linejoin: miter"/>
   </g>
   <g id="patch_71">
    <path d="M 548.246747 390.04 
L 555.169179 390.04 
L 555.169179 390.04 
L 548.246747 390.04 
z
" clip-path="url(#pae77a760bb)" style="fill: #1f77b4; fill-opacity: 0.75; stroke: #000000; stroke-width: 0.703235; stroke-linejoin: miter"/>
   </g>
   <g id="patch_72">
    <path d="M 555.169179 390.04 
L 562.091612 390.04 
L 562.091612 390.04 
L 555.169179 390.04 
z
" clip-path="url(#pae77a760bb)" style="fill: #1f77b4; fill-opacity: 0.75; stroke: #000000; stroke-width: 0.703235; stroke-linejoin: miter"/>
   </g>
   <g id="patch_73">
    <path d="M 562.091612 390.04 
L 569.014044 390.04 
L 569.014044 390.04 
L 562.091612 390.04 
z
" clip-path="url(#pae77a760bb)" style="fill: #1f77b4; fill-opacity: 0.75; stroke: #000000; stroke-width: 0.703235; stroke-linejoin: miter"/>
   </g>
   <g id="patch_74">
    <path d="M 569.014044 390.04 
L 575.936476 390.04 
L 575.936476 390.04 
L 569.014044 390.04 
z
" clip-path="url(#pae77a760bb)" style="fill: #1f77b4; fill-opacity: 0.75; stroke: #000000; stroke-width: 0.703235; stroke-linejoin: miter"/>
   </g>
   <g id="patch_75">
    <path d="M 575.936476 390.04 
L 582.858908 390.04 
L 582.858908 390.04 
L 575.936476 390.04 
z
" clip-path="url(#pae77a760bb)" style="fill: #1f77b4; fill-opacity: 0.75; stroke: #000000; stroke-width: 0.703235; stroke-linejoin: miter"/>
   </g>
   <g id="patch_76">
    <path d="M 582.858908 390.04 
L 589.78134 390.04 
L 589.78134 390.04 
L 582.858908 390.04 
z
" clip-path="url(#pae77a760bb)" style="fill: #1f77b4; fill-opacity: 0.75; stroke: #000000; stroke-width: 0.703235; stroke-linejoin: miter"/>
   </g>
   <g id="patch_77">
    <path d="M 589.78134 390.04 
L 596.703772 390.04 
L 596.703772 390.04 
L 589.78134 390.04 
z
" clip-path="url(#pae77a760bb)" style="fill: #1f77b4; fill-opacity: 0.75; stroke: #000000; stroke-width: 0.703235; stroke-linejoin: miter"/>
   </g>
   <g id="patch_78">
    <path d="M 596.703772 390.04 
L 603.626204 390.04 
L 603.626204 390.04 
L 596.703772 390.04 
z
" clip-path="url(#pae77a760bb)" style="fill: #1f77b4; fill-opacity: 0.75; stroke: #000000; stroke-width: 0.703235; stroke-linejoin: miter"/>
   </g>
   <g id="patch_79">
    <path d="M 603.626204 390.04 
L 610.548636 390.04 
L 610.548636 388.383207 
L 603.626204 388.383207 
z
" clip-path="url(#pae77a760bb)" style="fill: #1f77b4; fill-opacity: 0.75; stroke: #000000; stroke-width: 0.703235; stroke-linejoin: miter"/>
   </g>
   <g id="matplotlib.axis_1">
    <g id="xtick_1">
     <g id="line2d_1">
      <defs>
       <path id="mc873e16d23" d="M 0 0 
L 0 3.5 
" style="stroke: #000000; stroke-width: 0.8"/>
      </defs>
      <g>
       <use xlink:href="#mc873e16d23" x="58.8483" y="390.04" style="stroke: #000000; stroke-width: 0.8"/>
      </g>
     </g>
     <g id="text_1">
      <!-- 0.0 -->
      <g transform="translate(50.896738 404.638438) scale(0.1 -0.1)">
       <defs>
        <path id="DejaVuSans-30" d="M 2034 4250 
Q 1547 4250 1301 3770 
Q 1056 3291 1056 2328 
Q 1056 1369 1301 889 
Q 1547 409 2034 409 
Q 2525 409 2770 889 
Q 3016 1369 3016 2328 
Q 3016 3291 2770 3770 
Q 2525 4250 2034 4250 
z
M 2034 4750 
Q 2819 4750 3233 4129 
Q 3647 3509 3647 2328 
Q 3647 1150 3233 529 
Q 2819 -91 2034 -91 
Q 1250 -91 836 529 
Q 422 1150 422 2328 
Q 422 3509 836 4129 
Q 1250 4750 2034 4750 
z
" transform="scale(0.015625)"/>
        <path id="DejaVuSans-2e" d="M 684 794 
L 1344 794 
L 1344 0 
L 684 0 
L 684 794 
z
" transform="scale(0.015625)"/>
       </defs>
       <use xlink:href="#DejaVuSans-30"/>
       <use xlink:href="#DejaVuSans-2e" x="63.623047"/>
       <use xlink:href="#DejaVuSans-30" x="95.410156"/>
      </g>
     </g>
    </g>
    <g id="xtick_2">
     <g id="line2d_2">
      <g>
       <use xlink:href="#mc873e16d23" x="128.723367" y="390.04" style="stroke: #000000; stroke-width: 0.8"/>
      </g>
     </g>
     <g id="text_2">
      <!-- 0.2 -->
      <g transform="translate(120.771804 404.638438) scale(0.1 -0.1)">
       <defs>
        <path id="DejaVuSans-32" d="M 1228 531 
L 3431 531 
L 3431 0 
L 469 0 
L 469 531 
Q 828 903 1448 1529 
Q 2069 2156 2228 2338 
Q 2531 2678 2651 2914 
Q 2772 3150 2772 3378 
Q 2772 3750 2511 3984 
Q 2250 4219 1831 4219 
Q 1534 4219 1204 4116 
Q 875 4013 500 3803 
L 500 4441 
Q 881 4594 1212 4672 
Q 1544 4750 1819 4750 
Q 2544 4750 2975 4387 
Q 3406 4025 3406 3419 
Q 3406 3131 3298 2873 
Q 3191 2616 2906 2266 
Q 2828 2175 2409 1742 
Q 1991 1309 1228 531 
z
" transform="scale(0.015625)"/>
       </defs>
       <use xlink:href="#DejaVuSans-30"/>
       <use xlink:href="#DejaVuSans-2e" x="63.623047"/>
       <use xlink:href="#DejaVuSans-32" x="95.410156"/>
      </g>
     </g>
    </g>
    <g id="xtick_3">
     <g id="line2d_3">
      <g>
       <use xlink:href="#mc873e16d23" x="198.598434" y="390.04" style="stroke: #000000; stroke-width: 0.8"/>
      </g>
     </g>
     <g id="text_3">
      <!-- 0.4 -->
      <g transform="translate(190.646871 404.638438) scale(0.1 -0.1)">
       <defs>
        <path id="DejaVuSans-34" d="M 2419 4116 
L 825 1625 
L 2419 1625 
L 2419 4116 
z
M 2253 4666 
L 3047 4666 
L 3047 1625 
L 3713 1625 
L 3713 1100 
L 3047 1100 
L 3047 0 
L 2419 0 
L 2419 1100 
L 313 1100 
L 313 1709 
L 2253 4666 
z
" transform="scale(0.015625)"/>
       </defs>
       <use xlink:href="#DejaVuSans-30"/>
       <use xlink:href="#DejaVuSans-2e" x="63.623047"/>
       <use xlink:href="#DejaVuSans-34" x="95.410156"/>
      </g>
     </g>
    </g>
    <g id="xtick_4">
     <g id="line2d_4">
      <g>
       <use xlink:href="#mc873e16d23" x="268.4735" y="390.04" style="stroke: #000000; stroke-width: 0.8"/>
      </g>
     </g>
     <g id="text_4">
      <!-- 0.6 -->
      <g transform="translate(260.521938 404.638438) scale(0.1 -0.1)">
       <defs>
        <path id="DejaVuSans-36" d="M 2113 2584 
Q 1688 2584 1439 2293 
Q 1191 2003 1191 1497 
Q 1191 994 1439 701 
Q 1688 409 2113 409 
Q 2538 409 2786 701 
Q 3034 994 3034 1497 
Q 3034 2003 2786 2293 
Q 2538 2584 2113 2584 
z
M 3366 4563 
L 3366 3988 
Q 3128 4100 2886 4159 
Q 2644 4219 2406 4219 
Q 1781 4219 1451 3797 
Q 1122 3375 1075 2522 
Q 1259 2794 1537 2939 
Q 1816 3084 2150 3084 
Q 2853 3084 3261 2657 
Q 3669 2231 3669 1497 
Q 3669 778 3244 343 
Q 2819 -91 2113 -91 
Q 1303 -91 875 529 
Q 447 1150 447 2328 
Q 447 3434 972 4092 
Q 1497 4750 2381 4750 
Q 2619 4750 2861 4703 
Q 3103 4656 3366 4563 
z
" transform="scale(0.015625)"/>
       </defs>
       <use xlink:href="#DejaVuSans-30"/>
       <use xlink:href="#DejaVuSans-2e" x="63.623047"/>
       <use xlink:href="#DejaVuSans-36" x="95.410156"/>
      </g>
     </g>
    </g>
    <g id="xtick_5">
     <g id="line2d_5">
      <g>
       <use xlink:href="#mc873e16d23" x="338.348567" y="390.04" style="stroke: #000000; stroke-width: 0.8"/>
      </g>
     </g>
     <g id="text_5">
      <!-- 0.8 -->
      <g transform="translate(330.397005 404.638438) scale(0.1 -0.1)">
       <defs>
        <path id="DejaVuSans-38" d="M 2034 2216 
Q 1584 2216 1326 1975 
Q 1069 1734 1069 1313 
Q 1069 891 1326 650 
Q 1584 409 2034 409 
Q 2484 409 2743 651 
Q 3003 894 3003 1313 
Q 3003 1734 2745 1975 
Q 2488 2216 2034 2216 
z
M 1403 2484 
Q 997 2584 770 2862 
Q 544 3141 544 3541 
Q 544 4100 942 4425 
Q 1341 4750 2034 4750 
Q 2731 4750 3128 4425 
Q 3525 4100 3525 3541 
Q 3525 3141 3298 2862 
Q 3072 2584 2669 2484 
Q 3125 2378 3379 2068 
Q 3634 1759 3634 1313 
Q 3634 634 3220 271 
Q 2806 -91 2034 -91 
Q 1263 -91 848 271 
Q 434 634 434 1313 
Q 434 1759 690 2068 
Q 947 2378 1403 2484 
z
M 1172 3481 
Q 1172 3119 1398 2916 
Q 1625 2713 2034 2713 
Q 2441 2713 2670 2916 
Q 2900 3119 2900 3481 
Q 2900 3844 2670 4047 
Q 2441 4250 2034 4250 
Q 1625 4250 1398 4047 
Q 1172 3844 1172 3481 
z
" transform="scale(0.015625)"/>
       </defs>
       <use xlink:href="#DejaVuSans-30"/>
       <use xlink:href="#DejaVuSans-2e" x="63.623047"/>
       <use xlink:href="#DejaVuSans-38" x="95.410156"/>
      </g>
     </g>
    </g>
    <g id="xtick_6">
     <g id="line2d_6">
      <g>
       <use xlink:href="#mc873e16d23" x="408.223634" y="390.04" style="stroke: #000000; stroke-width: 0.8"/>
      </g>
     </g>
     <g id="text_6">
      <!-- 1.0 -->
      <g transform="translate(400.272071 404.638438) scale(0.1 -0.1)">
       <defs>
        <path id="DejaVuSans-31" d="M 794 531 
L 1825 531 
L 1825 4091 
L 703 3866 
L 703 4441 
L 1819 4666 
L 2450 4666 
L 2450 531 
L 3481 531 
L 3481 0 
L 794 0 
L 794 531 
z
" transform="scale(0.015625)"/>
       </defs>
       <use xlink:href="#DejaVuSans-31"/>
       <use xlink:href="#DejaVuSans-2e" x="63.623047"/>
       <use xlink:href="#DejaVuSans-30" x="95.410156"/>
      </g>
     </g>
    </g>
    <g id="xtick_7">
     <g id="line2d_7">
      <g>
       <use xlink:href="#mc873e16d23" x="478.098701" y="390.04" style="stroke: #000000; stroke-width: 0.8"/>
      </g>
     </g>
     <g id="text_7">
      <!-- 1.2 -->
      <g transform="translate(470.147138 404.638438) scale(0.1 -0.1)">
       <use xlink:href="#DejaVuSans-31"/>
       <use xlink:href="#DejaVuSans-2e" x="63.623047"/>
       <use xlink:href="#DejaVuSans-32" x="95.410156"/>
      </g>
     </g>
    </g>
    <g id="xtick_8">
     <g id="line2d_8">
      <g>
       <use xlink:href="#mc873e16d23" x="547.973767" y="390.04" style="stroke: #000000; stroke-width: 0.8"/>
      </g>
     </g>
     <g id="text_8">
      <!-- 1.4 -->
      <g transform="translate(540.022205 404.638438) scale(0.1 -0.1)">
       <use xlink:href="#DejaVuSans-31"/>
       <use xlink:href="#DejaVuSans-2e" x="63.623047"/>
       <use xlink:href="#DejaVuSans-34" x="95.410156"/>
      </g>
     </g>
    </g>
    <g id="xtick_9">
     <g id="line2d_9">
      <g>
       <use xlink:href="#mc873e16d23" x="617.848834" y="390.04" style="stroke: #000000; stroke-width: 0.8"/>
      </g>
     </g>
     <g id="text_9">
      <!-- 1.6 -->
      <g transform="translate(609.897271 404.638438) scale(0.1 -0.1)">
       <use xlink:href="#DejaVuSans-31"/>
       <use xlink:href="#DejaVuSans-2e" x="63.623047"/>
       <use xlink:href="#DejaVuSans-36" x="95.410156"/>
      </g>
     </g>
    </g>
    <g id="text_10">
     <!-- Listing Price -->
     <g transform="translate(313.776406 418.316562) scale(0.1 -0.1)">
      <defs>
       <path id="DejaVuSans-4c" d="M 628 4666 
L 1259 4666 
L 1259 531 
L 3531 531 
L 3531 0 
L 628 0 
L 628 4666 
z
" transform="scale(0.015625)"/>
       <path id="DejaVuSans-69" d="M 603 3500 
L 1178 3500 
L 1178 0 
L 603 0 
L 603 3500 
z
M 603 4863 
L 1178 4863 
L 1178 4134 
L 603 4134 
L 603 4863 
z
" transform="scale(0.015625)"/>
       <path id="DejaVuSans-73" d="M 2834 3397 
L 2834 2853 
Q 2591 2978 2328 3040 
Q 2066 3103 1784 3103 
Q 1356 3103 1142 2972 
Q 928 2841 928 2578 
Q 928 2378 1081 2264 
Q 1234 2150 1697 2047 
L 1894 2003 
Q 2506 1872 2764 1633 
Q 3022 1394 3022 966 
Q 3022 478 2636 193 
Q 2250 -91 1575 -91 
Q 1294 -91 989 -36 
Q 684 19 347 128 
L 347 722 
Q 666 556 975 473 
Q 1284 391 1588 391 
Q 1994 391 2212 530 
Q 2431 669 2431 922 
Q 2431 1156 2273 1281 
Q 2116 1406 1581 1522 
L 1381 1569 
Q 847 1681 609 1914 
Q 372 2147 372 2553 
Q 372 3047 722 3315 
Q 1072 3584 1716 3584 
Q 2034 3584 2315 3537 
Q 2597 3491 2834 3397 
z
" transform="scale(0.015625)"/>
       <path id="DejaVuSans-74" d="M 1172 4494 
L 1172 3500 
L 2356 3500 
L 2356 3053 
L 1172 3053 
L 1172 1153 
Q 1172 725 1289 603 
Q 1406 481 1766 481 
L 2356 481 
L 2356 0 
L 1766 0 
Q 1100 0 847 248 
Q 594 497 594 1153 
L 594 3053 
L 172 3053 
L 172 3500 
L 594 3500 
L 594 4494 
L 1172 4494 
z
" transform="scale(0.015625)"/>
       <path id="DejaVuSans-6e" d="M 3513 2113 
L 3513 0 
L 2938 0 
L 2938 2094 
Q 2938 2591 2744 2837 
Q 2550 3084 2163 3084 
Q 1697 3084 1428 2787 
Q 1159 2491 1159 1978 
L 1159 0 
L 581 0 
L 581 3500 
L 1159 3500 
L 1159 2956 
Q 1366 3272 1645 3428 
Q 1925 3584 2291 3584 
Q 2894 3584 3203 3211 
Q 3513 2838 3513 2113 
z
" transform="scale(0.015625)"/>
       <path id="DejaVuSans-67" d="M 2906 1791 
Q 2906 2416 2648 2759 
Q 2391 3103 1925 3103 
Q 1463 3103 1205 2759 
Q 947 2416 947 1791 
Q 947 1169 1205 825 
Q 1463 481 1925 481 
Q 2391 481 2648 825 
Q 2906 1169 2906 1791 
z
M 3481 434 
Q 3481 -459 3084 -895 
Q 2688 -1331 1869 -1331 
Q 1566 -1331 1297 -1286 
Q 1028 -1241 775 -1147 
L 775 -588 
Q 1028 -725 1275 -790 
Q 1522 -856 1778 -856 
Q 2344 -856 2625 -561 
Q 2906 -266 2906 331 
L 2906 616 
Q 2728 306 2450 153 
Q 2172 0 1784 0 
Q 1141 0 747 490 
Q 353 981 353 1791 
Q 353 2603 747 3093 
Q 1141 3584 1784 3584 
Q 2172 3584 2450 3431 
Q 2728 3278 2906 2969 
L 2906 3500 
L 3481 3500 
L 3481 434 
z
" transform="scale(0.015625)"/>
       <path id="DejaVuSans-20" transform="scale(0.015625)"/>
       <path id="DejaVuSans-50" d="M 1259 4147 
L 1259 2394 
L 2053 2394 
Q 2494 2394 2734 2622 
Q 2975 2850 2975 3272 
Q 2975 3691 2734 3919 
Q 2494 4147 2053 4147 
L 1259 4147 
z
M 628 4666 
L 2053 4666 
Q 2838 4666 3239 4311 
Q 3641 3956 3641 3272 
Q 3641 2581 3239 2228 
Q 2838 1875 2053 1875 
L 1259 1875 
L 1259 0 
L 628 0 
L 628 4666 
z
" transform="scale(0.015625)"/>
       <path id="DejaVuSans-72" d="M 2631 2963 
Q 2534 3019 2420 3045 
Q 2306 3072 2169 3072 
Q 1681 3072 1420 2755 
Q 1159 2438 1159 1844 
L 1159 0 
L 581 0 
L 581 3500 
L 1159 3500 
L 1159 2956 
Q 1341 3275 1631 3429 
Q 1922 3584 2338 3584 
Q 2397 3584 2469 3576 
Q 2541 3569 2628 3553 
L 2631 2963 
z
" transform="scale(0.015625)"/>
       <path id="DejaVuSans-63" d="M 3122 3366 
L 3122 2828 
Q 2878 2963 2633 3030 
Q 2388 3097 2138 3097 
Q 1578 3097 1268 2742 
Q 959 2388 959 1747 
Q 959 1106 1268 751 
Q 1578 397 2138 397 
Q 2388 397 2633 464 
Q 2878 531 3122 666 
L 3122 134 
Q 2881 22 2623 -34 
Q 2366 -91 2075 -91 
Q 1284 -91 818 406 
Q 353 903 353 1747 
Q 353 2603 823 3093 
Q 1294 3584 2113 3584 
Q 2378 3584 2631 3529 
Q 2884 3475 3122 3366 
z
" transform="scale(0.015625)"/>
       <path id="DejaVuSans-65" d="M 3597 1894 
L 3597 1613 
L 953 1613 
Q 991 1019 1311 708 
Q 1631 397 2203 397 
Q 2534 397 2845 478 
Q 3156 559 3463 722 
L 3463 178 
Q 3153 47 2828 -22 
Q 2503 -91 2169 -91 
Q 1331 -91 842 396 
Q 353 884 353 1716 
Q 353 2575 817 3079 
Q 1281 3584 2069 3584 
Q 2775 3584 3186 3129 
Q 3597 2675 3597 1894 
z
M 3022 2063 
Q 3016 2534 2758 2815 
Q 2500 3097 2075 3097 
Q 1594 3097 1305 2825 
Q 1016 2553 972 2059 
L 3022 2063 
z
" transform="scale(0.015625)"/>
      </defs>
      <use xlink:href="#DejaVuSans-4c"/>
      <use xlink:href="#DejaVuSans-69" x="55.712891"/>
      <use xlink:href="#DejaVuSans-73" x="83.496094"/>
      <use xlink:href="#DejaVuSans-74" x="135.595703"/>
      <use xlink:href="#DejaVuSans-69" x="174.804688"/>
      <use xlink:href="#DejaVuSans-6e" x="202.587891"/>
      <use xlink:href="#DejaVuSans-67" x="265.966797"/>
      <use xlink:href="#DejaVuSans-20" x="329.443359"/>
      <use xlink:href="#DejaVuSans-50" x="361.230469"/>
      <use xlink:href="#DejaVuSans-72" x="419.783203"/>
      <use xlink:href="#DejaVuSans-69" x="460.896484"/>
      <use xlink:href="#DejaVuSans-63" x="488.679688"/>
      <use xlink:href="#DejaVuSans-65" x="543.660156"/>
     </g>
    </g>
    <g id="text_11">
     <!-- 1e6 -->
     <g transform="translate(618.321875 417.316562) scale(0.1 -0.1)">
      <use xlink:href="#DejaVuSans-31"/>
      <use xlink:href="#DejaVuSans-65" x="63.623047"/>
      <use xlink:href="#DejaVuSans-36" x="125.146484"/>
     </g>
    </g>
   </g>
   <g id="matplotlib.axis_2">
    <g id="ytick_1">
     <g id="line2d_10">
      <defs>
       <path id="mc539437ed3" d="M 0 0 
L -3.5 0 
" style="stroke: #000000; stroke-width: 0.8"/>
      </defs>
      <g>
       <use xlink:href="#mc539437ed3" x="50.87" y="390.04" style="stroke: #000000; stroke-width: 0.8"/>
      </g>
     </g>
     <g id="text_12">
      <!-- 0 -->
      <g transform="translate(37.5075 393.839219) scale(0.1 -0.1)">
       <use xlink:href="#DejaVuSans-30"/>
      </g>
     </g>
    </g>
    <g id="ytick_2">
     <g id="line2d_11">
      <g>
       <use xlink:href="#mc539437ed3" x="50.87" y="307.200332" style="stroke: #000000; stroke-width: 0.8"/>
      </g>
     </g>
     <g id="text_13">
      <!-- 50 -->
      <g transform="translate(31.145 310.999551) scale(0.1 -0.1)">
       <defs>
        <path id="DejaVuSans-35" d="M 691 4666 
L 3169 4666 
L 3169 4134 
L 1269 4134 
L 1269 2991 
Q 1406 3038 1543 3061 
Q 1681 3084 1819 3084 
Q 2600 3084 3056 2656 
Q 3513 2228 3513 1497 
Q 3513 744 3044 326 
Q 2575 -91 1722 -91 
Q 1428 -91 1123 -41 
Q 819 9 494 109 
L 494 744 
Q 775 591 1075 516 
Q 1375 441 1709 441 
Q 2250 441 2565 725 
Q 2881 1009 2881 1497 
Q 2881 1984 2565 2268 
Q 2250 2553 1709 2553 
Q 1456 2553 1204 2497 
Q 953 2441 691 2322 
L 691 4666 
z
" transform="scale(0.015625)"/>
       </defs>
       <use xlink:href="#DejaVuSans-35"/>
       <use xlink:href="#DejaVuSans-30" x="63.623047"/>
      </g>
     </g>
    </g>
    <g id="ytick_3">
     <g id="line2d_12">
      <g>
       <use xlink:href="#mc539437ed3" x="50.87" y="224.360664" style="stroke: #000000; stroke-width: 0.8"/>
      </g>
     </g>
     <g id="text_14">
      <!-- 100 -->
      <g transform="translate(24.7825 228.159883) scale(0.1 -0.1)">
       <use xlink:href="#DejaVuSans-31"/>
       <use xlink:href="#DejaVuSans-30" x="63.623047"/>
       <use xlink:href="#DejaVuSans-30" x="127.246094"/>
      </g>
     </g>
    </g>
    <g id="ytick_4">
     <g id="line2d_13">
      <g>
       <use xlink:href="#mc539437ed3" x="50.87" y="141.520996" style="stroke: #000000; stroke-width: 0.8"/>
      </g>
     </g>
     <g id="text_15">
      <!-- 150 -->
      <g transform="translate(24.7825 145.320215) scale(0.1 -0.1)">
       <use xlink:href="#DejaVuSans-31"/>
       <use xlink:href="#DejaVuSans-35" x="63.623047"/>
       <use xlink:href="#DejaVuSans-30" x="127.246094"/>
      </g>
     </g>
    </g>
    <g id="ytick_5">
     <g id="line2d_14">
      <g>
       <use xlink:href="#mc539437ed3" x="50.87" y="58.681328" style="stroke: #000000; stroke-width: 0.8"/>
      </g>
     </g>
     <g id="text_16">
      <!-- 200 -->
      <g transform="translate(24.7825 62.480547) scale(0.1 -0.1)">
       <use xlink:href="#DejaVuSans-32"/>
       <use xlink:href="#DejaVuSans-30" x="63.623047"/>
       <use xlink:href="#DejaVuSans-30" x="127.246094"/>
      </g>
     </g>
    </g>
    <g id="text_17">
     <!-- Count -->
     <g transform="translate(18.702813 215.268438) rotate(-90) scale(0.1 -0.1)">
      <defs>
       <path id="DejaVuSans-43" d="M 4122 4306 
L 4122 3641 
Q 3803 3938 3442 4084 
Q 3081 4231 2675 4231 
Q 1875 4231 1450 3742 
Q 1025 3253 1025 2328 
Q 1025 1406 1450 917 
Q 1875 428 2675 428 
Q 3081 428 3442 575 
Q 3803 722 4122 1019 
L 4122 359 
Q 3791 134 3420 21 
Q 3050 -91 2638 -91 
Q 1578 -91 968 557 
Q 359 1206 359 2328 
Q 359 3453 968 4101 
Q 1578 4750 2638 4750 
Q 3056 4750 3426 4639 
Q 3797 4528 4122 4306 
z
" transform="scale(0.015625)"/>
       <path id="DejaVuSans-6f" d="M 1959 3097 
Q 1497 3097 1228 2736 
Q 959 2375 959 1747 
Q 959 1119 1226 758 
Q 1494 397 1959 397 
Q 2419 397 2687 759 
Q 2956 1122 2956 1747 
Q 2956 2369 2687 2733 
Q 2419 3097 1959 3097 
z
M 1959 3584 
Q 2709 3584 3137 3096 
Q 3566 2609 3566 1747 
Q 3566 888 3137 398 
Q 2709 -91 1959 -91 
Q 1206 -91 779 398 
Q 353 888 353 1747 
Q 353 2609 779 3096 
Q 1206 3584 1959 3584 
z
" transform="scale(0.015625)"/>
       <path id="DejaVuSans-75" d="M 544 1381 
L 544 3500 
L 1119 3500 
L 1119 1403 
Q 1119 906 1312 657 
Q 1506 409 1894 409 
Q 2359 409 2629 706 
Q 2900 1003 2900 1516 
L 2900 3500 
L 3475 3500 
L 3475 0 
L 2900 0 
L 2900 538 
Q 2691 219 2414 64 
Q 2138 -91 1772 -91 
Q 1169 -91 856 284 
Q 544 659 544 1381 
z
M 1991 3584 
L 1991 3584 
z
" transform="scale(0.015625)"/>
      </defs>
      <use xlink:href="#DejaVuSans-43"/>
      <use xlink:href="#DejaVuSans-6f" x="69.824219"/>
      <use xlink:href="#DejaVuSans-75" x="131.005859"/>
      <use xlink:href="#DejaVuSans-6e" x="194.384766"/>
      <use xlink:href="#DejaVuSans-74" x="257.763672"/>
     </g>
    </g>
   </g>
   <g id="patch_80">
    <path d="M 50.87 390.04 
L 50.87 10.8 
" style="fill: none; stroke: #000000; stroke-width: 0.8; stroke-linejoin: miter; stroke-linecap: square"/>
   </g>
   <g id="patch_81">
    <path d="M 50.87 390.04 
L 637.2 390.04 
" style="fill: none; stroke: #000000; stroke-width: 0.8; stroke-linejoin: miter; stroke-linecap: square"/>
   </g>
  </g>
 </g>
 <defs>
  <clipPath id="pae77a760bb">
   <rect x="50.87" y="10.8" width="586.33" height="379.24"/>
  </clipPath>
 </defs>
</svg>
