<?xml version="1.0" encoding="utf-8" standalone="no"?>
<!DOCTYPE svg PUBLIC "-//W3C//DTD SVG 1.1//EN"
  "http://www.w3.org/Graphics/SVG/1.1/DTD/svg11.dtd">
<svg xmlns:xlink="http://www.w3.org/1999/xlink" width="576pt" height="468pt" viewBox="0 0 576 468" xmlns="http://www.w3.org/2000/svg" version="1.1">
 <metadata>
  <rdf:RDF xmlns:dc="http://purl.org/dc/elements/1.1/" xmlns:cc="http://creativecommons.org/ns#" xmlns:rdf="http://www.w3.org/1999/02/22-rdf-syntax-ns#">
   <cc:Work>
    <dc:type rdf:resource="http://purl.org/dc/dcmitype/StillImage"/>
    <dc:date>2023-04-04T05:16:52.880348</dc:date>
    <dc:format>image/svg+xml</dc:format>
    <dc:creator>
     <cc:Agent>
      <dc:title>Matplotlib v3.7.1, https://matplotlib.org/</dc:title>
     </cc:Agent>
    </dc:creator>
   </cc:Work>
  </rdf:RDF>
 </metadata>
 <defs>
  <style type="text/css">*{stroke-linejoin: round; stroke-linecap: butt}</style>
 </defs>
 <g id="figure_1">
  <g id="patch_1">
   <path d="M 0 468 
L 576 468 
L 576 0 
L 0 0 
z
" style="fill: #ffffff"/>
  </g>
  <g id="axes_1">
   <g id="patch_2">
    <path d="M 150.82 423.13925 
L 565.2 423.13925 
L 565.2 32.2 
L 150.82 32.2 
z
" style="fill: #ffffff"/>
   </g>
   <g id="line2d_1">
    <path d="M 512.398972 115.247392 
L 512.398972 49.969966 
" clip-path="url(#p2824f738f2)" style="fill: none; stroke-dasharray: 1.85,0.8; stroke-dashoffset: 0; stroke: #bbbbbb; stroke-width: 0.5"/>
   </g>
   <g id="line2d_2">
    <path d="M 401.11491 151.512628 
L 401.11491 86.235202 
" clip-path="url(#p2824f738f2)" style="fill: none; stroke-dasharray: 1.85,0.8; stroke-dashoffset: 0; stroke: #bbbbbb; stroke-width: 0.5"/>
   </g>
   <g id="line2d_3">
    <path d="M 316.585468 187.777865 
L 316.585468 122.500439 
" clip-path="url(#p2824f738f2)" style="fill: none; stroke-dasharray: 1.85,0.8; stroke-dashoffset: 0; stroke: #bbbbbb; stroke-width: 0.5"/>
   </g>
   <g id="line2d_4">
    <path d="M 256.081444 224.043101 
L 256.081444 158.765676 
" clip-path="url(#p2824f738f2)" style="fill: none; stroke-dasharray: 1.85,0.8; stroke-dashoffset: 0; stroke: #bbbbbb; stroke-width: 0.5"/>
   </g>
   <g id="line2d_5">
    <path d="M 203.621028 260.308338 
L 203.621028 195.030912 
" clip-path="url(#p2824f738f2)" style="fill: none; stroke-dasharray: 1.85,0.8; stroke-dashoffset: 0; stroke: #bbbbbb; stroke-width: 0.5"/>
   </g>
   <g id="line2d_6">
    <path d="M 254.74053 296.573574 
L 254.74053 231.296149 
" clip-path="url(#p2824f738f2)" style="fill: none; stroke-dasharray: 1.85,0.8; stroke-dashoffset: 0; stroke: #bbbbbb; stroke-width: 0.5"/>
   </g>
   <g id="line2d_7">
    <path d="M 294.17847 332.838811 
L 294.17847 267.561385 
" clip-path="url(#p2824f738f2)" style="fill: none; stroke-dasharray: 1.85,0.8; stroke-dashoffset: 0; stroke: #bbbbbb; stroke-width: 0.5"/>
   </g>
   <g id="line2d_8">
    <path d="M 263.493539 369.104048 
L 263.493539 303.826622 
" clip-path="url(#p2824f738f2)" style="fill: none; stroke-dasharray: 1.85,0.8; stroke-dashoffset: 0; stroke: #bbbbbb; stroke-width: 0.5"/>
   </g>
   <g id="line2d_9">
    <path d="M 288.529838 405.369284 
L 288.529838 340.091858 
" clip-path="url(#p2824f738f2)" style="fill: none; stroke-dasharray: 1.85,0.8; stroke-dashoffset: 0; stroke: #bbbbbb; stroke-width: 0.5"/>
   </g>
   <g id="line2d_10">
    <path d="M 150.82 390.863189 
L 565.2 390.863189 
" clip-path="url(#p2824f738f2)" style="fill: none; stroke-dasharray: 0.5,2.5; stroke-dashoffset: 0; stroke: #cccccc; stroke-width: 0.5"/>
   </g>
   <g id="line2d_11">
    <path d="M 150.82 354.597953 
L 565.2 354.597953 
" clip-path="url(#p2824f738f2)" style="fill: none; stroke-dasharray: 0.5,2.5; stroke-dashoffset: 0; stroke: #cccccc; stroke-width: 0.5"/>
   </g>
   <g id="line2d_12">
    <path d="M 150.82 318.332716 
L 565.2 318.332716 
" clip-path="url(#p2824f738f2)" style="fill: none; stroke-dasharray: 0.5,2.5; stroke-dashoffset: 0; stroke: #cccccc; stroke-width: 0.5"/>
   </g>
   <g id="line2d_13">
    <path d="M 150.82 282.06748 
L 565.2 282.06748 
" clip-path="url(#p2824f738f2)" style="fill: none; stroke-dasharray: 0.5,2.5; stroke-dashoffset: 0; stroke: #cccccc; stroke-width: 0.5"/>
   </g>
   <g id="line2d_14">
    <path d="M 150.82 245.802243 
L 565.2 245.802243 
" clip-path="url(#p2824f738f2)" style="fill: none; stroke-dasharray: 0.5,2.5; stroke-dashoffset: 0; stroke: #cccccc; stroke-width: 0.5"/>
   </g>
   <g id="line2d_15">
    <path d="M 150.82 209.537007 
L 565.2 209.537007 
" clip-path="url(#p2824f738f2)" style="fill: none; stroke-dasharray: 0.5,2.5; stroke-dashoffset: 0; stroke: #cccccc; stroke-width: 0.5"/>
   </g>
   <g id="line2d_16">
    <path d="M 150.82 173.27177 
L 565.2 173.27177 
" clip-path="url(#p2824f738f2)" style="fill: none; stroke-dasharray: 0.5,2.5; stroke-dashoffset: 0; stroke: #cccccc; stroke-width: 0.5"/>
   </g>
   <g id="line2d_17">
    <path d="M 150.82 137.006534 
L 565.2 137.006534 
" clip-path="url(#p2824f738f2)" style="fill: none; stroke-dasharray: 0.5,2.5; stroke-dashoffset: 0; stroke: #cccccc; stroke-width: 0.5"/>
   </g>
   <g id="line2d_18">
    <path d="M 150.82 100.741297 
L 565.2 100.741297 
" clip-path="url(#p2824f738f2)" style="fill: none; stroke-dasharray: 0.5,2.5; stroke-dashoffset: 0; stroke: #cccccc; stroke-width: 0.5"/>
   </g>
   <g id="line2d_19">
    <path d="M 150.82 64.476061 
L 565.2 64.476061 
" clip-path="url(#p2824f738f2)" style="fill: none; stroke-dasharray: 0.5,2.5; stroke-dashoffset: 0; stroke: #cccccc; stroke-width: 0.5"/>
   </g>
   <g id="line2d_20">
    <path d="M 280.71861 423.13925 
L 280.71861 384.045325 
" clip-path="url(#p2824f738f2)" style="fill: none; stroke-dasharray: 1.85,0.8; stroke-dashoffset: 0; stroke: #bbbbbb; stroke-width: 0.5"/>
   </g>
   <g id="line2d_21">
    <path d="M 243.338329 423.13925 
L 243.338329 32.2 
" clip-path="url(#p2824f738f2)" style="fill: none; stroke-dasharray: 1.85,0.8; stroke-dashoffset: 0; stroke: #bbbbbb; stroke-width: 0.5"/>
   </g>
   <g id="matplotlib.axis_1">
    <g id="xtick_1">
     <g id="line2d_22">
      <defs>
       <path id="mfb3fd7df5d" d="M 0 0 
L 0 3.5 
" style="stroke: #262626; stroke-width: 0.8"/>
      </defs>
      <g>
       <use xlink:href="#mfb3fd7df5d" x="193.496802" y="423.13925" style="fill: #262626; stroke: #262626; stroke-width: 0.8"/>
      </g>
     </g>
     <g id="text_1">
      <!-- 12.30 -->
      <g style="fill: #262626" transform="translate(177.232583 439.444406) scale(0.13 -0.13)">
       <defs>
        <path id="ArialMT-31" d="M 2384 0 
L 1822 0 
L 1822 3584 
Q 1619 3391 1289 3197 
Q 959 3003 697 2906 
L 697 3450 
Q 1169 3672 1522 3987 
Q 1875 4303 2022 4600 
L 2384 4600 
L 2384 0 
z
" transform="scale(0.015625)"/>
        <path id="ArialMT-32" d="M 3222 541 
L 3222 0 
L 194 0 
Q 188 203 259 391 
Q 375 700 629 1000 
Q 884 1300 1366 1694 
Q 2113 2306 2375 2664 
Q 2638 3022 2638 3341 
Q 2638 3675 2398 3904 
Q 2159 4134 1775 4134 
Q 1369 4134 1125 3890 
Q 881 3647 878 3216 
L 300 3275 
Q 359 3922 746 4261 
Q 1134 4600 1788 4600 
Q 2447 4600 2831 4234 
Q 3216 3869 3216 3328 
Q 3216 3053 3103 2787 
Q 2991 2522 2730 2228 
Q 2469 1934 1863 1422 
Q 1356 997 1212 845 
Q 1069 694 975 541 
L 3222 541 
z
" transform="scale(0.015625)"/>
        <path id="ArialMT-2e" d="M 581 0 
L 581 641 
L 1222 641 
L 1222 0 
L 581 0 
z
" transform="scale(0.015625)"/>
        <path id="ArialMT-33" d="M 269 1209 
L 831 1284 
Q 928 806 1161 595 
Q 1394 384 1728 384 
Q 2125 384 2398 659 
Q 2672 934 2672 1341 
Q 2672 1728 2419 1979 
Q 2166 2231 1775 2231 
Q 1616 2231 1378 2169 
L 1441 2663 
Q 1497 2656 1531 2656 
Q 1891 2656 2178 2843 
Q 2466 3031 2466 3422 
Q 2466 3731 2256 3934 
Q 2047 4138 1716 4138 
Q 1388 4138 1169 3931 
Q 950 3725 888 3313 
L 325 3413 
Q 428 3978 793 4289 
Q 1159 4600 1703 4600 
Q 2078 4600 2393 4439 
Q 2709 4278 2876 4000 
Q 3044 3722 3044 3409 
Q 3044 3113 2884 2869 
Q 2725 2625 2413 2481 
Q 2819 2388 3044 2092 
Q 3269 1797 3269 1353 
Q 3269 753 2831 336 
Q 2394 -81 1725 -81 
Q 1122 -81 723 278 
Q 325 638 269 1209 
z
" transform="scale(0.015625)"/>
        <path id="ArialMT-30" d="M 266 2259 
Q 266 3072 433 3567 
Q 600 4063 929 4331 
Q 1259 4600 1759 4600 
Q 2128 4600 2406 4451 
Q 2684 4303 2865 4023 
Q 3047 3744 3150 3342 
Q 3253 2941 3253 2259 
Q 3253 1453 3087 958 
Q 2922 463 2592 192 
Q 2263 -78 1759 -78 
Q 1097 -78 719 397 
Q 266 969 266 2259 
z
M 844 2259 
Q 844 1131 1108 757 
Q 1372 384 1759 384 
Q 2147 384 2411 759 
Q 2675 1134 2675 2259 
Q 2675 3391 2411 3762 
Q 2147 4134 1753 4134 
Q 1366 4134 1134 3806 
Q 844 3388 844 2259 
z
" transform="scale(0.015625)"/>
       </defs>
       <use xlink:href="#ArialMT-31"/>
       <use xlink:href="#ArialMT-32" x="55.615234"/>
       <use xlink:href="#ArialMT-2e" x="111.230469"/>
       <use xlink:href="#ArialMT-33" x="139.013672"/>
       <use xlink:href="#ArialMT-30" x="194.628906"/>
      </g>
     </g>
    </g>
    <g id="xtick_2">
     <g id="line2d_23">
      <g>
       <use xlink:href="#mfb3fd7df5d" x="243.109396" y="423.13925" style="fill: #262626; stroke: #262626; stroke-width: 0.8"/>
      </g>
     </g>
     <g id="text_2">
      <!-- 12.35 -->
      <g style="fill: #262626" transform="translate(226.845177 439.444406) scale(0.13 -0.13)">
       <defs>
        <path id="ArialMT-35" d="M 266 1200 
L 856 1250 
Q 922 819 1161 601 
Q 1400 384 1738 384 
Q 2144 384 2425 690 
Q 2706 997 2706 1503 
Q 2706 1984 2436 2262 
Q 2166 2541 1728 2541 
Q 1456 2541 1237 2417 
Q 1019 2294 894 2097 
L 366 2166 
L 809 4519 
L 3088 4519 
L 3088 3981 
L 1259 3981 
L 1013 2750 
Q 1425 3038 1878 3038 
Q 2478 3038 2890 2622 
Q 3303 2206 3303 1553 
Q 3303 931 2941 478 
Q 2500 -78 1738 -78 
Q 1113 -78 717 272 
Q 322 622 266 1200 
z
" transform="scale(0.015625)"/>
       </defs>
       <use xlink:href="#ArialMT-31"/>
       <use xlink:href="#ArialMT-32" x="55.615234"/>
       <use xlink:href="#ArialMT-2e" x="111.230469"/>
       <use xlink:href="#ArialMT-33" x="139.013672"/>
       <use xlink:href="#ArialMT-35" x="194.628906"/>
      </g>
     </g>
    </g>
    <g id="xtick_3">
     <g id="line2d_24">
      <g>
       <use xlink:href="#mfb3fd7df5d" x="292.72199" y="423.13925" style="fill: #262626; stroke: #262626; stroke-width: 0.8"/>
      </g>
     </g>
     <g id="text_3">
      <!-- 12.40 -->
      <g style="fill: #262626" transform="translate(276.457771 439.444406) scale(0.13 -0.13)">
       <defs>
        <path id="ArialMT-34" d="M 2069 0 
L 2069 1097 
L 81 1097 
L 81 1613 
L 2172 4581 
L 2631 4581 
L 2631 1613 
L 3250 1613 
L 3250 1097 
L 2631 1097 
L 2631 0 
L 2069 0 
z
M 2069 1613 
L 2069 3678 
L 634 1613 
L 2069 1613 
z
" transform="scale(0.015625)"/>
       </defs>
       <use xlink:href="#ArialMT-31"/>
       <use xlink:href="#ArialMT-32" x="55.615234"/>
       <use xlink:href="#ArialMT-2e" x="111.230469"/>
       <use xlink:href="#ArialMT-34" x="139.013672"/>
       <use xlink:href="#ArialMT-30" x="194.628906"/>
      </g>
     </g>
    </g>
    <g id="xtick_4">
     <g id="line2d_25">
      <g>
       <use xlink:href="#mfb3fd7df5d" x="342.334583" y="423.13925" style="fill: #262626; stroke: #262626; stroke-width: 0.8"/>
      </g>
     </g>
     <g id="text_4">
      <!-- 12.45 -->
      <g style="fill: #262626" transform="translate(326.070365 439.444406) scale(0.13 -0.13)">
       <use xlink:href="#ArialMT-31"/>
       <use xlink:href="#ArialMT-32" x="55.615234"/>
       <use xlink:href="#ArialMT-2e" x="111.230469"/>
       <use xlink:href="#ArialMT-34" x="139.013672"/>
       <use xlink:href="#ArialMT-35" x="194.628906"/>
      </g>
     </g>
    </g>
    <g id="xtick_5">
     <g id="line2d_26">
      <g>
       <use xlink:href="#mfb3fd7df5d" x="391.947177" y="423.13925" style="fill: #262626; stroke: #262626; stroke-width: 0.8"/>
      </g>
     </g>
     <g id="text_5">
      <!-- 12.50 -->
      <g style="fill: #262626" transform="translate(375.682958 439.444406) scale(0.13 -0.13)">
       <use xlink:href="#ArialMT-31"/>
       <use xlink:href="#ArialMT-32" x="55.615234"/>
       <use xlink:href="#ArialMT-2e" x="111.230469"/>
       <use xlink:href="#ArialMT-35" x="139.013672"/>
       <use xlink:href="#ArialMT-30" x="194.628906"/>
      </g>
     </g>
    </g>
    <g id="xtick_6">
     <g id="line2d_27">
      <g>
       <use xlink:href="#mfb3fd7df5d" x="441.559771" y="423.13925" style="fill: #262626; stroke: #262626; stroke-width: 0.8"/>
      </g>
     </g>
     <g id="text_6">
      <!-- 12.55 -->
      <g style="fill: #262626" transform="translate(425.295552 439.444406) scale(0.13 -0.13)">
       <use xlink:href="#ArialMT-31"/>
       <use xlink:href="#ArialMT-32" x="55.615234"/>
       <use xlink:href="#ArialMT-2e" x="111.230469"/>
       <use xlink:href="#ArialMT-35" x="139.013672"/>
       <use xlink:href="#ArialMT-35" x="194.628906"/>
      </g>
     </g>
    </g>
    <g id="xtick_7">
     <g id="line2d_28">
      <g>
       <use xlink:href="#mfb3fd7df5d" x="491.172365" y="423.13925" style="fill: #262626; stroke: #262626; stroke-width: 0.8"/>
      </g>
     </g>
     <g id="text_7">
      <!-- 12.60 -->
      <g style="fill: #262626" transform="translate(474.908146 439.444406) scale(0.13 -0.13)">
       <defs>
        <path id="ArialMT-36" d="M 3184 3459 
L 2625 3416 
Q 2550 3747 2413 3897 
Q 2184 4138 1850 4138 
Q 1581 4138 1378 3988 
Q 1113 3794 959 3422 
Q 806 3050 800 2363 
Q 1003 2672 1297 2822 
Q 1591 2972 1913 2972 
Q 2475 2972 2870 2558 
Q 3266 2144 3266 1488 
Q 3266 1056 3080 686 
Q 2894 316 2569 119 
Q 2244 -78 1831 -78 
Q 1128 -78 684 439 
Q 241 956 241 2144 
Q 241 3472 731 4075 
Q 1159 4600 1884 4600 
Q 2425 4600 2770 4297 
Q 3116 3994 3184 3459 
z
M 888 1484 
Q 888 1194 1011 928 
Q 1134 663 1356 523 
Q 1578 384 1822 384 
Q 2178 384 2434 671 
Q 2691 959 2691 1453 
Q 2691 1928 2437 2201 
Q 2184 2475 1800 2475 
Q 1419 2475 1153 2201 
Q 888 1928 888 1484 
z
" transform="scale(0.015625)"/>
       </defs>
       <use xlink:href="#ArialMT-31"/>
       <use xlink:href="#ArialMT-32" x="55.615234"/>
       <use xlink:href="#ArialMT-2e" x="111.230469"/>
       <use xlink:href="#ArialMT-36" x="139.013672"/>
       <use xlink:href="#ArialMT-30" x="194.628906"/>
      </g>
     </g>
    </g>
    <g id="xtick_8">
     <g id="line2d_29">
      <g>
       <use xlink:href="#mfb3fd7df5d" x="540.784959" y="423.13925" style="fill: #262626; stroke: #262626; stroke-width: 0.8"/>
      </g>
     </g>
     <g id="text_8">
      <!-- 12.65 -->
      <g style="fill: #262626" transform="translate(524.52074 439.444406) scale(0.13 -0.13)">
       <use xlink:href="#ArialMT-31"/>
       <use xlink:href="#ArialMT-32" x="55.615234"/>
       <use xlink:href="#ArialMT-2e" x="111.230469"/>
       <use xlink:href="#ArialMT-36" x="139.013672"/>
       <use xlink:href="#ArialMT-35" x="194.628906"/>
      </g>
     </g>
    </g>
   </g>
   <g id="matplotlib.axis_2">
    <g id="ytick_1">
     <g id="text_9">
      <!-- 2 other features -->
      <g style="fill: #999999" transform="translate(52.77125 395.515768) scale(0.13 -0.13)">
       <defs>
        <path id="ArialMT-20" transform="scale(0.015625)"/>
        <path id="ArialMT-6f" d="M 213 1659 
Q 213 2581 725 3025 
Q 1153 3394 1769 3394 
Q 2453 3394 2887 2945 
Q 3322 2497 3322 1706 
Q 3322 1066 3130 698 
Q 2938 331 2570 128 
Q 2203 -75 1769 -75 
Q 1072 -75 642 372 
Q 213 819 213 1659 
z
M 791 1659 
Q 791 1022 1069 705 
Q 1347 388 1769 388 
Q 2188 388 2466 706 
Q 2744 1025 2744 1678 
Q 2744 2294 2464 2611 
Q 2184 2928 1769 2928 
Q 1347 2928 1069 2612 
Q 791 2297 791 1659 
z
" transform="scale(0.015625)"/>
        <path id="ArialMT-74" d="M 1650 503 
L 1731 6 
Q 1494 -44 1306 -44 
Q 1000 -44 831 53 
Q 663 150 594 308 
Q 525 466 525 972 
L 525 2881 
L 113 2881 
L 113 3319 
L 525 3319 
L 525 4141 
L 1084 4478 
L 1084 3319 
L 1650 3319 
L 1650 2881 
L 1084 2881 
L 1084 941 
Q 1084 700 1114 631 
Q 1144 563 1211 522 
Q 1278 481 1403 481 
Q 1497 481 1650 503 
z
" transform="scale(0.015625)"/>
        <path id="ArialMT-68" d="M 422 0 
L 422 4581 
L 984 4581 
L 984 2938 
Q 1378 3394 1978 3394 
Q 2347 3394 2619 3248 
Q 2891 3103 3008 2847 
Q 3125 2591 3125 2103 
L 3125 0 
L 2563 0 
L 2563 2103 
Q 2563 2525 2380 2717 
Q 2197 2909 1863 2909 
Q 1613 2909 1392 2779 
Q 1172 2650 1078 2428 
Q 984 2206 984 1816 
L 984 0 
L 422 0 
z
" transform="scale(0.015625)"/>
        <path id="ArialMT-65" d="M 2694 1069 
L 3275 997 
Q 3138 488 2766 206 
Q 2394 -75 1816 -75 
Q 1088 -75 661 373 
Q 234 822 234 1631 
Q 234 2469 665 2931 
Q 1097 3394 1784 3394 
Q 2450 3394 2872 2941 
Q 3294 2488 3294 1666 
Q 3294 1616 3291 1516 
L 816 1516 
Q 847 969 1125 678 
Q 1403 388 1819 388 
Q 2128 388 2347 550 
Q 2566 713 2694 1069 
z
M 847 1978 
L 2700 1978 
Q 2663 2397 2488 2606 
Q 2219 2931 1791 2931 
Q 1403 2931 1139 2672 
Q 875 2413 847 1978 
z
" transform="scale(0.015625)"/>
        <path id="ArialMT-72" d="M 416 0 
L 416 3319 
L 922 3319 
L 922 2816 
Q 1116 3169 1280 3281 
Q 1444 3394 1641 3394 
Q 1925 3394 2219 3213 
L 2025 2691 
Q 1819 2813 1613 2813 
Q 1428 2813 1281 2702 
Q 1134 2591 1072 2394 
Q 978 2094 978 1738 
L 978 0 
L 416 0 
z
" transform="scale(0.015625)"/>
        <path id="ArialMT-66" d="M 556 0 
L 556 2881 
L 59 2881 
L 59 3319 
L 556 3319 
L 556 3672 
Q 556 4006 616 4169 
Q 697 4388 901 4523 
Q 1106 4659 1475 4659 
Q 1713 4659 2000 4603 
L 1916 4113 
Q 1741 4144 1584 4144 
Q 1328 4144 1222 4034 
Q 1116 3925 1116 3625 
L 1116 3319 
L 1763 3319 
L 1763 2881 
L 1116 2881 
L 1116 0 
L 556 0 
z
" transform="scale(0.015625)"/>
        <path id="ArialMT-61" d="M 2588 409 
Q 2275 144 1986 34 
Q 1697 -75 1366 -75 
Q 819 -75 525 192 
Q 231 459 231 875 
Q 231 1119 342 1320 
Q 453 1522 633 1644 
Q 813 1766 1038 1828 
Q 1203 1872 1538 1913 
Q 2219 1994 2541 2106 
Q 2544 2222 2544 2253 
Q 2544 2597 2384 2738 
Q 2169 2928 1744 2928 
Q 1347 2928 1158 2789 
Q 969 2650 878 2297 
L 328 2372 
Q 403 2725 575 2942 
Q 747 3159 1072 3276 
Q 1397 3394 1825 3394 
Q 2250 3394 2515 3294 
Q 2781 3194 2906 3042 
Q 3031 2891 3081 2659 
Q 3109 2516 3109 2141 
L 3109 1391 
Q 3109 606 3145 398 
Q 3181 191 3288 0 
L 2700 0 
Q 2613 175 2588 409 
z
M 2541 1666 
Q 2234 1541 1622 1453 
Q 1275 1403 1131 1340 
Q 988 1278 909 1158 
Q 831 1038 831 891 
Q 831 666 1001 516 
Q 1172 366 1500 366 
Q 1825 366 2078 508 
Q 2331 650 2450 897 
Q 2541 1088 2541 1459 
L 2541 1666 
z
" transform="scale(0.015625)"/>
        <path id="ArialMT-75" d="M 2597 0 
L 2597 488 
Q 2209 -75 1544 -75 
Q 1250 -75 995 37 
Q 741 150 617 320 
Q 494 491 444 738 
Q 409 903 409 1263 
L 409 3319 
L 972 3319 
L 972 1478 
Q 972 1038 1006 884 
Q 1059 663 1231 536 
Q 1403 409 1656 409 
Q 1909 409 2131 539 
Q 2353 669 2445 892 
Q 2538 1116 2538 1541 
L 2538 3319 
L 3100 3319 
L 3100 0 
L 2597 0 
z
" transform="scale(0.015625)"/>
        <path id="ArialMT-73" d="M 197 991 
L 753 1078 
Q 800 744 1014 566 
Q 1228 388 1613 388 
Q 2000 388 2187 545 
Q 2375 703 2375 916 
Q 2375 1106 2209 1216 
Q 2094 1291 1634 1406 
Q 1016 1563 777 1677 
Q 538 1791 414 1992 
Q 291 2194 291 2438 
Q 291 2659 392 2848 
Q 494 3038 669 3163 
Q 800 3259 1026 3326 
Q 1253 3394 1513 3394 
Q 1903 3394 2198 3281 
Q 2494 3169 2634 2976 
Q 2775 2784 2828 2463 
L 2278 2388 
Q 2241 2644 2061 2787 
Q 1881 2931 1553 2931 
Q 1166 2931 1000 2803 
Q 834 2675 834 2503 
Q 834 2394 903 2306 
Q 972 2216 1119 2156 
Q 1203 2125 1616 2013 
Q 2213 1853 2448 1751 
Q 2684 1650 2818 1456 
Q 2953 1263 2953 975 
Q 2953 694 2789 445 
Q 2625 197 2315 61 
Q 2006 -75 1616 -75 
Q 969 -75 630 194 
Q 291 463 197 991 
z
" transform="scale(0.015625)"/>
       </defs>
       <use xlink:href="#ArialMT-32"/>
       <use xlink:href="#ArialMT-20" x="55.615234"/>
       <use xlink:href="#ArialMT-6f" x="83.398438"/>
       <use xlink:href="#ArialMT-74" x="139.013672"/>
       <use xlink:href="#ArialMT-68" x="166.796875"/>
       <use xlink:href="#ArialMT-65" x="222.412109"/>
       <use xlink:href="#ArialMT-72" x="278.027344"/>
       <use xlink:href="#ArialMT-20" x="311.328125"/>
       <use xlink:href="#ArialMT-66" x="339.111328"/>
       <use xlink:href="#ArialMT-65" x="366.894531"/>
       <use xlink:href="#ArialMT-61" x="422.509766"/>
       <use xlink:href="#ArialMT-74" x="478.125"/>
       <use xlink:href="#ArialMT-75" x="505.908203"/>
       <use xlink:href="#ArialMT-72" x="561.523438"/>
       <use xlink:href="#ArialMT-65" x="594.824219"/>
       <use xlink:href="#ArialMT-73" x="650.439453"/>
      </g>
     </g>
    </g>
    <g id="ytick_2">
     <g id="text_10">
      <!-- 41 = Length -->
      <g style="fill: #999999" transform="translate(74.787969 359.269828) scale(0.13 -0.13)">
       <defs>
        <path id="ArialMT-3d" d="M 3381 2694 
L 356 2694 
L 356 3219 
L 3381 3219 
L 3381 2694 
z
M 3381 1303 
L 356 1303 
L 356 1828 
L 3381 1828 
L 3381 1303 
z
" transform="scale(0.015625)"/>
        <path id="ArialMT-4c" d="M 469 0 
L 469 4581 
L 1075 4581 
L 1075 541 
L 3331 541 
L 3331 0 
L 469 0 
z
" transform="scale(0.015625)"/>
        <path id="ArialMT-6e" d="M 422 0 
L 422 3319 
L 928 3319 
L 928 2847 
Q 1294 3394 1984 3394 
Q 2284 3394 2536 3286 
Q 2788 3178 2913 3003 
Q 3038 2828 3088 2588 
Q 3119 2431 3119 2041 
L 3119 0 
L 2556 0 
L 2556 2019 
Q 2556 2363 2490 2533 
Q 2425 2703 2258 2804 
Q 2091 2906 1866 2906 
Q 1506 2906 1245 2678 
Q 984 2450 984 1813 
L 984 0 
L 422 0 
z
" transform="scale(0.015625)"/>
        <path id="ArialMT-67" d="M 319 -275 
L 866 -356 
Q 900 -609 1056 -725 
Q 1266 -881 1628 -881 
Q 2019 -881 2231 -725 
Q 2444 -569 2519 -288 
Q 2563 -116 2559 434 
Q 2191 0 1641 0 
Q 956 0 581 494 
Q 206 988 206 1678 
Q 206 2153 378 2554 
Q 550 2956 876 3175 
Q 1203 3394 1644 3394 
Q 2231 3394 2613 2919 
L 2613 3319 
L 3131 3319 
L 3131 450 
Q 3131 -325 2973 -648 
Q 2816 -972 2473 -1159 
Q 2131 -1347 1631 -1347 
Q 1038 -1347 672 -1080 
Q 306 -813 319 -275 
z
M 784 1719 
Q 784 1066 1043 766 
Q 1303 466 1694 466 
Q 2081 466 2343 764 
Q 2606 1063 2606 1700 
Q 2606 2309 2336 2618 
Q 2066 2928 1684 2928 
Q 1309 2928 1046 2623 
Q 784 2319 784 1719 
z
" transform="scale(0.015625)"/>
       </defs>
       <use xlink:href="#ArialMT-34"/>
       <use xlink:href="#ArialMT-31" x="55.615234"/>
       <use xlink:href="#ArialMT-20" x="111.230469"/>
       <use xlink:href="#ArialMT-3d" x="139.013672"/>
       <use xlink:href="#ArialMT-20" x="197.412109"/>
       <use xlink:href="#ArialMT-4c" x="225.195312"/>
       <use xlink:href="#ArialMT-65" x="280.810547"/>
       <use xlink:href="#ArialMT-6e" x="336.425781"/>
       <use xlink:href="#ArialMT-67" x="392.041016"/>
       <use xlink:href="#ArialMT-74" x="447.65625"/>
       <use xlink:href="#ArialMT-68" x="475.439453"/>
      </g>
     </g>
    </g>
    <g id="ytick_3">
     <g id="text_11">
      <!-- 10.001 = Displacement -->
      <g style="fill: #999999" transform="translate(10.494844 323.004591) scale(0.13 -0.13)">
       <defs>
        <path id="ArialMT-44" d="M 494 0 
L 494 4581 
L 2072 4581 
Q 2606 4581 2888 4516 
Q 3281 4425 3559 4188 
Q 3922 3881 4101 3404 
Q 4281 2928 4281 2316 
Q 4281 1794 4159 1391 
Q 4038 988 3847 723 
Q 3656 459 3429 307 
Q 3203 156 2883 78 
Q 2563 0 2147 0 
L 494 0 
z
M 1100 541 
L 2078 541 
Q 2531 541 2789 625 
Q 3047 709 3200 863 
Q 3416 1078 3536 1442 
Q 3656 1806 3656 2325 
Q 3656 3044 3420 3430 
Q 3184 3816 2847 3947 
Q 2603 4041 2063 4041 
L 1100 4041 
L 1100 541 
z
" transform="scale(0.015625)"/>
        <path id="ArialMT-69" d="M 425 3934 
L 425 4581 
L 988 4581 
L 988 3934 
L 425 3934 
z
M 425 0 
L 425 3319 
L 988 3319 
L 988 0 
L 425 0 
z
" transform="scale(0.015625)"/>
        <path id="ArialMT-70" d="M 422 -1272 
L 422 3319 
L 934 3319 
L 934 2888 
Q 1116 3141 1344 3267 
Q 1572 3394 1897 3394 
Q 2322 3394 2647 3175 
Q 2972 2956 3137 2557 
Q 3303 2159 3303 1684 
Q 3303 1175 3120 767 
Q 2938 359 2589 142 
Q 2241 -75 1856 -75 
Q 1575 -75 1351 44 
Q 1128 163 984 344 
L 984 -1272 
L 422 -1272 
z
M 931 1641 
Q 931 1000 1190 694 
Q 1450 388 1819 388 
Q 2194 388 2461 705 
Q 2728 1022 2728 1688 
Q 2728 2322 2467 2637 
Q 2206 2953 1844 2953 
Q 1484 2953 1207 2617 
Q 931 2281 931 1641 
z
" transform="scale(0.015625)"/>
        <path id="ArialMT-6c" d="M 409 0 
L 409 4581 
L 972 4581 
L 972 0 
L 409 0 
z
" transform="scale(0.015625)"/>
        <path id="ArialMT-63" d="M 2588 1216 
L 3141 1144 
Q 3050 572 2676 248 
Q 2303 -75 1759 -75 
Q 1078 -75 664 370 
Q 250 816 250 1647 
Q 250 2184 428 2587 
Q 606 2991 970 3192 
Q 1334 3394 1763 3394 
Q 2303 3394 2647 3120 
Q 2991 2847 3088 2344 
L 2541 2259 
Q 2463 2594 2264 2762 
Q 2066 2931 1784 2931 
Q 1359 2931 1093 2626 
Q 828 2322 828 1663 
Q 828 994 1084 691 
Q 1341 388 1753 388 
Q 2084 388 2306 591 
Q 2528 794 2588 1216 
z
" transform="scale(0.015625)"/>
        <path id="ArialMT-6d" d="M 422 0 
L 422 3319 
L 925 3319 
L 925 2853 
Q 1081 3097 1340 3245 
Q 1600 3394 1931 3394 
Q 2300 3394 2536 3241 
Q 2772 3088 2869 2813 
Q 3263 3394 3894 3394 
Q 4388 3394 4653 3120 
Q 4919 2847 4919 2278 
L 4919 0 
L 4359 0 
L 4359 2091 
Q 4359 2428 4304 2576 
Q 4250 2725 4106 2815 
Q 3963 2906 3769 2906 
Q 3419 2906 3187 2673 
Q 2956 2441 2956 1928 
L 2956 0 
L 2394 0 
L 2394 2156 
Q 2394 2531 2256 2718 
Q 2119 2906 1806 2906 
Q 1569 2906 1367 2781 
Q 1166 2656 1075 2415 
Q 984 2175 984 1722 
L 984 0 
L 422 0 
z
" transform="scale(0.015625)"/>
       </defs>
       <use xlink:href="#ArialMT-31"/>
       <use xlink:href="#ArialMT-30" x="55.615234"/>
       <use xlink:href="#ArialMT-2e" x="111.230469"/>
       <use xlink:href="#ArialMT-30" x="139.013672"/>
       <use xlink:href="#ArialMT-30" x="194.628906"/>
       <use xlink:href="#ArialMT-31" x="250.244141"/>
       <use xlink:href="#ArialMT-20" x="305.859375"/>
       <use xlink:href="#ArialMT-3d" x="333.642578"/>
       <use xlink:href="#ArialMT-20" x="392.041016"/>
       <use xlink:href="#ArialMT-44" x="419.824219"/>
       <use xlink:href="#ArialMT-69" x="492.041016"/>
       <use xlink:href="#ArialMT-73" x="514.257812"/>
       <use xlink:href="#ArialMT-70" x="564.257812"/>
       <use xlink:href="#ArialMT-6c" x="619.873047"/>
       <use xlink:href="#ArialMT-61" x="642.089844"/>
       <use xlink:href="#ArialMT-63" x="697.705078"/>
       <use xlink:href="#ArialMT-65" x="747.705078"/>
       <use xlink:href="#ArialMT-6d" x="803.320312"/>
       <use xlink:href="#ArialMT-65" x="886.621094"/>
       <use xlink:href="#ArialMT-6e" x="942.236328"/>
       <use xlink:href="#ArialMT-74" x="997.851562"/>
      </g>
     </g>
    </g>
    <g id="ytick_4">
     <g id="text_12">
      <!-- 82.4 = Sail Area -->
      <g style="fill: #999999" transform="translate(51.672344 286.720058) scale(0.13 -0.13)">
       <defs>
        <path id="ArialMT-38" d="M 1131 2484 
Q 781 2613 612 2850 
Q 444 3088 444 3419 
Q 444 3919 803 4259 
Q 1163 4600 1759 4600 
Q 2359 4600 2725 4251 
Q 3091 3903 3091 3403 
Q 3091 3084 2923 2848 
Q 2756 2613 2416 2484 
Q 2838 2347 3058 2040 
Q 3278 1734 3278 1309 
Q 3278 722 2862 322 
Q 2447 -78 1769 -78 
Q 1091 -78 675 323 
Q 259 725 259 1325 
Q 259 1772 486 2073 
Q 713 2375 1131 2484 
z
M 1019 3438 
Q 1019 3113 1228 2906 
Q 1438 2700 1772 2700 
Q 2097 2700 2305 2904 
Q 2513 3109 2513 3406 
Q 2513 3716 2298 3927 
Q 2084 4138 1766 4138 
Q 1444 4138 1231 3931 
Q 1019 3725 1019 3438 
z
M 838 1322 
Q 838 1081 952 856 
Q 1066 631 1291 507 
Q 1516 384 1775 384 
Q 2178 384 2440 643 
Q 2703 903 2703 1303 
Q 2703 1709 2433 1975 
Q 2163 2241 1756 2241 
Q 1359 2241 1098 1978 
Q 838 1716 838 1322 
z
" transform="scale(0.015625)"/>
        <path id="ArialMT-53" d="M 288 1472 
L 859 1522 
Q 900 1178 1048 958 
Q 1197 738 1509 602 
Q 1822 466 2213 466 
Q 2559 466 2825 569 
Q 3091 672 3220 851 
Q 3350 1031 3350 1244 
Q 3350 1459 3225 1620 
Q 3100 1781 2813 1891 
Q 2628 1963 1997 2114 
Q 1366 2266 1113 2400 
Q 784 2572 623 2826 
Q 463 3081 463 3397 
Q 463 3744 659 4045 
Q 856 4347 1234 4503 
Q 1613 4659 2075 4659 
Q 2584 4659 2973 4495 
Q 3363 4331 3572 4012 
Q 3781 3694 3797 3291 
L 3216 3247 
Q 3169 3681 2898 3903 
Q 2628 4125 2100 4125 
Q 1550 4125 1298 3923 
Q 1047 3722 1047 3438 
Q 1047 3191 1225 3031 
Q 1400 2872 2139 2705 
Q 2878 2538 3153 2413 
Q 3553 2228 3743 1945 
Q 3934 1663 3934 1294 
Q 3934 928 3725 604 
Q 3516 281 3123 101 
Q 2731 -78 2241 -78 
Q 1619 -78 1198 103 
Q 778 284 539 648 
Q 300 1013 288 1472 
z
" transform="scale(0.015625)"/>
        <path id="ArialMT-41" d="M -9 0 
L 1750 4581 
L 2403 4581 
L 4278 0 
L 3588 0 
L 3053 1388 
L 1138 1388 
L 634 0 
L -9 0 
z
M 1313 1881 
L 2866 1881 
L 2388 3150 
Q 2169 3728 2063 4100 
Q 1975 3659 1816 3225 
L 1313 1881 
z
" transform="scale(0.015625)"/>
       </defs>
       <use xlink:href="#ArialMT-38"/>
       <use xlink:href="#ArialMT-32" x="55.615234"/>
       <use xlink:href="#ArialMT-2e" x="111.230469"/>
       <use xlink:href="#ArialMT-34" x="139.013672"/>
       <use xlink:href="#ArialMT-20" x="194.628906"/>
       <use xlink:href="#ArialMT-3d" x="222.412109"/>
       <use xlink:href="#ArialMT-20" x="280.810547"/>
       <use xlink:href="#ArialMT-53" x="308.59375"/>
       <use xlink:href="#ArialMT-61" x="375.292969"/>
       <use xlink:href="#ArialMT-69" x="430.908203"/>
       <use xlink:href="#ArialMT-6c" x="453.125"/>
       <use xlink:href="#ArialMT-20" x="475.341797"/>
       <use xlink:href="#ArialMT-41" x="497.625"/>
       <use xlink:href="#ArialMT-72" x="564.324219"/>
       <use xlink:href="#ArialMT-65" x="597.625"/>
       <use xlink:href="#ArialMT-61" x="653.240234"/>
      </g>
     </g>
    </g>
    <g id="ytick_5">
     <g id="text_13">
      <!-- 0 = Hull Type -->
      <g style="fill: #999999" transform="translate(67.812656 250.474118) scale(0.13 -0.13)">
       <defs>
        <path id="ArialMT-48" d="M 513 0 
L 513 4581 
L 1119 4581 
L 1119 2700 
L 3500 2700 
L 3500 4581 
L 4106 4581 
L 4106 0 
L 3500 0 
L 3500 2159 
L 1119 2159 
L 1119 0 
L 513 0 
z
" transform="scale(0.015625)"/>
        <path id="ArialMT-54" d="M 1659 0 
L 1659 4041 
L 150 4041 
L 150 4581 
L 3781 4581 
L 3781 4041 
L 2266 4041 
L 2266 0 
L 1659 0 
z
" transform="scale(0.015625)"/>
        <path id="ArialMT-79" d="M 397 -1278 
L 334 -750 
Q 519 -800 656 -800 
Q 844 -800 956 -737 
Q 1069 -675 1141 -563 
Q 1194 -478 1313 -144 
Q 1328 -97 1363 -6 
L 103 3319 
L 709 3319 
L 1400 1397 
Q 1534 1031 1641 628 
Q 1738 1016 1872 1384 
L 2581 3319 
L 3144 3319 
L 1881 -56 
Q 1678 -603 1566 -809 
Q 1416 -1088 1222 -1217 
Q 1028 -1347 759 -1347 
Q 597 -1347 397 -1278 
z
" transform="scale(0.015625)"/>
       </defs>
       <use xlink:href="#ArialMT-30"/>
       <use xlink:href="#ArialMT-20" x="55.615234"/>
       <use xlink:href="#ArialMT-3d" x="83.398438"/>
       <use xlink:href="#ArialMT-20" x="141.796875"/>
       <use xlink:href="#ArialMT-48" x="169.580078"/>
       <use xlink:href="#ArialMT-75" x="241.796875"/>
       <use xlink:href="#ArialMT-6c" x="297.412109"/>
       <use xlink:href="#ArialMT-6c" x="319.628906"/>
       <use xlink:href="#ArialMT-20" x="341.845703"/>
       <use xlink:href="#ArialMT-54" x="367.878906"/>
       <use xlink:href="#ArialMT-79" x="423.462891"/>
       <use xlink:href="#ArialMT-70" x="473.462891"/>
       <use xlink:href="#ArialMT-65" x="529.078125"/>
      </g>
     </g>
    </g>
    <g id="ytick_6">
     <g id="text_14">
      <!-- 37.24 = LWL -->
      <g style="fill: #999999" transform="translate(70.705156 214.189585) scale(0.13 -0.13)">
       <defs>
        <path id="ArialMT-37" d="M 303 3981 
L 303 4522 
L 3269 4522 
L 3269 4084 
Q 2831 3619 2401 2847 
Q 1972 2075 1738 1259 
Q 1569 684 1522 0 
L 944 0 
Q 953 541 1156 1306 
Q 1359 2072 1739 2783 
Q 2119 3494 2547 3981 
L 303 3981 
z
" transform="scale(0.015625)"/>
        <path id="ArialMT-57" d="M 1294 0 
L 78 4581 
L 700 4581 
L 1397 1578 
Q 1509 1106 1591 641 
Q 1766 1375 1797 1488 
L 2669 4581 
L 3400 4581 
L 4056 2263 
Q 4303 1400 4413 641 
Q 4500 1075 4641 1638 
L 5359 4581 
L 5969 4581 
L 4713 0 
L 4128 0 
L 3163 3491 
Q 3041 3928 3019 4028 
Q 2947 3713 2884 3491 
L 1913 0 
L 1294 0 
z
" transform="scale(0.015625)"/>
       </defs>
       <use xlink:href="#ArialMT-33"/>
       <use xlink:href="#ArialMT-37" x="55.615234"/>
       <use xlink:href="#ArialMT-2e" x="111.230469"/>
       <use xlink:href="#ArialMT-32" x="139.013672"/>
       <use xlink:href="#ArialMT-34" x="194.628906"/>
       <use xlink:href="#ArialMT-20" x="250.244141"/>
       <use xlink:href="#ArialMT-3d" x="278.027344"/>
       <use xlink:href="#ArialMT-20" x="336.425781"/>
       <use xlink:href="#ArialMT-4c" x="364.208984"/>
       <use xlink:href="#ArialMT-57" x="412.449219"/>
       <use xlink:href="#ArialMT-4c" x="506.833984"/>
      </g>
     </g>
    </g>
    <g id="ytick_7">
     <g id="text_15">
      <!-- 4 = Make Variant -->
      <g style="fill: #999999" transform="translate(46.147344 177.924348) scale(0.13 -0.13)">
       <defs>
        <path id="ArialMT-4d" d="M 475 0 
L 475 4581 
L 1388 4581 
L 2472 1338 
Q 2622 884 2691 659 
Q 2769 909 2934 1394 
L 4031 4581 
L 4847 4581 
L 4847 0 
L 4263 0 
L 4263 3834 
L 2931 0 
L 2384 0 
L 1059 3900 
L 1059 0 
L 475 0 
z
" transform="scale(0.015625)"/>
        <path id="ArialMT-6b" d="M 425 0 
L 425 4581 
L 988 4581 
L 988 1969 
L 2319 3319 
L 3047 3319 
L 1778 2088 
L 3175 0 
L 2481 0 
L 1384 1697 
L 988 1316 
L 988 0 
L 425 0 
z
" transform="scale(0.015625)"/>
        <path id="ArialMT-56" d="M 1803 0 
L 28 4581 
L 684 4581 
L 1875 1253 
Q 2019 853 2116 503 
Q 2222 878 2363 1253 
L 3600 4581 
L 4219 4581 
L 2425 0 
L 1803 0 
z
" transform="scale(0.015625)"/>
       </defs>
       <use xlink:href="#ArialMT-34"/>
       <use xlink:href="#ArialMT-20" x="55.615234"/>
       <use xlink:href="#ArialMT-3d" x="83.398438"/>
       <use xlink:href="#ArialMT-20" x="141.796875"/>
       <use xlink:href="#ArialMT-4d" x="169.580078"/>
       <use xlink:href="#ArialMT-61" x="252.880859"/>
       <use xlink:href="#ArialMT-6b" x="308.496094"/>
       <use xlink:href="#ArialMT-65" x="358.496094"/>
       <use xlink:href="#ArialMT-20" x="414.111328"/>
       <use xlink:href="#ArialMT-56" x="441.894531"/>
       <use xlink:href="#ArialMT-61" x="501.21875"/>
       <use xlink:href="#ArialMT-72" x="556.833984"/>
       <use xlink:href="#ArialMT-69" x="590.134766"/>
       <use xlink:href="#ArialMT-61" x="612.351562"/>
       <use xlink:href="#ArialMT-6e" x="667.966797"/>
       <use xlink:href="#ArialMT-74" x="723.582031"/>
      </g>
     </g>
    </g>
    <g id="ytick_8">
     <g id="text_16">
      <!-- 3.94 = Draft -->
      <g style="fill: #999999" transform="translate(75.535469 141.659112) scale(0.13 -0.13)">
       <defs>
        <path id="ArialMT-39" d="M 350 1059 
L 891 1109 
Q 959 728 1153 556 
Q 1347 384 1650 384 
Q 1909 384 2104 503 
Q 2300 622 2425 820 
Q 2550 1019 2634 1356 
Q 2719 1694 2719 2044 
Q 2719 2081 2716 2156 
Q 2547 1888 2255 1720 
Q 1963 1553 1622 1553 
Q 1053 1553 659 1965 
Q 266 2378 266 3053 
Q 266 3750 677 4175 
Q 1088 4600 1706 4600 
Q 2153 4600 2523 4359 
Q 2894 4119 3086 3673 
Q 3278 3228 3278 2384 
Q 3278 1506 3087 986 
Q 2897 466 2520 194 
Q 2144 -78 1638 -78 
Q 1100 -78 759 220 
Q 419 519 350 1059 
z
M 2653 3081 
Q 2653 3566 2395 3850 
Q 2138 4134 1775 4134 
Q 1400 4134 1122 3828 
Q 844 3522 844 3034 
Q 844 2597 1108 2323 
Q 1372 2050 1759 2050 
Q 2150 2050 2401 2323 
Q 2653 2597 2653 3081 
z
" transform="scale(0.015625)"/>
       </defs>
       <use xlink:href="#ArialMT-33"/>
       <use xlink:href="#ArialMT-2e" x="55.615234"/>
       <use xlink:href="#ArialMT-39" x="83.398438"/>
       <use xlink:href="#ArialMT-34" x="139.013672"/>
       <use xlink:href="#ArialMT-20" x="194.628906"/>
       <use xlink:href="#ArialMT-3d" x="222.412109"/>
       <use xlink:href="#ArialMT-20" x="280.810547"/>
       <use xlink:href="#ArialMT-44" x="308.59375"/>
       <use xlink:href="#ArialMT-72" x="380.810547"/>
       <use xlink:href="#ArialMT-61" x="414.111328"/>
       <use xlink:href="#ArialMT-66" x="469.726562"/>
       <use xlink:href="#ArialMT-74" x="497.509766"/>
      </g>
     </g>
    </g>
    <g id="ytick_9">
     <g id="text_17">
      <!-- 2939 = GDP -->
      <g style="fill: #999999" transform="translate(71.915781 105.393875) scale(0.13 -0.13)">
       <defs>
        <path id="ArialMT-47" d="M 2638 1797 
L 2638 2334 
L 4578 2338 
L 4578 638 
Q 4131 281 3656 101 
Q 3181 -78 2681 -78 
Q 2006 -78 1454 211 
Q 903 500 622 1047 
Q 341 1594 341 2269 
Q 341 2938 620 3517 
Q 900 4097 1425 4378 
Q 1950 4659 2634 4659 
Q 3131 4659 3532 4498 
Q 3934 4338 4162 4050 
Q 4391 3763 4509 3300 
L 3963 3150 
Q 3859 3500 3706 3700 
Q 3553 3900 3268 4020 
Q 2984 4141 2638 4141 
Q 2222 4141 1919 4014 
Q 1616 3888 1430 3681 
Q 1244 3475 1141 3228 
Q 966 2803 966 2306 
Q 966 1694 1177 1281 
Q 1388 869 1791 669 
Q 2194 469 2647 469 
Q 3041 469 3416 620 
Q 3791 772 3984 944 
L 3984 1797 
L 2638 1797 
z
" transform="scale(0.015625)"/>
        <path id="ArialMT-50" d="M 494 0 
L 494 4581 
L 2222 4581 
Q 2678 4581 2919 4538 
Q 3256 4481 3484 4323 
Q 3713 4166 3852 3881 
Q 3991 3597 3991 3256 
Q 3991 2672 3619 2267 
Q 3247 1863 2275 1863 
L 1100 1863 
L 1100 0 
L 494 0 
z
M 1100 2403 
L 2284 2403 
Q 2872 2403 3119 2622 
Q 3366 2841 3366 3238 
Q 3366 3525 3220 3729 
Q 3075 3934 2838 4000 
Q 2684 4041 2272 4041 
L 1100 4041 
L 1100 2403 
z
" transform="scale(0.015625)"/>
       </defs>
       <use xlink:href="#ArialMT-32"/>
       <use xlink:href="#ArialMT-39" x="55.615234"/>
       <use xlink:href="#ArialMT-33" x="111.230469"/>
       <use xlink:href="#ArialMT-39" x="166.845703"/>
       <use xlink:href="#ArialMT-20" x="222.460938"/>
       <use xlink:href="#ArialMT-3d" x="250.244141"/>
       <use xlink:href="#ArialMT-20" x="308.642578"/>
       <use xlink:href="#ArialMT-47" x="336.425781"/>
       <use xlink:href="#ArialMT-44" x="414.208984"/>
       <use xlink:href="#ArialMT-50" x="486.425781"/>
      </g>
     </g>
    </g>
    <g id="ytick_10">
     <g id="text_18">
      <!-- 0 = Year -->
      <g style="fill: #999999" transform="translate(95.730156 69.128639) scale(0.13 -0.13)">
       <defs>
        <path id="ArialMT-59" d="M 1784 0 
L 1784 1941 
L 19 4581 
L 756 4581 
L 1659 3200 
Q 1909 2813 2125 2425 
Q 2331 2784 2625 3234 
L 3513 4581 
L 4219 4581 
L 2391 1941 
L 2391 0 
L 1784 0 
z
" transform="scale(0.015625)"/>
       </defs>
       <use xlink:href="#ArialMT-30"/>
       <use xlink:href="#ArialMT-20" x="55.615234"/>
       <use xlink:href="#ArialMT-3d" x="83.398438"/>
       <use xlink:href="#ArialMT-20" x="141.796875"/>
       <use xlink:href="#ArialMT-59" x="167.830078"/>
       <use xlink:href="#ArialMT-65" x="225.404297"/>
       <use xlink:href="#ArialMT-61" x="281.019531"/>
       <use xlink:href="#ArialMT-72" x="336.634766"/>
      </g>
     </g>
    </g>
    <g id="ytick_11">
     <g id="text_19">
      <!-- 2 other features -->
      <g style="fill: #262626" transform="translate(52.77125 395.515767) scale(0.13 -0.13)">
       <use xlink:href="#ArialMT-32"/>
       <use xlink:href="#ArialMT-20" x="55.615234"/>
       <use xlink:href="#ArialMT-6f" x="83.398438"/>
       <use xlink:href="#ArialMT-74" x="139.013672"/>
       <use xlink:href="#ArialMT-68" x="166.796875"/>
       <use xlink:href="#ArialMT-65" x="222.412109"/>
       <use xlink:href="#ArialMT-72" x="278.027344"/>
       <use xlink:href="#ArialMT-20" x="311.328125"/>
       <use xlink:href="#ArialMT-66" x="339.111328"/>
       <use xlink:href="#ArialMT-65" x="366.894531"/>
       <use xlink:href="#ArialMT-61" x="422.509766"/>
       <use xlink:href="#ArialMT-74" x="478.125"/>
       <use xlink:href="#ArialMT-75" x="505.908203"/>
       <use xlink:href="#ArialMT-72" x="561.523438"/>
       <use xlink:href="#ArialMT-65" x="594.824219"/>
       <use xlink:href="#ArialMT-73" x="650.439453"/>
      </g>
     </g>
    </g>
    <g id="ytick_12">
     <g id="text_20">
      <!--  Length -->
      <g style="fill: #262626" transform="translate(100.450781 359.250531) scale(0.13 -0.13)">
       <use xlink:href="#ArialMT-20"/>
       <use xlink:href="#ArialMT-4c" x="27.783203"/>
       <use xlink:href="#ArialMT-65" x="83.398438"/>
       <use xlink:href="#ArialMT-6e" x="139.013672"/>
       <use xlink:href="#ArialMT-67" x="194.628906"/>
       <use xlink:href="#ArialMT-74" x="250.244141"/>
       <use xlink:href="#ArialMT-68" x="278.027344"/>
      </g>
     </g>
    </g>
    <g id="ytick_13">
     <g id="text_21">
      <!--  Displacement -->
      <g style="fill: #262626" transform="translate(61.456875 322.985294) scale(0.13 -0.13)">
       <use xlink:href="#ArialMT-20"/>
       <use xlink:href="#ArialMT-44" x="27.783203"/>
       <use xlink:href="#ArialMT-69" x="100"/>
       <use xlink:href="#ArialMT-73" x="122.216797"/>
       <use xlink:href="#ArialMT-70" x="172.216797"/>
       <use xlink:href="#ArialMT-6c" x="227.832031"/>
       <use xlink:href="#ArialMT-61" x="250.048828"/>
       <use xlink:href="#ArialMT-63" x="305.664062"/>
       <use xlink:href="#ArialMT-65" x="355.664062"/>
       <use xlink:href="#ArialMT-6d" x="411.279297"/>
       <use xlink:href="#ArialMT-65" x="494.580078"/>
       <use xlink:href="#ArialMT-6e" x="550.195312"/>
       <use xlink:href="#ArialMT-74" x="605.810547"/>
      </g>
     </g>
    </g>
    <g id="ytick_14">
     <g id="text_22">
      <!--  Sail Area -->
      <g style="fill: #262626" transform="translate(88.175938 286.720058) scale(0.13 -0.13)">
       <use xlink:href="#ArialMT-20"/>
       <use xlink:href="#ArialMT-53" x="27.783203"/>
       <use xlink:href="#ArialMT-61" x="94.482422"/>
       <use xlink:href="#ArialMT-69" x="150.097656"/>
       <use xlink:href="#ArialMT-6c" x="172.314453"/>
       <use xlink:href="#ArialMT-20" x="194.53125"/>
       <use xlink:href="#ArialMT-41" x="216.814453"/>
       <use xlink:href="#ArialMT-72" x="283.513672"/>
       <use xlink:href="#ArialMT-65" x="316.814453"/>
       <use xlink:href="#ArialMT-61" x="372.429688"/>
      </g>
     </g>
    </g>
    <g id="ytick_15">
     <g id="text_23">
      <!--  Hull Type -->
      <g style="fill: #262626" transform="translate(86.24625 250.454821) scale(0.13 -0.13)">
       <use xlink:href="#ArialMT-20"/>
       <use xlink:href="#ArialMT-48" x="27.783203"/>
       <use xlink:href="#ArialMT-75" x="100"/>
       <use xlink:href="#ArialMT-6c" x="155.615234"/>
       <use xlink:href="#ArialMT-6c" x="177.832031"/>
       <use xlink:href="#ArialMT-20" x="200.048828"/>
       <use xlink:href="#ArialMT-54" x="226.082031"/>
       <use xlink:href="#ArialMT-79" x="281.666016"/>
       <use xlink:href="#ArialMT-70" x="331.666016"/>
       <use xlink:href="#ArialMT-65" x="387.28125"/>
      </g>
     </g>
    </g>
    <g id="ytick_16">
     <g id="text_24">
      <!--  LWL -->
      <g style="fill: #262626" transform="translate(114.437969 214.189584) scale(0.13 -0.13)">
       <use xlink:href="#ArialMT-20"/>
       <use xlink:href="#ArialMT-4c" x="27.783203"/>
       <use xlink:href="#ArialMT-57" x="76.023438"/>
       <use xlink:href="#ArialMT-4c" x="170.408203"/>
      </g>
     </g>
    </g>
    <g id="ytick_17">
     <g id="text_25">
      <!--  Make Variant -->
      <g style="fill: #262626" transform="translate(64.580938 177.924348) scale(0.13 -0.13)">
       <use xlink:href="#ArialMT-20"/>
       <use xlink:href="#ArialMT-4d" x="27.783203"/>
       <use xlink:href="#ArialMT-61" x="111.083984"/>
       <use xlink:href="#ArialMT-6b" x="166.699219"/>
       <use xlink:href="#ArialMT-65" x="216.699219"/>
       <use xlink:href="#ArialMT-20" x="272.314453"/>
       <use xlink:href="#ArialMT-56" x="300.097656"/>
       <use xlink:href="#ArialMT-61" x="359.421875"/>
       <use xlink:href="#ArialMT-72" x="415.037109"/>
       <use xlink:href="#ArialMT-69" x="448.337891"/>
       <use xlink:href="#ArialMT-61" x="470.554688"/>
       <use xlink:href="#ArialMT-6e" x="526.169922"/>
       <use xlink:href="#ArialMT-74" x="581.785156"/>
      </g>
     </g>
    </g>
    <g id="ytick_18">
     <g id="text_26">
      <!--  Draft -->
      <g style="fill: #262626" transform="translate(112.039063 141.659111) scale(0.13 -0.13)">
       <use xlink:href="#ArialMT-20"/>
       <use xlink:href="#ArialMT-44" x="27.783203"/>
       <use xlink:href="#ArialMT-72" x="100"/>
       <use xlink:href="#ArialMT-61" x="133.300781"/>
       <use xlink:href="#ArialMT-66" x="188.916016"/>
       <use xlink:href="#ArialMT-74" x="216.699219"/>
      </g>
     </g>
    </g>
    <g id="ytick_19">
     <g id="text_27">
      <!--  GDP -->
      <g style="fill: #262626" transform="translate(112.037031 105.393875) scale(0.13 -0.13)">
       <use xlink:href="#ArialMT-20"/>
       <use xlink:href="#ArialMT-47" x="27.783203"/>
       <use xlink:href="#ArialMT-44" x="105.566406"/>
       <use xlink:href="#ArialMT-50" x="177.783203"/>
      </g>
     </g>
    </g>
    <g id="ytick_20">
     <g id="text_28">
      <!--  Year -->
      <g style="fill: #262626" transform="translate(114.16375 69.128638) scale(0.13 -0.13)">
       <use xlink:href="#ArialMT-20"/>
       <use xlink:href="#ArialMT-59" x="26.033203"/>
       <use xlink:href="#ArialMT-65" x="83.607422"/>
       <use xlink:href="#ArialMT-61" x="139.222656"/>
       <use xlink:href="#ArialMT-72" x="194.837891"/>
      </g>
     </g>
    </g>
   </g>
   <g id="patch_3">
    <path d="M 398.02713 115.247392 
L 546.364545 115.247392 
L 546.364545 86.235202 
L 398.02713 86.235202 
L 398.02713 115.247392 
z
" clip-path="url(#p2824f738f2)" style="fill: none; opacity: 0"/>
   </g>
   <g id="patch_4">
    <path d="M 313.497689 151.512628 
L 435.080484 151.512628 
L 435.080484 122.500439 
L 313.497689 122.500439 
L 313.497689 151.512628 
z
" clip-path="url(#p2824f738f2)" style="fill: none; opacity: 0"/>
   </g>
   <g id="patch_5">
    <path d="M 252.993664 187.777865 
L 350.551042 187.777865 
L 350.551042 158.765676 
L 252.993664 158.765676 
L 252.993664 187.777865 
z
" clip-path="url(#p2824f738f2)" style="fill: none; opacity: 0"/>
   </g>
   <g id="patch_6">
    <path d="M 200.533249 224.043101 
L 290.047018 224.043101 
L 290.047018 195.030912 
L 200.533249 195.030912 
L 200.533249 224.043101 
z
" clip-path="url(#p2824f738f2)" style="fill: none; opacity: 0"/>
   </g>
   <g id="patch_7">
    <path d="M 260.40576 332.838811 
L 328.144044 332.838811 
L 328.144044 303.826622 
L 260.40576 303.826622 
L 260.40576 332.838811 
z
" clip-path="url(#p2824f738f2)" style="fill: none; opacity: 0"/>
   </g>
   <g id="patch_8">
    <path d="M 277.630831 405.369284 
L 322.495412 405.369284 
L 322.495412 376.357095 
L 277.630831 376.357095 
L 277.630831 405.369284 
z
" clip-path="url(#p2824f738f2)" style="fill: none; opacity: 0"/>
   </g>
   <g id="patch_9">
    <path d="M 515.486751 78.982155 
L 209.372755 78.982155 
L 209.372755 49.969966 
L 515.486751 49.969966 
L 515.486751 78.982155 
z
" clip-path="url(#p2824f738f2)" style="fill: none; opacity: 0"/>
   </g>
   <g id="patch_10">
    <path d="M 257.82831 260.308338 
L 169.655455 260.308338 
L 169.655455 231.296149 
L 257.82831 231.296149 
L 257.82831 260.308338 
z
" clip-path="url(#p2824f738f2)" style="fill: none; opacity: 0"/>
   </g>
   <g id="patch_11">
    <path d="M 297.26625 296.573574 
L 220.774957 296.573574 
L 220.774957 267.561385 
L 297.26625 267.561385 
L 297.26625 296.573574 
z
" clip-path="url(#p2824f738f2)" style="fill: none; opacity: 0"/>
   </g>
   <g id="patch_12">
    <path d="M 291.617617 369.104048 
L 229.527965 369.104048 
L 229.527965 340.091858 
L 291.617617 340.091858 
L 291.617617 369.104048 
z
" clip-path="url(#p2824f738f2)" style="fill: none; opacity: 0"/>
   </g>
   <g id="patch_13">
    <path d="M 512.398972 100.741297 
L 507.052133 115.247392 
L 507.052133 115.247392 
L 401.11491 115.247392 
L 401.11491 86.235202 
L 507.052133 86.235202 
L 507.052133 86.235202 
z
" clip-path="url(#p2824f738f2)" style="fill: #ff0051; stroke: #ff0051; stroke-linejoin: miter"/>
   </g>
   <g id="patch_14">
    <path d="M 401.11491 137.006534 
L 395.768071 151.512628 
L 395.768071 151.512628 
L 316.585468 151.512628 
L 316.585468 122.500439 
L 395.768071 122.500439 
L 395.768071 122.500439 
z
" clip-path="url(#p2824f738f2)" style="fill: #ff0051; stroke: #ff0051; stroke-linejoin: miter"/>
   </g>
   <g id="patch_15">
    <path d="M 316.585468 173.27177 
L 311.238629 187.777865 
L 311.238629 187.777865 
L 256.081444 187.777865 
L 256.081444 158.765676 
L 311.238629 158.765676 
L 311.238629 158.765676 
z
" clip-path="url(#p2824f738f2)" style="fill: #ff0051; stroke: #ff0051; stroke-linejoin: miter"/>
   </g>
   <g id="patch_16">
    <path d="M 256.081444 209.537007 
L 250.734605 224.043101 
L 250.734605 224.043101 
L 203.621028 224.043101 
L 203.621028 195.030912 
L 250.734605 195.030912 
L 250.734605 195.030912 
z
" clip-path="url(#p2824f738f2)" style="fill: #ff0051; stroke: #ff0051; stroke-linejoin: miter"/>
   </g>
   <g id="patch_17">
    <path d="M 294.17847 318.332716 
L 288.831632 332.838811 
L 288.831632 332.838811 
L 263.493539 332.838811 
L 263.493539 303.826622 
L 288.831632 303.826622 
L 288.831632 303.826622 
z
" clip-path="url(#p2824f738f2)" style="fill: #ff0051; stroke: #ff0051; stroke-linejoin: miter"/>
   </g>
   <g id="patch_18">
    <path d="M 288.529838 390.863189 
L 283.182999 405.369284 
L 283.182999 405.369284 
L 280.71861 405.369284 
L 280.71861 376.357095 
L 283.182999 376.357095 
L 283.182999 376.357095 
z
" clip-path="url(#p2824f738f2)" style="fill: #ff0051; stroke: #ff0051; stroke-linejoin: miter"/>
   </g>
   <g id="patch_19">
    <path d="M 243.338329 64.476061 
L 248.685168 49.969966 
L 248.685168 49.969966 
L 512.398972 49.969966 
L 512.398972 78.982155 
L 248.685168 78.982155 
L 248.685168 78.982155 
z
" clip-path="url(#p2824f738f2)" style="fill: #008bfb; stroke: #008bfb; stroke-linejoin: miter"/>
   </g>
   <g id="patch_20">
    <path d="M 203.621028 245.802243 
L 208.967867 231.296149 
L 208.967867 231.296149 
L 254.74053 231.296149 
L 254.74053 260.308338 
L 208.967867 260.308338 
L 208.967867 260.308338 
z
" clip-path="url(#p2824f738f2)" style="fill: #008bfb; stroke: #008bfb; stroke-linejoin: miter"/>
   </g>
   <g id="patch_21">
    <path d="M 254.74053 282.06748 
L 260.087369 267.561385 
L 260.087369 267.561385 
L 294.17847 267.561385 
L 294.17847 296.573574 
L 260.087369 296.573574 
L 260.087369 296.573574 
z
" clip-path="url(#p2824f738f2)" style="fill: #008bfb; stroke: #008bfb; stroke-linejoin: miter"/>
   </g>
   <g id="patch_22">
    <path d="M 263.493539 354.597953 
L 268.840378 340.091858 
L 268.840378 340.091858 
L 288.529838 340.091858 
L 288.529838 369.104048 
L 268.840378 369.104048 
L 268.840378 369.104048 
z
" clip-path="url(#p2824f738f2)" style="fill: #008bfb; stroke: #008bfb; stroke-linejoin: miter"/>
   </g>
   <g id="patch_23">
    <path d="M 150.82 423.13925 
L 565.2 423.13925 
" style="fill: none; stroke: #262626; stroke-width: 0.8; stroke-linejoin: miter; stroke-linecap: square"/>
   </g>
   <g id="text_29">
    <!-- +0.11 -->
    <g style="fill: #ffffff" transform="translate(442.018503 103.843485) scale(0.12 -0.12)">
     <defs>
      <path id="ArialMT-2b" d="M 1603 741 
L 1603 1997 
L 356 1997 
L 356 2522 
L 1603 2522 
L 1603 3769 
L 2134 3769 
L 2134 2522 
L 3381 2522 
L 3381 1997 
L 2134 1997 
L 2134 741 
L 1603 741 
z
" transform="scale(0.015625)"/>
     </defs>
     <use xlink:href="#ArialMT-2b"/>
     <use xlink:href="#ArialMT-30" x="58.398438"/>
     <use xlink:href="#ArialMT-2e" x="114.013672"/>
     <use xlink:href="#ArialMT-31" x="141.796875"/>
     <use xlink:href="#ArialMT-31" x="190.037109"/>
    </g>
   </g>
   <g id="text_30">
    <!-- +0.09 -->
    <g style="fill: #ffffff" transform="translate(343.669251 140.108721) scale(0.12 -0.12)">
     <use xlink:href="#ArialMT-2b"/>
     <use xlink:href="#ArialMT-30" x="58.398438"/>
     <use xlink:href="#ArialMT-2e" x="114.013672"/>
     <use xlink:href="#ArialMT-30" x="141.796875"/>
     <use xlink:href="#ArialMT-39" x="197.412109"/>
    </g>
   </g>
   <g id="text_31">
    <!-- +0.06 -->
    <g style="fill: #ffffff" transform="translate(271.152518 176.373958) scale(0.12 -0.12)">
     <use xlink:href="#ArialMT-2b"/>
     <use xlink:href="#ArialMT-30" x="58.398438"/>
     <use xlink:href="#ArialMT-2e" x="114.013672"/>
     <use xlink:href="#ArialMT-30" x="141.796875"/>
     <use xlink:href="#ArialMT-36" x="197.412109"/>
    </g>
   </g>
   <g id="text_32">
    <!-- +0.05 -->
    <g style="fill: #ffffff" transform="translate(214.670299 212.639194) scale(0.12 -0.12)">
     <use xlink:href="#ArialMT-2b"/>
     <use xlink:href="#ArialMT-30" x="58.398438"/>
     <use xlink:href="#ArialMT-2e" x="114.013672"/>
     <use xlink:href="#ArialMT-30" x="141.796875"/>
     <use xlink:href="#ArialMT-35" x="197.412109"/>
    </g>
   </g>
   <g id="text_33">
    <!-- +0.03 -->
    <g style="fill: #ffffff" transform="translate(263.655067 321.434904) scale(0.12 -0.12)">
     <use xlink:href="#ArialMT-2b"/>
     <use xlink:href="#ArialMT-30" x="58.398438"/>
     <use xlink:href="#ArialMT-2e" x="114.013672"/>
     <use xlink:href="#ArialMT-30" x="141.796875"/>
     <use xlink:href="#ArialMT-33" x="197.412109"/>
    </g>
   </g>
   <g id="text_34">
    <!-- +0.01 -->
    <g style="fill: #ff0051" transform="translate(293.171191 393.965377) scale(0.12 -0.12)">
     <use xlink:href="#ArialMT-2b"/>
     <use xlink:href="#ArialMT-30" x="58.398438"/>
     <use xlink:href="#ArialMT-2e" x="114.013672"/>
     <use xlink:href="#ArialMT-30" x="141.796875"/>
     <use xlink:href="#ArialMT-31" x="197.412109"/>
    </g>
   </g>
   <g id="text_35">
    <!-- 0.27 -->
    <g style="fill: #ffffff" transform="translate(362.687713 67.578248) scale(0.12 -0.12)">
     <defs>
      <path id="ArialMT-2212" d="M 3381 1997 
L 356 1997 
L 356 2522 
L 3381 2522 
L 3381 1997 
z
" transform="scale(0.015625)"/>
     </defs>
     <use xlink:href="#ArialMT-2212"/>
     <use xlink:href="#ArialMT-30" x="58.398438"/>
     <use xlink:href="#ArialMT-2e" x="114.013672"/>
     <use xlink:href="#ArialMT-32" x="141.796875"/>
     <use xlink:href="#ArialMT-37" x="197.412109"/>
    </g>
   </g>
   <g id="text_36">
    <!-- 0.05 -->
    <g style="fill: #ffffff" transform="translate(213.999842 248.904431) scale(0.12 -0.12)">
     <use xlink:href="#ArialMT-2212"/>
     <use xlink:href="#ArialMT-30" x="58.398438"/>
     <use xlink:href="#ArialMT-2e" x="114.013672"/>
     <use xlink:href="#ArialMT-30" x="141.796875"/>
     <use xlink:href="#ArialMT-35" x="197.412109"/>
    </g>
   </g>
   <g id="text_37">
    <!-- 0.04 -->
    <g style="fill: #ffffff" transform="translate(259.278563 285.169667) scale(0.12 -0.12)">
     <use xlink:href="#ArialMT-2212"/>
     <use xlink:href="#ArialMT-30" x="58.398438"/>
     <use xlink:href="#ArialMT-2e" x="114.013672"/>
     <use xlink:href="#ArialMT-30" x="141.796875"/>
     <use xlink:href="#ArialMT-34" x="197.412109"/>
    </g>
   </g>
   <g id="text_38">
    <!-- 0.03 -->
    <g style="fill: #008bfb" transform="translate(228.490311 357.70014) scale(0.12 -0.12)">
     <use xlink:href="#ArialMT-2212"/>
     <use xlink:href="#ArialMT-30" x="58.398438"/>
     <use xlink:href="#ArialMT-2e" x="114.013672"/>
     <use xlink:href="#ArialMT-30" x="141.796875"/>
     <use xlink:href="#ArialMT-33" x="197.412109"/>
    </g>
   </g>
  </g>
  <g id="axes_2">
   <g id="matplotlib.axis_3">
    <g id="xtick_9">
     <g id="line2d_30">
      <g>
       <use xlink:href="#mfb3fd7df5d" x="280.71861" y="423.13925" style="fill: #262626; stroke: #262626; stroke-width: 0.8"/>
      </g>
     </g>
     <g id="text_39">
      <!--  -->
      <g style="fill: #262626" transform="translate(260.71861 438.728625) scale(0.12 -0.12)"/>
      <!-- $E[f(X)]$ -->
      <g style="fill: #262626" transform="translate(260.71861 451.420875) scale(0.12 -0.12)">
       <defs>
        <path id="DejaVuSans-Oblique-45" d="M 1081 4666 
L 4031 4666 
L 3928 4134 
L 1606 4134 
L 1338 2753 
L 3566 2753 
L 3463 2222 
L 1234 2222 
L 909 531 
L 3284 531 
L 3181 0 
L 172 0 
L 1081 4666 
z
" transform="scale(0.015625)"/>
        <path id="DejaVuSans-5b" d="M 550 4863 
L 1875 4863 
L 1875 4416 
L 1125 4416 
L 1125 -397 
L 1875 -397 
L 1875 -844 
L 550 -844 
L 550 4863 
z
" transform="scale(0.015625)"/>
        <path id="DejaVuSans-Oblique-66" d="M 3059 4863 
L 2969 4384 
L 2419 4384 
Q 2106 4384 1964 4261 
Q 1822 4138 1753 3809 
L 1691 3500 
L 2638 3500 
L 2553 3053 
L 1606 3053 
L 1013 0 
L 434 0 
L 1031 3053 
L 481 3053 
L 563 3500 
L 1113 3500 
L 1159 3744 
Q 1278 4363 1576 4613 
Q 1875 4863 2516 4863 
L 3059 4863 
z
" transform="scale(0.015625)"/>
        <path id="DejaVuSans-28" d="M 1984 4856 
Q 1566 4138 1362 3434 
Q 1159 2731 1159 2009 
Q 1159 1288 1364 580 
Q 1569 -128 1984 -844 
L 1484 -844 
Q 1016 -109 783 600 
Q 550 1309 550 2009 
Q 550 2706 781 3412 
Q 1013 4119 1484 4856 
L 1984 4856 
z
" transform="scale(0.015625)"/>
        <path id="DejaVuSans-Oblique-58" d="M 878 4666 
L 1516 4666 
L 2316 2981 
L 3763 4666 
L 4500 4666 
L 2578 2438 
L 3738 0 
L 3103 0 
L 2163 1966 
L 459 0 
L -275 0 
L 1906 2509 
L 878 4666 
z
" transform="scale(0.015625)"/>
        <path id="DejaVuSans-29" d="M 513 4856 
L 1013 4856 
Q 1481 4119 1714 3412 
Q 1947 2706 1947 2009 
Q 1947 1309 1714 600 
Q 1481 -109 1013 -844 
L 513 -844 
Q 928 -128 1133 580 
Q 1338 1288 1338 2009 
Q 1338 2731 1133 3434 
Q 928 4138 513 4856 
z
" transform="scale(0.015625)"/>
        <path id="DejaVuSans-5d" d="M 1947 4863 
L 1947 -844 
L 622 -844 
L 622 -397 
L 1369 -397 
L 1369 4416 
L 622 4416 
L 622 4863 
L 1947 4863 
z
" transform="scale(0.015625)"/>
       </defs>
       <use xlink:href="#DejaVuSans-Oblique-45" transform="translate(0 0.015625)"/>
       <use xlink:href="#DejaVuSans-5b" transform="translate(63.183594 0.015625)"/>
       <use xlink:href="#DejaVuSans-Oblique-66" transform="translate(102.197266 0.015625)"/>
       <use xlink:href="#DejaVuSans-28" transform="translate(137.402344 0.015625)"/>
       <use xlink:href="#DejaVuSans-Oblique-58" transform="translate(176.416016 0.015625)"/>
       <use xlink:href="#DejaVuSans-29" transform="translate(244.921875 0.015625)"/>
       <use xlink:href="#DejaVuSans-5d" transform="translate(283.935547 0.015625)"/>
      </g>
     </g>
    </g>
    <g id="xtick_10">
     <g id="line2d_31">
      <g>
       <use xlink:href="#mfb3fd7df5d" x="280.71862" y="423.13925" style="fill: #262626; stroke: #262626; stroke-width: 0.8"/>
      </g>
     </g>
     <g id="text_40">
      <!--  -->
      <g style="fill: #999999" transform="translate(302.71862 439.728625) scale(0.12 -0.12)"/>
      <!-- $ = 12.388$ -->
      <g style="fill: #999999" transform="translate(302.71862 452.420875) scale(0.12 -0.12)">
       <defs>
        <path id="DejaVuSans-3d" d="M 678 2906 
L 4684 2906 
L 4684 2381 
L 678 2381 
L 678 2906 
z
M 678 1631 
L 4684 1631 
L 4684 1100 
L 678 1100 
L 678 1631 
z
" transform="scale(0.015625)"/>
        <path id="DejaVuSans-31" d="M 794 531 
L 1825 531 
L 1825 4091 
L 703 3866 
L 703 4441 
L 1819 4666 
L 2450 4666 
L 2450 531 
L 3481 531 
L 3481 0 
L 794 0 
L 794 531 
z
" transform="scale(0.015625)"/>
        <path id="DejaVuSans-32" d="M 1228 531 
L 3431 531 
L 3431 0 
L 469 0 
L 469 531 
Q 828 903 1448 1529 
Q 2069 2156 2228 2338 
Q 2531 2678 2651 2914 
Q 2772 3150 2772 3378 
Q 2772 3750 2511 3984 
Q 2250 4219 1831 4219 
Q 1534 4219 1204 4116 
Q 875 4013 500 3803 
L 500 4441 
Q 881 4594 1212 4672 
Q 1544 4750 1819 4750 
Q 2544 4750 2975 4387 
Q 3406 4025 3406 3419 
Q 3406 3131 3298 2873 
Q 3191 2616 2906 2266 
Q 2828 2175 2409 1742 
Q 1991 1309 1228 531 
z
" transform="scale(0.015625)"/>
        <path id="DejaVuSans-2e" d="M 684 794 
L 1344 794 
L 1344 0 
L 684 0 
L 684 794 
z
" transform="scale(0.015625)"/>
        <path id="DejaVuSans-33" d="M 2597 2516 
Q 3050 2419 3304 2112 
Q 3559 1806 3559 1356 
Q 3559 666 3084 287 
Q 2609 -91 1734 -91 
Q 1441 -91 1130 -33 
Q 819 25 488 141 
L 488 750 
Q 750 597 1062 519 
Q 1375 441 1716 441 
Q 2309 441 2620 675 
Q 2931 909 2931 1356 
Q 2931 1769 2642 2001 
Q 2353 2234 1838 2234 
L 1294 2234 
L 1294 2753 
L 1863 2753 
Q 2328 2753 2575 2939 
Q 2822 3125 2822 3475 
Q 2822 3834 2567 4026 
Q 2313 4219 1838 4219 
Q 1578 4219 1281 4162 
Q 984 4106 628 3988 
L 628 4550 
Q 988 4650 1302 4700 
Q 1616 4750 1894 4750 
Q 2613 4750 3031 4423 
Q 3450 4097 3450 3541 
Q 3450 3153 3228 2886 
Q 3006 2619 2597 2516 
z
" transform="scale(0.015625)"/>
        <path id="DejaVuSans-38" d="M 2034 2216 
Q 1584 2216 1326 1975 
Q 1069 1734 1069 1313 
Q 1069 891 1326 650 
Q 1584 409 2034 409 
Q 2484 409 2743 651 
Q 3003 894 3003 1313 
Q 3003 1734 2745 1975 
Q 2488 2216 2034 2216 
z
M 1403 2484 
Q 997 2584 770 2862 
Q 544 3141 544 3541 
Q 544 4100 942 4425 
Q 1341 4750 2034 4750 
Q 2731 4750 3128 4425 
Q 3525 4100 3525 3541 
Q 3525 3141 3298 2862 
Q 3072 2584 2669 2484 
Q 3125 2378 3379 2068 
Q 3634 1759 3634 1313 
Q 3634 634 3220 271 
Q 2806 -91 2034 -91 
Q 1263 -91 848 271 
Q 434 634 434 1313 
Q 434 1759 690 2068 
Q 947 2378 1403 2484 
z
M 1172 3481 
Q 1172 3119 1398 2916 
Q 1625 2713 2034 2713 
Q 2441 2713 2670 2916 
Q 2900 3119 2900 3481 
Q 2900 3844 2670 4047 
Q 2441 4250 2034 4250 
Q 1625 4250 1398 4047 
Q 1172 3844 1172 3481 
z
" transform="scale(0.015625)"/>
       </defs>
       <use xlink:href="#DejaVuSans-3d" transform="translate(19.482422 0.78125)"/>
       <use xlink:href="#DejaVuSans-31" transform="translate(122.753906 0.78125)"/>
       <use xlink:href="#DejaVuSans-32" transform="translate(186.376953 0.78125)"/>
       <use xlink:href="#DejaVuSans-2e" transform="translate(250 0.78125)"/>
       <use xlink:href="#DejaVuSans-33" transform="translate(281.787109 0.78125)"/>
       <use xlink:href="#DejaVuSans-38" transform="translate(345.410156 0.78125)"/>
       <use xlink:href="#DejaVuSans-38" transform="translate(409.033203 0.78125)"/>
      </g>
     </g>
    </g>
   </g>
   <g id="patch_24">
    <path d="M 150.82 423.13925 
L 565.2 423.13925 
" style="fill: none; stroke: #262626; stroke-width: 0.8; stroke-linejoin: miter; stroke-linecap: square"/>
   </g>
  </g>
  <g id="axes_3">
   <g id="matplotlib.axis_4">
    <g id="xtick_11">
     <g id="line2d_32">
      <defs>
       <path id="m61d8a2e714" d="M 0 0 
L 0 -3.5 
" style="stroke: #262626; stroke-width: 0.8"/>
      </defs>
      <g>
       <use xlink:href="#m61d8a2e714" x="243.338329" y="32.2" style="fill: #262626; stroke: #262626; stroke-width: 0.8"/>
      </g>
     </g>
     <g id="text_41">
      <!-- $f(x)$ -->
      <g style="fill: #262626" transform="translate(233.338329 22.815) scale(0.12 -0.12)">
       <defs>
        <path id="DejaVuSans-Oblique-78" d="M 3841 3500 
L 2234 1784 
L 3219 0 
L 2559 0 
L 1819 1388 
L 531 0 
L -166 0 
L 1556 1844 
L 641 3500 
L 1300 3500 
L 1972 2234 
L 3144 3500 
L 3841 3500 
z
" transform="scale(0.015625)"/>
       </defs>
       <use xlink:href="#DejaVuSans-Oblique-66" transform="translate(0 0.015625)"/>
       <use xlink:href="#DejaVuSans-28" transform="translate(35.205078 0.015625)"/>
       <use xlink:href="#DejaVuSans-Oblique-78" transform="translate(74.21875 0.015625)"/>
       <use xlink:href="#DejaVuSans-29" transform="translate(133.398438 0.015625)"/>
      </g>
     </g>
    </g>
    <g id="xtick_12">
     <g id="line2d_33">
      <g>
       <use xlink:href="#m61d8a2e714" x="243.338339" y="32.2" style="fill: #262626; stroke: #262626; stroke-width: 0.8"/>
      </g>
     </g>
     <g id="text_42">
      <!-- $ = 12.35$ -->
      <g style="fill: #999999" transform="translate(255.338339 22.815) scale(0.12 -0.12)">
       <defs>
        <path id="DejaVuSans-35" d="M 691 4666 
L 3169 4666 
L 3169 4134 
L 1269 4134 
L 1269 2991 
Q 1406 3038 1543 3061 
Q 1681 3084 1819 3084 
Q 2600 3084 3056 2656 
Q 3513 2228 3513 1497 
Q 3513 744 3044 326 
Q 2575 -91 1722 -91 
Q 1428 -91 1123 -41 
Q 819 9 494 109 
L 494 744 
Q 775 591 1075 516 
Q 1375 441 1709 441 
Q 2250 441 2565 725 
Q 2881 1009 2881 1497 
Q 2881 1984 2565 2268 
Q 2250 2553 1709 2553 
Q 1456 2553 1204 2497 
Q 953 2441 691 2322 
L 691 4666 
z
" transform="scale(0.015625)"/>
       </defs>
       <use xlink:href="#DejaVuSans-3d" transform="translate(19.482422 0.78125)"/>
       <use xlink:href="#DejaVuSans-31" transform="translate(122.753906 0.78125)"/>
       <use xlink:href="#DejaVuSans-32" transform="translate(186.376953 0.78125)"/>
       <use xlink:href="#DejaVuSans-2e" transform="translate(250 0.78125)"/>
       <use xlink:href="#DejaVuSans-33" transform="translate(281.787109 0.78125)"/>
       <use xlink:href="#DejaVuSans-35" transform="translate(345.410156 0.78125)"/>
      </g>
     </g>
    </g>
   </g>
   <g id="patch_25">
    <path d="M 150.82 423.13925 
L 565.2 423.13925 
" style="fill: none; stroke: #262626; stroke-width: 0.8; stroke-linejoin: miter; stroke-linecap: square"/>
   </g>
  </g>
 </g>
 <defs>
  <clipPath id="p2824f738f2">
   <rect x="150.82" y="32.2" width="414.38" height="390.93925"/>
  </clipPath>
 </defs>
</svg>
