<?xml version="1.0" encoding="utf-8" standalone="no"?>
<!DOCTYPE svg PUBLIC "-//W3C//DTD SVG 1.1//EN"
  "http://www.w3.org/Graphics/SVG/1.1/DTD/svg11.dtd">
<svg xmlns:xlink="http://www.w3.org/1999/xlink" width="576pt" height="432pt" viewBox="0 0 576 432" xmlns="http://www.w3.org/2000/svg" version="1.1">
 <metadata>
  <rdf:RDF xmlns:dc="http://purl.org/dc/elements/1.1/" xmlns:cc="http://creativecommons.org/ns#" xmlns:rdf="http://www.w3.org/1999/02/22-rdf-syntax-ns#">
   <cc:Work>
    <dc:type rdf:resource="http://purl.org/dc/dcmitype/StillImage"/>
    <dc:date>2023-04-04T04:43:47.539349</dc:date>
    <dc:format>image/svg+xml</dc:format>
    <dc:creator>
     <cc:Agent>
      <dc:title>Matplotlib v3.7.1, https://matplotlib.org/</dc:title>
     </cc:Agent>
    </dc:creator>
   </cc:Work>
  </rdf:RDF>
 </metadata>
 <defs>
  <style type="text/css">*{stroke-linejoin: round; stroke-linecap: butt}</style>
 </defs>
 <g id="figure_1">
  <g id="patch_1">
   <path d="M 0 432 
L 576 432 
L 576 0 
L 0 0 
z
" style="fill: #ffffff"/>
  </g>
  <g id="axes_1">
   <g id="patch_2">
    <path d="M 51.41 390.04 
L 565.2 390.04 
L 565.2 10.8 
L 51.41 10.8 
z
" style="fill: #ffffff"/>
   </g>
   <g id="matplotlib.axis_1">
    <g id="xtick_1">
     <g id="text_1">
      <!-- 0 -->
      <g style="fill: #262626" transform="translate(65.755865 404.197812) scale(0.1 -0.1)">
       <defs>
        <path id="ArialMT-30" d="M 266 2259 
Q 266 3072 433 3567 
Q 600 4063 929 4331 
Q 1259 4600 1759 4600 
Q 2128 4600 2406 4451 
Q 2684 4303 2865 4023 
Q 3047 3744 3150 3342 
Q 3253 2941 3253 2259 
Q 3253 1453 3087 958 
Q 2922 463 2592 192 
Q 2263 -78 1759 -78 
Q 1097 -78 719 397 
Q 266 969 266 2259 
z
M 844 2259 
Q 844 1131 1108 757 
Q 1372 384 1759 384 
Q 2147 384 2411 759 
Q 2675 1134 2675 2259 
Q 2675 3391 2411 3762 
Q 2147 4134 1753 4134 
Q 1366 4134 1134 3806 
Q 844 3388 844 2259 
z
" transform="scale(0.015625)"/>
       </defs>
       <use xlink:href="#ArialMT-30"/>
      </g>
     </g>
    </g>
    <g id="xtick_2">
     <g id="text_2">
      <!-- 1 -->
      <g style="fill: #262626" transform="translate(100.008531 404.197812) scale(0.1 -0.1)">
       <defs>
        <path id="ArialMT-31" d="M 2384 0 
L 1822 0 
L 1822 3584 
Q 1619 3391 1289 3197 
Q 959 3003 697 2906 
L 697 3450 
Q 1169 3672 1522 3987 
Q 1875 4303 2022 4600 
L 2384 4600 
L 2384 0 
z
" transform="scale(0.015625)"/>
       </defs>
       <use xlink:href="#ArialMT-31"/>
      </g>
     </g>
    </g>
    <g id="xtick_3">
     <g id="text_3">
      <!-- 2 -->
      <g style="fill: #262626" transform="translate(134.261198 404.197812) scale(0.1 -0.1)">
       <defs>
        <path id="ArialMT-32" d="M 3222 541 
L 3222 0 
L 194 0 
Q 188 203 259 391 
Q 375 700 629 1000 
Q 884 1300 1366 1694 
Q 2113 2306 2375 2664 
Q 2638 3022 2638 3341 
Q 2638 3675 2398 3904 
Q 2159 4134 1775 4134 
Q 1369 4134 1125 3890 
Q 881 3647 878 3216 
L 300 3275 
Q 359 3922 746 4261 
Q 1134 4600 1788 4600 
Q 2447 4600 2831 4234 
Q 3216 3869 3216 3328 
Q 3216 3053 3103 2787 
Q 2991 2522 2730 2228 
Q 2469 1934 1863 1422 
Q 1356 997 1212 845 
Q 1069 694 975 541 
L 3222 541 
z
" transform="scale(0.015625)"/>
       </defs>
       <use xlink:href="#ArialMT-32"/>
      </g>
     </g>
    </g>
    <g id="xtick_4">
     <g id="text_4">
      <!-- 3 -->
      <g style="fill: #262626" transform="translate(168.513865 404.197812) scale(0.1 -0.1)">
       <defs>
        <path id="ArialMT-33" d="M 269 1209 
L 831 1284 
Q 928 806 1161 595 
Q 1394 384 1728 384 
Q 2125 384 2398 659 
Q 2672 934 2672 1341 
Q 2672 1728 2419 1979 
Q 2166 2231 1775 2231 
Q 1616 2231 1378 2169 
L 1441 2663 
Q 1497 2656 1531 2656 
Q 1891 2656 2178 2843 
Q 2466 3031 2466 3422 
Q 2466 3731 2256 3934 
Q 2047 4138 1716 4138 
Q 1388 4138 1169 3931 
Q 950 3725 888 3313 
L 325 3413 
Q 428 3978 793 4289 
Q 1159 4600 1703 4600 
Q 2078 4600 2393 4439 
Q 2709 4278 2876 4000 
Q 3044 3722 3044 3409 
Q 3044 3113 2884 2869 
Q 2725 2625 2413 2481 
Q 2819 2388 3044 2092 
Q 3269 1797 3269 1353 
Q 3269 753 2831 336 
Q 2394 -81 1725 -81 
Q 1122 -81 723 278 
Q 325 638 269 1209 
z
" transform="scale(0.015625)"/>
       </defs>
       <use xlink:href="#ArialMT-33"/>
      </g>
     </g>
    </g>
    <g id="xtick_5">
     <g id="text_5">
      <!-- 4 -->
      <g style="fill: #262626" transform="translate(202.766531 404.197812) scale(0.1 -0.1)">
       <defs>
        <path id="ArialMT-34" d="M 2069 0 
L 2069 1097 
L 81 1097 
L 81 1613 
L 2172 4581 
L 2631 4581 
L 2631 1613 
L 3250 1613 
L 3250 1097 
L 2631 1097 
L 2631 0 
L 2069 0 
z
M 2069 1613 
L 2069 3678 
L 634 1613 
L 2069 1613 
z
" transform="scale(0.015625)"/>
       </defs>
       <use xlink:href="#ArialMT-34"/>
      </g>
     </g>
    </g>
    <g id="xtick_6">
     <g id="text_6">
      <!-- 5 -->
      <g style="fill: #262626" transform="translate(237.019198 404.197812) scale(0.1 -0.1)">
       <defs>
        <path id="ArialMT-35" d="M 266 1200 
L 856 1250 
Q 922 819 1161 601 
Q 1400 384 1738 384 
Q 2144 384 2425 690 
Q 2706 997 2706 1503 
Q 2706 1984 2436 2262 
Q 2166 2541 1728 2541 
Q 1456 2541 1237 2417 
Q 1019 2294 894 2097 
L 366 2166 
L 809 4519 
L 3088 4519 
L 3088 3981 
L 1259 3981 
L 1013 2750 
Q 1425 3038 1878 3038 
Q 2478 3038 2890 2622 
Q 3303 2206 3303 1553 
Q 3303 931 2941 478 
Q 2500 -78 1738 -78 
Q 1113 -78 717 272 
Q 322 622 266 1200 
z
" transform="scale(0.015625)"/>
       </defs>
       <use xlink:href="#ArialMT-35"/>
      </g>
     </g>
    </g>
    <g id="xtick_7">
     <g id="text_7">
      <!-- 6 -->
      <g style="fill: #262626" transform="translate(271.271865 404.197812) scale(0.1 -0.1)">
       <defs>
        <path id="ArialMT-36" d="M 3184 3459 
L 2625 3416 
Q 2550 3747 2413 3897 
Q 2184 4138 1850 4138 
Q 1581 4138 1378 3988 
Q 1113 3794 959 3422 
Q 806 3050 800 2363 
Q 1003 2672 1297 2822 
Q 1591 2972 1913 2972 
Q 2475 2972 2870 2558 
Q 3266 2144 3266 1488 
Q 3266 1056 3080 686 
Q 2894 316 2569 119 
Q 2244 -78 1831 -78 
Q 1128 -78 684 439 
Q 241 956 241 2144 
Q 241 3472 731 4075 
Q 1159 4600 1884 4600 
Q 2425 4600 2770 4297 
Q 3116 3994 3184 3459 
z
M 888 1484 
Q 888 1194 1011 928 
Q 1134 663 1356 523 
Q 1578 384 1822 384 
Q 2178 384 2434 671 
Q 2691 959 2691 1453 
Q 2691 1928 2437 2201 
Q 2184 2475 1800 2475 
Q 1419 2475 1153 2201 
Q 888 1928 888 1484 
z
" transform="scale(0.015625)"/>
       </defs>
       <use xlink:href="#ArialMT-36"/>
      </g>
     </g>
    </g>
    <g id="xtick_8">
     <g id="text_8">
      <!-- 7 -->
      <g style="fill: #262626" transform="translate(305.524531 404.197812) scale(0.1 -0.1)">
       <defs>
        <path id="ArialMT-37" d="M 303 3981 
L 303 4522 
L 3269 4522 
L 3269 4084 
Q 2831 3619 2401 2847 
Q 1972 2075 1738 1259 
Q 1569 684 1522 0 
L 944 0 
Q 953 541 1156 1306 
Q 1359 2072 1739 2783 
Q 2119 3494 2547 3981 
L 303 3981 
z
" transform="scale(0.015625)"/>
       </defs>
       <use xlink:href="#ArialMT-37"/>
      </g>
     </g>
    </g>
    <g id="xtick_9">
     <g id="text_9">
      <!-- 8 -->
      <g style="fill: #262626" transform="translate(339.777198 404.197812) scale(0.1 -0.1)">
       <defs>
        <path id="ArialMT-38" d="M 1131 2484 
Q 781 2613 612 2850 
Q 444 3088 444 3419 
Q 444 3919 803 4259 
Q 1163 4600 1759 4600 
Q 2359 4600 2725 4251 
Q 3091 3903 3091 3403 
Q 3091 3084 2923 2848 
Q 2756 2613 2416 2484 
Q 2838 2347 3058 2040 
Q 3278 1734 3278 1309 
Q 3278 722 2862 322 
Q 2447 -78 1769 -78 
Q 1091 -78 675 323 
Q 259 725 259 1325 
Q 259 1772 486 2073 
Q 713 2375 1131 2484 
z
M 1019 3438 
Q 1019 3113 1228 2906 
Q 1438 2700 1772 2700 
Q 2097 2700 2305 2904 
Q 2513 3109 2513 3406 
Q 2513 3716 2298 3927 
Q 2084 4138 1766 4138 
Q 1444 4138 1231 3931 
Q 1019 3725 1019 3438 
z
M 838 1322 
Q 838 1081 952 856 
Q 1066 631 1291 507 
Q 1516 384 1775 384 
Q 2178 384 2440 643 
Q 2703 903 2703 1303 
Q 2703 1709 2433 1975 
Q 2163 2241 1756 2241 
Q 1359 2241 1098 1978 
Q 838 1716 838 1322 
z
" transform="scale(0.015625)"/>
       </defs>
       <use xlink:href="#ArialMT-38"/>
      </g>
     </g>
    </g>
    <g id="xtick_10">
     <g id="text_10">
      <!-- 9 -->
      <g style="fill: #262626" transform="translate(374.029865 404.197812) scale(0.1 -0.1)">
       <defs>
        <path id="ArialMT-39" d="M 350 1059 
L 891 1109 
Q 959 728 1153 556 
Q 1347 384 1650 384 
Q 1909 384 2104 503 
Q 2300 622 2425 820 
Q 2550 1019 2634 1356 
Q 2719 1694 2719 2044 
Q 2719 2081 2716 2156 
Q 2547 1888 2255 1720 
Q 1963 1553 1622 1553 
Q 1053 1553 659 1965 
Q 266 2378 266 3053 
Q 266 3750 677 4175 
Q 1088 4600 1706 4600 
Q 2153 4600 2523 4359 
Q 2894 4119 3086 3673 
Q 3278 3228 3278 2384 
Q 3278 1506 3087 986 
Q 2897 466 2520 194 
Q 2144 -78 1638 -78 
Q 1100 -78 759 220 
Q 419 519 350 1059 
z
M 2653 3081 
Q 2653 3566 2395 3850 
Q 2138 4134 1775 4134 
Q 1400 4134 1122 3828 
Q 844 3522 844 3034 
Q 844 2597 1108 2323 
Q 1372 2050 1759 2050 
Q 2150 2050 2401 2323 
Q 2653 2597 2653 3081 
z
" transform="scale(0.015625)"/>
       </defs>
       <use xlink:href="#ArialMT-39"/>
      </g>
     </g>
    </g>
    <g id="xtick_11">
     <g id="text_11">
      <!-- 10 -->
      <g style="fill: #262626" transform="translate(405.502062 404.197812) scale(0.1 -0.1)">
       <use xlink:href="#ArialMT-31"/>
       <use xlink:href="#ArialMT-30" x="55.615234"/>
      </g>
     </g>
    </g>
    <g id="xtick_12">
     <g id="text_12">
      <!-- 11 -->
      <g style="fill: #262626" transform="translate(440.123479 404.197812) scale(0.1 -0.1)">
       <use xlink:href="#ArialMT-31"/>
       <use xlink:href="#ArialMT-31" x="48.240234"/>
      </g>
     </g>
    </g>
    <g id="xtick_13">
     <g id="text_13">
      <!-- 12 -->
      <g style="fill: #262626" transform="translate(474.007396 404.197812) scale(0.1 -0.1)">
       <use xlink:href="#ArialMT-31"/>
       <use xlink:href="#ArialMT-32" x="55.615234"/>
      </g>
     </g>
    </g>
    <g id="xtick_14">
     <g id="text_14">
      <!-- 13 -->
      <g style="fill: #262626" transform="translate(508.260062 404.197812) scale(0.1 -0.1)">
       <use xlink:href="#ArialMT-31"/>
       <use xlink:href="#ArialMT-33" x="55.615234"/>
      </g>
     </g>
    </g>
    <g id="xtick_15">
     <g id="text_15">
      <!-- 14 -->
      <g style="fill: #262626" transform="translate(542.512729 404.197812) scale(0.1 -0.1)">
       <use xlink:href="#ArialMT-31"/>
       <use xlink:href="#ArialMT-34" x="55.615234"/>
      </g>
     </g>
    </g>
    <g id="text_16">
     <!-- Year -->
     <g style="fill: #262626" transform="translate(298.200312 417.343125) scale(0.1 -0.1)">
      <defs>
       <path id="ArialMT-59" d="M 1784 0 
L 1784 1941 
L 19 4581 
L 756 4581 
L 1659 3200 
Q 1909 2813 2125 2425 
Q 2331 2784 2625 3234 
L 3513 4581 
L 4219 4581 
L 2391 1941 
L 2391 0 
L 1784 0 
z
" transform="scale(0.015625)"/>
       <path id="ArialMT-65" d="M 2694 1069 
L 3275 997 
Q 3138 488 2766 206 
Q 2394 -75 1816 -75 
Q 1088 -75 661 373 
Q 234 822 234 1631 
Q 234 2469 665 2931 
Q 1097 3394 1784 3394 
Q 2450 3394 2872 2941 
Q 3294 2488 3294 1666 
Q 3294 1616 3291 1516 
L 816 1516 
Q 847 969 1125 678 
Q 1403 388 1819 388 
Q 2128 388 2347 550 
Q 2566 713 2694 1069 
z
M 847 1978 
L 2700 1978 
Q 2663 2397 2488 2606 
Q 2219 2931 1791 2931 
Q 1403 2931 1139 2672 
Q 875 2413 847 1978 
z
" transform="scale(0.015625)"/>
       <path id="ArialMT-61" d="M 2588 409 
Q 2275 144 1986 34 
Q 1697 -75 1366 -75 
Q 819 -75 525 192 
Q 231 459 231 875 
Q 231 1119 342 1320 
Q 453 1522 633 1644 
Q 813 1766 1038 1828 
Q 1203 1872 1538 1913 
Q 2219 1994 2541 2106 
Q 2544 2222 2544 2253 
Q 2544 2597 2384 2738 
Q 2169 2928 1744 2928 
Q 1347 2928 1158 2789 
Q 969 2650 878 2297 
L 328 2372 
Q 403 2725 575 2942 
Q 747 3159 1072 3276 
Q 1397 3394 1825 3394 
Q 2250 3394 2515 3294 
Q 2781 3194 2906 3042 
Q 3031 2891 3081 2659 
Q 3109 2516 3109 2141 
L 3109 1391 
Q 3109 606 3145 398 
Q 3181 191 3288 0 
L 2700 0 
Q 2613 175 2588 409 
z
M 2541 1666 
Q 2234 1541 1622 1453 
Q 1275 1403 1131 1340 
Q 988 1278 909 1158 
Q 831 1038 831 891 
Q 831 666 1001 516 
Q 1172 366 1500 366 
Q 1825 366 2078 508 
Q 2331 650 2450 897 
Q 2541 1088 2541 1459 
L 2541 1666 
z
" transform="scale(0.015625)"/>
       <path id="ArialMT-72" d="M 416 0 
L 416 3319 
L 922 3319 
L 922 2816 
Q 1116 3169 1280 3281 
Q 1444 3394 1641 3394 
Q 1925 3394 2219 3213 
L 2025 2691 
Q 1819 2813 1613 2813 
Q 1428 2813 1281 2702 
Q 1134 2591 1072 2394 
Q 978 2094 978 1738 
L 978 0 
L 416 0 
z
" transform="scale(0.015625)"/>
      </defs>
      <use xlink:href="#ArialMT-59"/>
      <use xlink:href="#ArialMT-65" x="57.574219"/>
      <use xlink:href="#ArialMT-61" x="113.189453"/>
      <use xlink:href="#ArialMT-72" x="168.804688"/>
     </g>
    </g>
   </g>
   <g id="matplotlib.axis_2">
    <g id="ytick_1">
     <g id="text_17">
      <!-- 11.0 -->
      <g style="fill: #262626" transform="translate(25.686563 363.010334) scale(0.1 -0.1)">
       <defs>
        <path id="ArialMT-2e" d="M 581 0 
L 581 641 
L 1222 641 
L 1222 0 
L 581 0 
z
" transform="scale(0.015625)"/>
       </defs>
       <use xlink:href="#ArialMT-31"/>
       <use xlink:href="#ArialMT-31" x="48.240234"/>
       <use xlink:href="#ArialMT-2e" x="103.855469"/>
       <use xlink:href="#ArialMT-30" x="131.638672"/>
      </g>
     </g>
    </g>
    <g id="ytick_2">
     <g id="text_18">
      <!-- 11.5 -->
      <g style="fill: #262626" transform="translate(25.686563 304.138054) scale(0.1 -0.1)">
       <use xlink:href="#ArialMT-31"/>
       <use xlink:href="#ArialMT-31" x="48.240234"/>
       <use xlink:href="#ArialMT-2e" x="103.855469"/>
       <use xlink:href="#ArialMT-35" x="131.638672"/>
      </g>
     </g>
    </g>
    <g id="ytick_3">
     <g id="text_19">
      <!-- 12.0 -->
      <g style="fill: #262626" transform="translate(24.949063 245.265775) scale(0.1 -0.1)">
       <use xlink:href="#ArialMT-31"/>
       <use xlink:href="#ArialMT-32" x="55.615234"/>
       <use xlink:href="#ArialMT-2e" x="111.230469"/>
       <use xlink:href="#ArialMT-30" x="139.013672"/>
      </g>
     </g>
    </g>
    <g id="ytick_4">
     <g id="text_20">
      <!-- 12.5 -->
      <g style="fill: #262626" transform="translate(24.949063 186.393495) scale(0.1 -0.1)">
       <use xlink:href="#ArialMT-31"/>
       <use xlink:href="#ArialMT-32" x="55.615234"/>
       <use xlink:href="#ArialMT-2e" x="111.230469"/>
       <use xlink:href="#ArialMT-35" x="139.013672"/>
      </g>
     </g>
    </g>
    <g id="ytick_5">
     <g id="text_21">
      <!-- 13.0 -->
      <g style="fill: #262626" transform="translate(24.949063 127.521216) scale(0.1 -0.1)">
       <use xlink:href="#ArialMT-31"/>
       <use xlink:href="#ArialMT-33" x="55.615234"/>
       <use xlink:href="#ArialMT-2e" x="111.230469"/>
       <use xlink:href="#ArialMT-30" x="139.013672"/>
      </g>
     </g>
    </g>
    <g id="ytick_6">
     <g id="text_22">
      <!-- 13.5 -->
      <g style="fill: #262626" transform="translate(24.949063 68.648936) scale(0.1 -0.1)">
       <use xlink:href="#ArialMT-31"/>
       <use xlink:href="#ArialMT-33" x="55.615234"/>
       <use xlink:href="#ArialMT-2e" x="111.230469"/>
       <use xlink:href="#ArialMT-35" x="139.013672"/>
      </g>
     </g>
    </g>
    <g id="text_23">
     <!-- Listing Price -->
     <g style="fill: #262626" transform="translate(18.844375 227.652813) rotate(-90) scale(0.1 -0.1)">
      <defs>
       <path id="ArialMT-4c" d="M 469 0 
L 469 4581 
L 1075 4581 
L 1075 541 
L 3331 541 
L 3331 0 
L 469 0 
z
" transform="scale(0.015625)"/>
       <path id="ArialMT-69" d="M 425 3934 
L 425 4581 
L 988 4581 
L 988 3934 
L 425 3934 
z
M 425 0 
L 425 3319 
L 988 3319 
L 988 0 
L 425 0 
z
" transform="scale(0.015625)"/>
       <path id="ArialMT-73" d="M 197 991 
L 753 1078 
Q 800 744 1014 566 
Q 1228 388 1613 388 
Q 2000 388 2187 545 
Q 2375 703 2375 916 
Q 2375 1106 2209 1216 
Q 2094 1291 1634 1406 
Q 1016 1563 777 1677 
Q 538 1791 414 1992 
Q 291 2194 291 2438 
Q 291 2659 392 2848 
Q 494 3038 669 3163 
Q 800 3259 1026 3326 
Q 1253 3394 1513 3394 
Q 1903 3394 2198 3281 
Q 2494 3169 2634 2976 
Q 2775 2784 2828 2463 
L 2278 2388 
Q 2241 2644 2061 2787 
Q 1881 2931 1553 2931 
Q 1166 2931 1000 2803 
Q 834 2675 834 2503 
Q 834 2394 903 2306 
Q 972 2216 1119 2156 
Q 1203 2125 1616 2013 
Q 2213 1853 2448 1751 
Q 2684 1650 2818 1456 
Q 2953 1263 2953 975 
Q 2953 694 2789 445 
Q 2625 197 2315 61 
Q 2006 -75 1616 -75 
Q 969 -75 630 194 
Q 291 463 197 991 
z
" transform="scale(0.015625)"/>
       <path id="ArialMT-74" d="M 1650 503 
L 1731 6 
Q 1494 -44 1306 -44 
Q 1000 -44 831 53 
Q 663 150 594 308 
Q 525 466 525 972 
L 525 2881 
L 113 2881 
L 113 3319 
L 525 3319 
L 525 4141 
L 1084 4478 
L 1084 3319 
L 1650 3319 
L 1650 2881 
L 1084 2881 
L 1084 941 
Q 1084 700 1114 631 
Q 1144 563 1211 522 
Q 1278 481 1403 481 
Q 1497 481 1650 503 
z
" transform="scale(0.015625)"/>
       <path id="ArialMT-6e" d="M 422 0 
L 422 3319 
L 928 3319 
L 928 2847 
Q 1294 3394 1984 3394 
Q 2284 3394 2536 3286 
Q 2788 3178 2913 3003 
Q 3038 2828 3088 2588 
Q 3119 2431 3119 2041 
L 3119 0 
L 2556 0 
L 2556 2019 
Q 2556 2363 2490 2533 
Q 2425 2703 2258 2804 
Q 2091 2906 1866 2906 
Q 1506 2906 1245 2678 
Q 984 2450 984 1813 
L 984 0 
L 422 0 
z
" transform="scale(0.015625)"/>
       <path id="ArialMT-67" d="M 319 -275 
L 866 -356 
Q 900 -609 1056 -725 
Q 1266 -881 1628 -881 
Q 2019 -881 2231 -725 
Q 2444 -569 2519 -288 
Q 2563 -116 2559 434 
Q 2191 0 1641 0 
Q 956 0 581 494 
Q 206 988 206 1678 
Q 206 2153 378 2554 
Q 550 2956 876 3175 
Q 1203 3394 1644 3394 
Q 2231 3394 2613 2919 
L 2613 3319 
L 3131 3319 
L 3131 450 
Q 3131 -325 2973 -648 
Q 2816 -972 2473 -1159 
Q 2131 -1347 1631 -1347 
Q 1038 -1347 672 -1080 
Q 306 -813 319 -275 
z
M 784 1719 
Q 784 1066 1043 766 
Q 1303 466 1694 466 
Q 2081 466 2343 764 
Q 2606 1063 2606 1700 
Q 2606 2309 2336 2618 
Q 2066 2928 1684 2928 
Q 1309 2928 1046 2623 
Q 784 2319 784 1719 
z
" transform="scale(0.015625)"/>
       <path id="ArialMT-20" transform="scale(0.015625)"/>
       <path id="ArialMT-50" d="M 494 0 
L 494 4581 
L 2222 4581 
Q 2678 4581 2919 4538 
Q 3256 4481 3484 4323 
Q 3713 4166 3852 3881 
Q 3991 3597 3991 3256 
Q 3991 2672 3619 2267 
Q 3247 1863 2275 1863 
L 1100 1863 
L 1100 0 
L 494 0 
z
M 1100 2403 
L 2284 2403 
Q 2872 2403 3119 2622 
Q 3366 2841 3366 3238 
Q 3366 3525 3220 3729 
Q 3075 3934 2838 4000 
Q 2684 4041 2272 4041 
L 1100 4041 
L 1100 2403 
z
" transform="scale(0.015625)"/>
       <path id="ArialMT-63" d="M 2588 1216 
L 3141 1144 
Q 3050 572 2676 248 
Q 2303 -75 1759 -75 
Q 1078 -75 664 370 
Q 250 816 250 1647 
Q 250 2184 428 2587 
Q 606 2991 970 3192 
Q 1334 3394 1763 3394 
Q 2303 3394 2647 3120 
Q 2991 2847 3088 2344 
L 2541 2259 
Q 2463 2594 2264 2762 
Q 2066 2931 1784 2931 
Q 1359 2931 1093 2626 
Q 828 2322 828 1663 
Q 828 994 1084 691 
Q 1341 388 1753 388 
Q 2084 388 2306 591 
Q 2528 794 2588 1216 
z
" transform="scale(0.015625)"/>
      </defs>
      <use xlink:href="#ArialMT-4c"/>
      <use xlink:href="#ArialMT-69" x="55.615234"/>
      <use xlink:href="#ArialMT-73" x="77.832031"/>
      <use xlink:href="#ArialMT-74" x="127.832031"/>
      <use xlink:href="#ArialMT-69" x="155.615234"/>
      <use xlink:href="#ArialMT-6e" x="177.832031"/>
      <use xlink:href="#ArialMT-67" x="233.447266"/>
      <use xlink:href="#ArialMT-20" x="289.0625"/>
      <use xlink:href="#ArialMT-50" x="316.845703"/>
      <use xlink:href="#ArialMT-72" x="383.544922"/>
      <use xlink:href="#ArialMT-69" x="416.845703"/>
      <use xlink:href="#ArialMT-63" x="439.0625"/>
      <use xlink:href="#ArialMT-65" x="489.0625"/>
     </g>
    </g>
   </g>
   <g id="patch_3">
    <path d="M 54.835267 294.508694 
L 82.2374 294.508694 
L 82.2374 211.678159 
L 54.835267 211.678159 
L 54.835267 294.508694 
z
" clip-path="url(#p12c015da32)" style="fill: #ea96a3; stroke: #464646; stroke-width: 1.5; stroke-linejoin: miter"/>
   </g>
   <g id="patch_4">
    <path d="M 89.087933 281.212834 
L 116.490067 281.212834 
L 116.490067 206.531544 
L 89.087933 206.531544 
L 89.087933 281.212834 
z
" clip-path="url(#p12c015da32)" style="fill: #e59471; stroke: #464646; stroke-width: 1.5; stroke-linejoin: miter"/>
   </g>
   <g id="patch_5">
    <path d="M 123.3406 277.297904 
L 150.742733 277.297904 
L 150.742733 185.577151 
L 123.3406 185.577151 
L 123.3406 277.297904 
z
" clip-path="url(#p12c015da32)" style="fill: #c6994b; stroke: #464646; stroke-width: 1.5; stroke-linejoin: miter"/>
   </g>
   <g id="patch_6">
    <path d="M 157.593267 265.989578 
L 184.9954 265.989578 
L 184.9954 168.129044 
L 157.593267 168.129044 
L 157.593267 265.989578 
z
" clip-path="url(#p12c015da32)" style="fill: #ab9e47; stroke: #464646; stroke-width: 1.5; stroke-linejoin: miter"/>
   </g>
   <g id="patch_7">
    <path d="M 191.845933 270.391951 
L 219.248067 270.391951 
L 219.248067 184.62337 
L 191.845933 184.62337 
L 191.845933 270.391951 
z
" clip-path="url(#p12c015da32)" style="fill: #91a446; stroke: #464646; stroke-width: 1.5; stroke-linejoin: miter"/>
   </g>
   <g id="patch_8">
    <path d="M 226.0986 246.123702 
L 253.500733 246.123702 
L 253.500733 159.278576 
L 226.0986 159.278576 
L 226.0986 246.123702 
z
" clip-path="url(#p12c015da32)" style="fill: #60ae47; stroke: #464646; stroke-width: 1.5; stroke-linejoin: miter"/>
   </g>
   <g id="patch_9">
    <path d="M 260.351267 243.770488 
L 287.7534 243.770488 
L 287.7534 168.248405 
L 260.351267 168.248405 
L 260.351267 243.770488 
z
" clip-path="url(#p12c015da32)" style="fill: #49ae83; stroke: #464646; stroke-width: 1.5; stroke-linejoin: miter"/>
   </g>
   <g id="patch_10">
    <path d="M 294.603933 220.40397 
L 322.006067 220.40397 
L 322.006067 143.407686 
L 294.603933 143.407686 
L 294.603933 220.40397 
z
" clip-path="url(#p12c015da32)" style="fill: #4aac9b; stroke: #464646; stroke-width: 1.5; stroke-linejoin: miter"/>
   </g>
   <g id="patch_11">
    <path d="M 328.8566 233.126116 
L 356.258733 233.126116 
L 356.258733 146.800284 
L 328.8566 146.800284 
L 328.8566 233.126116 
z
" clip-path="url(#p12c015da32)" style="fill: #4cabad; stroke: #464646; stroke-width: 1.5; stroke-linejoin: miter"/>
   </g>
   <g id="patch_12">
    <path d="M 363.109267 220.445965 
L 390.5114 220.445965 
L 390.5114 145.740061 
L 363.109267 145.740061 
L 363.109267 220.445965 
z
" clip-path="url(#p12c015da32)" style="fill: #50acc3; stroke: #464646; stroke-width: 1.5; stroke-linejoin: miter"/>
   </g>
   <g id="patch_13">
    <path d="M 397.361933 210.244828 
L 424.764067 210.244828 
L 424.764067 117.408365 
L 397.361933 117.408365 
L 397.361933 210.244828 
z
" clip-path="url(#p12c015da32)" style="fill: #6daee2; stroke: #464646; stroke-width: 1.5; stroke-linejoin: miter"/>
   </g>
   <g id="patch_14">
    <path d="M 431.6146 207.576262 
L 459.016733 207.576262 
L 459.016733 119.257749 
L 431.6146 119.257749 
L 431.6146 207.576262 
z
" clip-path="url(#p12c015da32)" style="fill: #adabeb; stroke: #464646; stroke-width: 1.5; stroke-linejoin: miter"/>
   </g>
   <g id="patch_15">
    <path d="M 465.867267 180.928706 
L 493.2694 180.928706 
L 493.2694 106.660455 
L 465.867267 106.660455 
L 465.867267 180.928706 
z
" clip-path="url(#p12c015da32)" style="fill: #ce9be9; stroke: #464646; stroke-width: 1.5; stroke-linejoin: miter"/>
   </g>
   <g id="patch_16">
    <path d="M 500.119933 156.594104 
L 527.522067 156.594104 
L 527.522067 92.931012 
L 500.119933 92.931012 
L 500.119933 156.594104 
z
" clip-path="url(#p12c015da32)" style="fill: #e78bdb; stroke: #464646; stroke-width: 1.5; stroke-linejoin: miter"/>
   </g>
   <g id="patch_17">
    <path d="M 534.3726 159.639499 
L 561.774733 159.639499 
L 561.774733 91.321391 
L 534.3726 91.321391 
L 534.3726 159.639499 
z
" clip-path="url(#p12c015da32)" style="fill: #e891bf; stroke: #464646; stroke-width: 1.5; stroke-linejoin: miter"/>
   </g>
   <g id="line2d_1">
    <path d="M 68.536333 294.508694 
L 68.536333 372.801818 
" clip-path="url(#p12c015da32)" style="fill: none; stroke: #464646; stroke-width: 1.5; stroke-linecap: round"/>
   </g>
   <g id="line2d_2">
    <path d="M 68.536333 211.678159 
L 68.536333 114.586812 
" clip-path="url(#p12c015da32)" style="fill: none; stroke: #464646; stroke-width: 1.5; stroke-linecap: round"/>
   </g>
   <g id="line2d_3">
    <path d="M 61.6858 372.801818 
L 75.386867 372.801818 
" clip-path="url(#p12c015da32)" style="fill: none; stroke: #464646; stroke-width: 1.5; stroke-linecap: round"/>
   </g>
   <g id="line2d_4">
    <path d="M 61.6858 114.586812 
L 75.386867 114.586812 
" clip-path="url(#p12c015da32)" style="fill: none; stroke: #464646; stroke-width: 1.5; stroke-linecap: round"/>
   </g>
   <g id="line2d_5"/>
   <g id="line2d_6">
    <path d="M 102.789 281.212834 
L 102.789 365.035861 
" clip-path="url(#p12c015da32)" style="fill: none; stroke: #464646; stroke-width: 1.5; stroke-linecap: round"/>
   </g>
   <g id="line2d_7">
    <path d="M 102.789 206.531544 
L 102.789 101.953585 
" clip-path="url(#p12c015da32)" style="fill: none; stroke: #464646; stroke-width: 1.5; stroke-linecap: round"/>
   </g>
   <g id="line2d_8">
    <path d="M 95.938467 365.035861 
L 109.639533 365.035861 
" clip-path="url(#p12c015da32)" style="fill: none; stroke: #464646; stroke-width: 1.5; stroke-linecap: round"/>
   </g>
   <g id="line2d_9">
    <path d="M 95.938467 101.953585 
L 109.639533 101.953585 
" clip-path="url(#p12c015da32)" style="fill: none; stroke: #464646; stroke-width: 1.5; stroke-linecap: round"/>
   </g>
   <g id="line2d_10">
    <defs>
     <path id="m781e27edf0" d="M 0 3.535534 
L 2.12132 0 
L 0 -3.535534 
L -2.12132 0 
z
" style="stroke: #464646; stroke-linejoin: miter"/>
    </defs>
    <g clip-path="url(#p12c015da32)">
     <use xlink:href="#m781e27edf0" x="102.789" y="81.391748" style="fill: #464646; stroke: #464646; stroke-linejoin: miter"/>
    </g>
   </g>
   <g id="line2d_11">
    <path d="M 137.041667 277.297904 
L 137.041667 346.529201 
" clip-path="url(#p12c015da32)" style="fill: none; stroke: #464646; stroke-width: 1.5; stroke-linecap: round"/>
   </g>
   <g id="line2d_12">
    <path d="M 137.041667 185.577151 
L 137.041667 69.039294 
" clip-path="url(#p12c015da32)" style="fill: none; stroke: #464646; stroke-width: 1.5; stroke-linecap: round"/>
   </g>
   <g id="line2d_13">
    <path d="M 130.191133 346.529201 
L 143.8922 346.529201 
" clip-path="url(#p12c015da32)" style="fill: none; stroke: #464646; stroke-width: 1.5; stroke-linecap: round"/>
   </g>
   <g id="line2d_14">
    <path d="M 130.191133 69.039294 
L 143.8922 69.039294 
" clip-path="url(#p12c015da32)" style="fill: none; stroke: #464646; stroke-width: 1.5; stroke-linecap: round"/>
   </g>
   <g id="line2d_15"/>
   <g id="line2d_16">
    <path d="M 171.294333 265.989578 
L 171.294333 342.32254 
" clip-path="url(#p12c015da32)" style="fill: none; stroke: #464646; stroke-width: 1.5; stroke-linecap: round"/>
   </g>
   <g id="line2d_17">
    <path d="M 171.294333 168.129044 
L 171.294333 68.35592 
" clip-path="url(#p12c015da32)" style="fill: none; stroke: #464646; stroke-width: 1.5; stroke-linecap: round"/>
   </g>
   <g id="line2d_18">
    <path d="M 164.4438 342.32254 
L 178.144867 342.32254 
" clip-path="url(#p12c015da32)" style="fill: none; stroke: #464646; stroke-width: 1.5; stroke-linecap: round"/>
   </g>
   <g id="line2d_19">
    <path d="M 164.4438 68.35592 
L 178.144867 68.35592 
" clip-path="url(#p12c015da32)" style="fill: none; stroke: #464646; stroke-width: 1.5; stroke-linecap: round"/>
   </g>
   <g id="line2d_20"/>
   <g id="line2d_21">
    <path d="M 205.547 270.391951 
L 205.547 340.27593 
" clip-path="url(#p12c015da32)" style="fill: none; stroke: #464646; stroke-width: 1.5; stroke-linecap: round"/>
   </g>
   <g id="line2d_22">
    <path d="M 205.547 184.62337 
L 205.547 87.812675 
" clip-path="url(#p12c015da32)" style="fill: none; stroke: #464646; stroke-width: 1.5; stroke-linecap: round"/>
   </g>
   <g id="line2d_23">
    <path d="M 198.696467 340.27593 
L 212.397533 340.27593 
" clip-path="url(#p12c015da32)" style="fill: none; stroke: #464646; stroke-width: 1.5; stroke-linecap: round"/>
   </g>
   <g id="line2d_24">
    <path d="M 198.696467 87.812675 
L 212.397533 87.812675 
" clip-path="url(#p12c015da32)" style="fill: none; stroke: #464646; stroke-width: 1.5; stroke-linecap: round"/>
   </g>
   <g id="line2d_25"/>
   <g id="line2d_26">
    <path d="M 239.799667 246.123702 
L 239.799667 305.391985 
" clip-path="url(#p12c015da32)" style="fill: none; stroke: #464646; stroke-width: 1.5; stroke-linecap: round"/>
   </g>
   <g id="line2d_27">
    <path d="M 239.799667 159.278576 
L 239.799667 59.700689 
" clip-path="url(#p12c015da32)" style="fill: none; stroke: #464646; stroke-width: 1.5; stroke-linecap: round"/>
   </g>
   <g id="line2d_28">
    <path d="M 232.949133 305.391985 
L 246.6502 305.391985 
" clip-path="url(#p12c015da32)" style="fill: none; stroke: #464646; stroke-width: 1.5; stroke-linecap: round"/>
   </g>
   <g id="line2d_29">
    <path d="M 232.949133 59.700689 
L 246.6502 59.700689 
" clip-path="url(#p12c015da32)" style="fill: none; stroke: #464646; stroke-width: 1.5; stroke-linecap: round"/>
   </g>
   <g id="line2d_30"/>
   <g id="line2d_31">
    <path d="M 274.052333 243.770488 
L 274.052333 322.415251 
" clip-path="url(#p12c015da32)" style="fill: none; stroke: #464646; stroke-width: 1.5; stroke-linecap: round"/>
   </g>
   <g id="line2d_32">
    <path d="M 274.052333 168.248405 
L 274.052333 82.016056 
" clip-path="url(#p12c015da32)" style="fill: none; stroke: #464646; stroke-width: 1.5; stroke-linecap: round"/>
   </g>
   <g id="line2d_33">
    <path d="M 267.2018 322.415251 
L 280.902867 322.415251 
" clip-path="url(#p12c015da32)" style="fill: none; stroke: #464646; stroke-width: 1.5; stroke-linecap: round"/>
   </g>
   <g id="line2d_34">
    <path d="M 267.2018 82.016056 
L 280.902867 82.016056 
" clip-path="url(#p12c015da32)" style="fill: none; stroke: #464646; stroke-width: 1.5; stroke-linecap: round"/>
   </g>
   <g id="line2d_35">
    <g clip-path="url(#p12c015da32)">
     <use xlink:href="#m781e27edf0" x="274.052333" y="52.34502" style="fill: #464646; stroke: #464646; stroke-linejoin: miter"/>
     <use xlink:href="#m781e27edf0" x="274.052333" y="52.441409" style="fill: #464646; stroke: #464646; stroke-linejoin: miter"/>
    </g>
   </g>
   <g id="line2d_36">
    <path d="M 308.305 220.40397 
L 308.305 318.440618 
" clip-path="url(#p12c015da32)" style="fill: none; stroke: #464646; stroke-width: 1.5; stroke-linecap: round"/>
   </g>
   <g id="line2d_37">
    <path d="M 308.305 143.407686 
L 308.305 61.950475 
" clip-path="url(#p12c015da32)" style="fill: none; stroke: #464646; stroke-width: 1.5; stroke-linecap: round"/>
   </g>
   <g id="line2d_38">
    <path d="M 301.454467 318.440618 
L 315.155533 318.440618 
" clip-path="url(#p12c015da32)" style="fill: none; stroke: #464646; stroke-width: 1.5; stroke-linecap: round"/>
   </g>
   <g id="line2d_39">
    <path d="M 301.454467 61.950475 
L 315.155533 61.950475 
" clip-path="url(#p12c015da32)" style="fill: none; stroke: #464646; stroke-width: 1.5; stroke-linecap: round"/>
   </g>
   <g id="line2d_40"/>
   <g id="line2d_41">
    <path d="M 342.557667 233.126116 
L 342.557667 303.891656 
" clip-path="url(#p12c015da32)" style="fill: none; stroke: #464646; stroke-width: 1.5; stroke-linecap: round"/>
   </g>
   <g id="line2d_42">
    <path d="M 342.557667 146.800284 
L 342.557667 84.472097 
" clip-path="url(#p12c015da32)" style="fill: none; stroke: #464646; stroke-width: 1.5; stroke-linecap: round"/>
   </g>
   <g id="line2d_43">
    <path d="M 335.707133 303.891656 
L 349.4082 303.891656 
" clip-path="url(#p12c015da32)" style="fill: none; stroke: #464646; stroke-width: 1.5; stroke-linecap: round"/>
   </g>
   <g id="line2d_44">
    <path d="M 335.707133 84.472097 
L 349.4082 84.472097 
" clip-path="url(#p12c015da32)" style="fill: none; stroke: #464646; stroke-width: 1.5; stroke-linecap: round"/>
   </g>
   <g id="line2d_45"/>
   <g id="line2d_46">
    <path d="M 376.810333 220.445965 
L 376.810333 291.829231 
" clip-path="url(#p12c015da32)" style="fill: none; stroke: #464646; stroke-width: 1.5; stroke-linecap: round"/>
   </g>
   <g id="line2d_47">
    <path d="M 376.810333 145.740061 
L 376.810333 87.817374 
" clip-path="url(#p12c015da32)" style="fill: none; stroke: #464646; stroke-width: 1.5; stroke-linecap: round"/>
   </g>
   <g id="line2d_48">
    <path d="M 369.9598 291.829231 
L 383.660867 291.829231 
" clip-path="url(#p12c015da32)" style="fill: none; stroke: #464646; stroke-width: 1.5; stroke-linecap: round"/>
   </g>
   <g id="line2d_49">
    <path d="M 369.9598 87.817374 
L 383.660867 87.817374 
" clip-path="url(#p12c015da32)" style="fill: none; stroke: #464646; stroke-width: 1.5; stroke-linecap: round"/>
   </g>
   <g id="line2d_50"/>
   <g id="line2d_51">
    <path d="M 411.063 210.244828 
L 411.063 289.857815 
" clip-path="url(#p12c015da32)" style="fill: none; stroke: #464646; stroke-width: 1.5; stroke-linecap: round"/>
   </g>
   <g id="line2d_52">
    <path d="M 411.063 117.408365 
L 411.063 28.038182 
" clip-path="url(#p12c015da32)" style="fill: none; stroke: #464646; stroke-width: 1.5; stroke-linecap: round"/>
   </g>
   <g id="line2d_53">
    <path d="M 404.212467 289.857815 
L 417.913533 289.857815 
" clip-path="url(#p12c015da32)" style="fill: none; stroke: #464646; stroke-width: 1.5; stroke-linecap: round"/>
   </g>
   <g id="line2d_54">
    <path d="M 404.212467 28.038182 
L 417.913533 28.038182 
" clip-path="url(#p12c015da32)" style="fill: none; stroke: #464646; stroke-width: 1.5; stroke-linecap: round"/>
   </g>
   <g id="line2d_55"/>
   <g id="line2d_56">
    <path d="M 445.315667 207.576262 
L 445.315667 265.989578 
" clip-path="url(#p12c015da32)" style="fill: none; stroke: #464646; stroke-width: 1.5; stroke-linecap: round"/>
   </g>
   <g id="line2d_57">
    <path d="M 445.315667 119.257749 
L 445.315667 37.424967 
" clip-path="url(#p12c015da32)" style="fill: none; stroke: #464646; stroke-width: 1.5; stroke-linecap: round"/>
   </g>
   <g id="line2d_58">
    <path d="M 438.465133 265.989578 
L 452.1662 265.989578 
" clip-path="url(#p12c015da32)" style="fill: none; stroke: #464646; stroke-width: 1.5; stroke-linecap: round"/>
   </g>
   <g id="line2d_59">
    <path d="M 438.465133 37.424967 
L 452.1662 37.424967 
" clip-path="url(#p12c015da32)" style="fill: none; stroke: #464646; stroke-width: 1.5; stroke-linecap: round"/>
   </g>
   <g id="line2d_60"/>
   <g id="line2d_61">
    <path d="M 479.568333 180.928706 
L 479.568333 246.169536 
" clip-path="url(#p12c015da32)" style="fill: none; stroke: #464646; stroke-width: 1.5; stroke-linecap: round"/>
   </g>
   <g id="line2d_62">
    <path d="M 479.568333 106.660455 
L 479.568333 55.385569 
" clip-path="url(#p12c015da32)" style="fill: none; stroke: #464646; stroke-width: 1.5; stroke-linecap: round"/>
   </g>
   <g id="line2d_63">
    <path d="M 472.7178 246.169536 
L 486.418867 246.169536 
" clip-path="url(#p12c015da32)" style="fill: none; stroke: #464646; stroke-width: 1.5; stroke-linecap: round"/>
   </g>
   <g id="line2d_64">
    <path d="M 472.7178 55.385569 
L 486.418867 55.385569 
" clip-path="url(#p12c015da32)" style="fill: none; stroke: #464646; stroke-width: 1.5; stroke-linecap: round"/>
   </g>
   <g id="line2d_65"/>
   <g id="line2d_66">
    <path d="M 513.821 156.594104 
L 513.821 240.975551 
" clip-path="url(#p12c015da32)" style="fill: none; stroke: #464646; stroke-width: 1.5; stroke-linecap: round"/>
   </g>
   <g id="line2d_67">
    <path d="M 513.821 92.931012 
L 513.821 29.103751 
" clip-path="url(#p12c015da32)" style="fill: none; stroke: #464646; stroke-width: 1.5; stroke-linecap: round"/>
   </g>
   <g id="line2d_68">
    <path d="M 506.970467 240.975551 
L 520.671533 240.975551 
" clip-path="url(#p12c015da32)" style="fill: none; stroke: #464646; stroke-width: 1.5; stroke-linecap: round"/>
   </g>
   <g id="line2d_69">
    <path d="M 506.970467 29.103751 
L 520.671533 29.103751 
" clip-path="url(#p12c015da32)" style="fill: none; stroke: #464646; stroke-width: 1.5; stroke-linecap: round"/>
   </g>
   <g id="line2d_70">
    <g clip-path="url(#p12c015da32)">
     <use xlink:href="#m781e27edf0" x="513.821" y="270.503708" style="fill: #464646; stroke: #464646; stroke-linejoin: miter"/>
    </g>
   </g>
   <g id="line2d_71">
    <path d="M 548.073667 159.639499 
L 548.073667 240.800942 
" clip-path="url(#p12c015da32)" style="fill: none; stroke: #464646; stroke-width: 1.5; stroke-linecap: round"/>
   </g>
   <g id="line2d_72">
    <path d="M 548.073667 91.321391 
L 548.073667 43.535908 
" clip-path="url(#p12c015da32)" style="fill: none; stroke: #464646; stroke-width: 1.5; stroke-linecap: round"/>
   </g>
   <g id="line2d_73">
    <path d="M 541.223133 240.800942 
L 554.9242 240.800942 
" clip-path="url(#p12c015da32)" style="fill: none; stroke: #464646; stroke-width: 1.5; stroke-linecap: round"/>
   </g>
   <g id="line2d_74">
    <path d="M 541.223133 43.535908 
L 554.9242 43.535908 
" clip-path="url(#p12c015da32)" style="fill: none; stroke: #464646; stroke-width: 1.5; stroke-linecap: round"/>
   </g>
   <g id="line2d_75"/>
   <g id="line2d_76">
    <path d="M 54.835267 254.685051 
L 82.2374 254.685051 
" clip-path="url(#p12c015da32)" style="fill: none; stroke: #464646; stroke-width: 1.5; stroke-linecap: round"/>
   </g>
   <g id="line2d_77">
    <path d="M 89.087933 244.435088 
L 116.490067 244.435088 
" clip-path="url(#p12c015da32)" style="fill: none; stroke: #464646; stroke-width: 1.5; stroke-linecap: round"/>
   </g>
   <g id="line2d_78">
    <path d="M 123.3406 229.182742 
L 150.742733 229.182742 
" clip-path="url(#p12c015da32)" style="fill: none; stroke: #464646; stroke-width: 1.5; stroke-linecap: round"/>
   </g>
   <g id="line2d_79">
    <path d="M 157.593267 217.381144 
L 184.9954 217.381144 
" clip-path="url(#p12c015da32)" style="fill: none; stroke: #464646; stroke-width: 1.5; stroke-linecap: round"/>
   </g>
   <g id="line2d_80">
    <path d="M 191.845933 239.018289 
L 219.248067 239.018289 
" clip-path="url(#p12c015da32)" style="fill: none; stroke: #464646; stroke-width: 1.5; stroke-linecap: round"/>
   </g>
   <g id="line2d_81">
    <path d="M 226.0986 207.675802 
L 253.500733 207.675802 
" clip-path="url(#p12c015da32)" style="fill: none; stroke: #464646; stroke-width: 1.5; stroke-linecap: round"/>
   </g>
   <g id="line2d_82">
    <path d="M 260.351267 213.88826 
L 287.7534 213.88826 
" clip-path="url(#p12c015da32)" style="fill: none; stroke: #464646; stroke-width: 1.5; stroke-linecap: round"/>
   </g>
   <g id="line2d_83">
    <path d="M 294.603933 194.522441 
L 322.006067 194.522441 
" clip-path="url(#p12c015da32)" style="fill: none; stroke: #464646; stroke-width: 1.5; stroke-linecap: round"/>
   </g>
   <g id="line2d_84">
    <path d="M 328.8566 194.922153 
L 356.258733 194.922153 
" clip-path="url(#p12c015da32)" style="fill: none; stroke: #464646; stroke-width: 1.5; stroke-linecap: round"/>
   </g>
   <g id="line2d_85">
    <path d="M 363.109267 170.27199 
L 390.5114 170.27199 
" clip-path="url(#p12c015da32)" style="fill: none; stroke: #464646; stroke-width: 1.5; stroke-linecap: round"/>
   </g>
   <g id="line2d_86">
    <path d="M 397.361933 168.340334 
L 424.764067 168.340334 
" clip-path="url(#p12c015da32)" style="fill: none; stroke: #464646; stroke-width: 1.5; stroke-linecap: round"/>
   </g>
   <g id="line2d_87">
    <path d="M 431.6146 155.796635 
L 459.016733 155.796635 
" clip-path="url(#p12c015da32)" style="fill: none; stroke: #464646; stroke-width: 1.5; stroke-linecap: round"/>
   </g>
   <g id="line2d_88">
    <path d="M 465.867267 135.808627 
L 493.2694 135.808627 
" clip-path="url(#p12c015da32)" style="fill: none; stroke: #464646; stroke-width: 1.5; stroke-linecap: round"/>
   </g>
   <g id="line2d_89">
    <path d="M 500.119933 119.257749 
L 527.522067 119.257749 
" clip-path="url(#p12c015da32)" style="fill: none; stroke: #464646; stroke-width: 1.5; stroke-linecap: round"/>
   </g>
   <g id="line2d_90">
    <path d="M 534.3726 117.469562 
L 561.774733 117.469562 
" clip-path="url(#p12c015da32)" style="fill: none; stroke: #464646; stroke-width: 1.5; stroke-linecap: round"/>
   </g>
   <g id="patch_18">
    <path d="M 51.41 390.04 
L 51.41 10.8 
" style="fill: none; stroke: #262626; stroke-width: 0.8; stroke-linejoin: miter; stroke-linecap: square"/>
   </g>
   <g id="patch_19">
    <path d="M 565.2 390.04 
L 565.2 10.8 
" style="fill: none; stroke: #262626; stroke-width: 0.8; stroke-linejoin: miter; stroke-linecap: square"/>
   </g>
   <g id="patch_20">
    <path d="M 51.41 390.04 
L 565.2 390.04 
" style="fill: none; stroke: #262626; stroke-width: 0.8; stroke-linejoin: miter; stroke-linecap: square"/>
   </g>
   <g id="patch_21">
    <path d="M 51.41 10.8 
L 565.2 10.8 
" style="fill: none; stroke: #262626; stroke-width: 0.8; stroke-linejoin: miter; stroke-linecap: square"/>
   </g>
  </g>
 </g>
 <defs>
  <clipPath id="p12c015da32">
   <rect x="51.41" y="10.8" width="513.79" height="379.24"/>
  </clipPath>
 </defs>
</svg>
