<?xml version="1.0" encoding="utf-8" standalone="no"?>
<!DOCTYPE svg PUBLIC "-//W3C//DTD SVG 1.1//EN"
  "http://www.w3.org/Graphics/SVG/1.1/DTD/svg11.dtd">
<svg xmlns:xlink="http://www.w3.org/1999/xlink" width="576pt" height="432pt" viewBox="0 0 576 432" xmlns="http://www.w3.org/2000/svg" version="1.1">
 <metadata>
  <rdf:RDF xmlns:dc="http://purl.org/dc/elements/1.1/" xmlns:cc="http://creativecommons.org/ns#" xmlns:rdf="http://www.w3.org/1999/02/22-rdf-syntax-ns#">
   <cc:Work>
    <dc:type rdf:resource="http://purl.org/dc/dcmitype/StillImage"/>
    <dc:date>2023-04-04T04:43:46.045851</dc:date>
    <dc:format>image/svg+xml</dc:format>
    <dc:creator>
     <cc:Agent>
      <dc:title>Matplotlib v3.7.1, https://matplotlib.org/</dc:title>
     </cc:Agent>
    </dc:creator>
   </cc:Work>
  </rdf:RDF>
 </metadata>
 <defs>
  <style type="text/css">*{stroke-linejoin: round; stroke-linecap: butt}</style>
 </defs>
 <g id="figure_1">
  <g id="patch_1">
   <path d="M 0 432 
L 576 432 
L 576 0 
L 0 0 
z
" style="fill: #ffffff"/>
  </g>
  <g id="axes_1">
   <g id="patch_2">
    <path d="M 48.62 390.04 
L 565.2 390.04 
L 565.2 10.8 
L 48.62 10.8 
z
" style="fill: #ffffff"/>
   </g>
   <g id="matplotlib.axis_1">
    <g id="xtick_1">
     <g id="text_1">
      <!-- 0 -->
      <g style="fill: #262626" transform="translate(63.058865 404.197812) scale(0.1 -0.1)">
       <defs>
        <path id="ArialMT-30" d="M 266 2259 
Q 266 3072 433 3567 
Q 600 4063 929 4331 
Q 1259 4600 1759 4600 
Q 2128 4600 2406 4451 
Q 2684 4303 2865 4023 
Q 3047 3744 3150 3342 
Q 3253 2941 3253 2259 
Q 3253 1453 3087 958 
Q 2922 463 2592 192 
Q 2263 -78 1759 -78 
Q 1097 -78 719 397 
Q 266 969 266 2259 
z
M 844 2259 
Q 844 1131 1108 757 
Q 1372 384 1759 384 
Q 2147 384 2411 759 
Q 2675 1134 2675 2259 
Q 2675 3391 2411 3762 
Q 2147 4134 1753 4134 
Q 1366 4134 1134 3806 
Q 844 3388 844 2259 
z
" transform="scale(0.015625)"/>
       </defs>
       <use xlink:href="#ArialMT-30"/>
      </g>
     </g>
    </g>
    <g id="xtick_2">
     <g id="text_2">
      <!-- 1 -->
      <g style="fill: #262626" transform="translate(97.497531 404.197812) scale(0.1 -0.1)">
       <defs>
        <path id="ArialMT-31" d="M 2384 0 
L 1822 0 
L 1822 3584 
Q 1619 3391 1289 3197 
Q 959 3003 697 2906 
L 697 3450 
Q 1169 3672 1522 3987 
Q 1875 4303 2022 4600 
L 2384 4600 
L 2384 0 
z
" transform="scale(0.015625)"/>
       </defs>
       <use xlink:href="#ArialMT-31"/>
      </g>
     </g>
    </g>
    <g id="xtick_3">
     <g id="text_3">
      <!-- 2 -->
      <g style="fill: #262626" transform="translate(131.936198 404.197812) scale(0.1 -0.1)">
       <defs>
        <path id="ArialMT-32" d="M 3222 541 
L 3222 0 
L 194 0 
Q 188 203 259 391 
Q 375 700 629 1000 
Q 884 1300 1366 1694 
Q 2113 2306 2375 2664 
Q 2638 3022 2638 3341 
Q 2638 3675 2398 3904 
Q 2159 4134 1775 4134 
Q 1369 4134 1125 3890 
Q 881 3647 878 3216 
L 300 3275 
Q 359 3922 746 4261 
Q 1134 4600 1788 4600 
Q 2447 4600 2831 4234 
Q 3216 3869 3216 3328 
Q 3216 3053 3103 2787 
Q 2991 2522 2730 2228 
Q 2469 1934 1863 1422 
Q 1356 997 1212 845 
Q 1069 694 975 541 
L 3222 541 
z
" transform="scale(0.015625)"/>
       </defs>
       <use xlink:href="#ArialMT-32"/>
      </g>
     </g>
    </g>
    <g id="xtick_4">
     <g id="text_4">
      <!-- 3 -->
      <g style="fill: #262626" transform="translate(166.374865 404.197812) scale(0.1 -0.1)">
       <defs>
        <path id="ArialMT-33" d="M 269 1209 
L 831 1284 
Q 928 806 1161 595 
Q 1394 384 1728 384 
Q 2125 384 2398 659 
Q 2672 934 2672 1341 
Q 2672 1728 2419 1979 
Q 2166 2231 1775 2231 
Q 1616 2231 1378 2169 
L 1441 2663 
Q 1497 2656 1531 2656 
Q 1891 2656 2178 2843 
Q 2466 3031 2466 3422 
Q 2466 3731 2256 3934 
Q 2047 4138 1716 4138 
Q 1388 4138 1169 3931 
Q 950 3725 888 3313 
L 325 3413 
Q 428 3978 793 4289 
Q 1159 4600 1703 4600 
Q 2078 4600 2393 4439 
Q 2709 4278 2876 4000 
Q 3044 3722 3044 3409 
Q 3044 3113 2884 2869 
Q 2725 2625 2413 2481 
Q 2819 2388 3044 2092 
Q 3269 1797 3269 1353 
Q 3269 753 2831 336 
Q 2394 -81 1725 -81 
Q 1122 -81 723 278 
Q 325 638 269 1209 
z
" transform="scale(0.015625)"/>
       </defs>
       <use xlink:href="#ArialMT-33"/>
      </g>
     </g>
    </g>
    <g id="xtick_5">
     <g id="text_5">
      <!-- 4 -->
      <g style="fill: #262626" transform="translate(200.813531 404.197812) scale(0.1 -0.1)">
       <defs>
        <path id="ArialMT-34" d="M 2069 0 
L 2069 1097 
L 81 1097 
L 81 1613 
L 2172 4581 
L 2631 4581 
L 2631 1613 
L 3250 1613 
L 3250 1097 
L 2631 1097 
L 2631 0 
L 2069 0 
z
M 2069 1613 
L 2069 3678 
L 634 1613 
L 2069 1613 
z
" transform="scale(0.015625)"/>
       </defs>
       <use xlink:href="#ArialMT-34"/>
      </g>
     </g>
    </g>
    <g id="xtick_6">
     <g id="text_6">
      <!-- 5 -->
      <g style="fill: #262626" transform="translate(235.252198 404.197812) scale(0.1 -0.1)">
       <defs>
        <path id="ArialMT-35" d="M 266 1200 
L 856 1250 
Q 922 819 1161 601 
Q 1400 384 1738 384 
Q 2144 384 2425 690 
Q 2706 997 2706 1503 
Q 2706 1984 2436 2262 
Q 2166 2541 1728 2541 
Q 1456 2541 1237 2417 
Q 1019 2294 894 2097 
L 366 2166 
L 809 4519 
L 3088 4519 
L 3088 3981 
L 1259 3981 
L 1013 2750 
Q 1425 3038 1878 3038 
Q 2478 3038 2890 2622 
Q 3303 2206 3303 1553 
Q 3303 931 2941 478 
Q 2500 -78 1738 -78 
Q 1113 -78 717 272 
Q 322 622 266 1200 
z
" transform="scale(0.015625)"/>
       </defs>
       <use xlink:href="#ArialMT-35"/>
      </g>
     </g>
    </g>
    <g id="xtick_7">
     <g id="text_7">
      <!-- 6 -->
      <g style="fill: #262626" transform="translate(269.690865 404.197812) scale(0.1 -0.1)">
       <defs>
        <path id="ArialMT-36" d="M 3184 3459 
L 2625 3416 
Q 2550 3747 2413 3897 
Q 2184 4138 1850 4138 
Q 1581 4138 1378 3988 
Q 1113 3794 959 3422 
Q 806 3050 800 2363 
Q 1003 2672 1297 2822 
Q 1591 2972 1913 2972 
Q 2475 2972 2870 2558 
Q 3266 2144 3266 1488 
Q 3266 1056 3080 686 
Q 2894 316 2569 119 
Q 2244 -78 1831 -78 
Q 1128 -78 684 439 
Q 241 956 241 2144 
Q 241 3472 731 4075 
Q 1159 4600 1884 4600 
Q 2425 4600 2770 4297 
Q 3116 3994 3184 3459 
z
M 888 1484 
Q 888 1194 1011 928 
Q 1134 663 1356 523 
Q 1578 384 1822 384 
Q 2178 384 2434 671 
Q 2691 959 2691 1453 
Q 2691 1928 2437 2201 
Q 2184 2475 1800 2475 
Q 1419 2475 1153 2201 
Q 888 1928 888 1484 
z
" transform="scale(0.015625)"/>
       </defs>
       <use xlink:href="#ArialMT-36"/>
      </g>
     </g>
    </g>
    <g id="xtick_8">
     <g id="text_8">
      <!-- 7 -->
      <g style="fill: #262626" transform="translate(304.129531 404.197812) scale(0.1 -0.1)">
       <defs>
        <path id="ArialMT-37" d="M 303 3981 
L 303 4522 
L 3269 4522 
L 3269 4084 
Q 2831 3619 2401 2847 
Q 1972 2075 1738 1259 
Q 1569 684 1522 0 
L 944 0 
Q 953 541 1156 1306 
Q 1359 2072 1739 2783 
Q 2119 3494 2547 3981 
L 303 3981 
z
" transform="scale(0.015625)"/>
       </defs>
       <use xlink:href="#ArialMT-37"/>
      </g>
     </g>
    </g>
    <g id="xtick_9">
     <g id="text_9">
      <!-- 8 -->
      <g style="fill: #262626" transform="translate(338.568198 404.197812) scale(0.1 -0.1)">
       <defs>
        <path id="ArialMT-38" d="M 1131 2484 
Q 781 2613 612 2850 
Q 444 3088 444 3419 
Q 444 3919 803 4259 
Q 1163 4600 1759 4600 
Q 2359 4600 2725 4251 
Q 3091 3903 3091 3403 
Q 3091 3084 2923 2848 
Q 2756 2613 2416 2484 
Q 2838 2347 3058 2040 
Q 3278 1734 3278 1309 
Q 3278 722 2862 322 
Q 2447 -78 1769 -78 
Q 1091 -78 675 323 
Q 259 725 259 1325 
Q 259 1772 486 2073 
Q 713 2375 1131 2484 
z
M 1019 3438 
Q 1019 3113 1228 2906 
Q 1438 2700 1772 2700 
Q 2097 2700 2305 2904 
Q 2513 3109 2513 3406 
Q 2513 3716 2298 3927 
Q 2084 4138 1766 4138 
Q 1444 4138 1231 3931 
Q 1019 3725 1019 3438 
z
M 838 1322 
Q 838 1081 952 856 
Q 1066 631 1291 507 
Q 1516 384 1775 384 
Q 2178 384 2440 643 
Q 2703 903 2703 1303 
Q 2703 1709 2433 1975 
Q 2163 2241 1756 2241 
Q 1359 2241 1098 1978 
Q 838 1716 838 1322 
z
" transform="scale(0.015625)"/>
       </defs>
       <use xlink:href="#ArialMT-38"/>
      </g>
     </g>
    </g>
    <g id="xtick_10">
     <g id="text_10">
      <!-- 9 -->
      <g style="fill: #262626" transform="translate(373.006865 404.197812) scale(0.1 -0.1)">
       <defs>
        <path id="ArialMT-39" d="M 350 1059 
L 891 1109 
Q 959 728 1153 556 
Q 1347 384 1650 384 
Q 1909 384 2104 503 
Q 2300 622 2425 820 
Q 2550 1019 2634 1356 
Q 2719 1694 2719 2044 
Q 2719 2081 2716 2156 
Q 2547 1888 2255 1720 
Q 1963 1553 1622 1553 
Q 1053 1553 659 1965 
Q 266 2378 266 3053 
Q 266 3750 677 4175 
Q 1088 4600 1706 4600 
Q 2153 4600 2523 4359 
Q 2894 4119 3086 3673 
Q 3278 3228 3278 2384 
Q 3278 1506 3087 986 
Q 2897 466 2520 194 
Q 2144 -78 1638 -78 
Q 1100 -78 759 220 
Q 419 519 350 1059 
z
M 2653 3081 
Q 2653 3566 2395 3850 
Q 2138 4134 1775 4134 
Q 1400 4134 1122 3828 
Q 844 3522 844 3034 
Q 844 2597 1108 2323 
Q 1372 2050 1759 2050 
Q 2150 2050 2401 2323 
Q 2653 2597 2653 3081 
z
" transform="scale(0.015625)"/>
       </defs>
       <use xlink:href="#ArialMT-39"/>
      </g>
     </g>
    </g>
    <g id="xtick_11">
     <g id="text_11">
      <!-- 10 -->
      <g style="fill: #262626" transform="translate(404.665062 404.197812) scale(0.1 -0.1)">
       <use xlink:href="#ArialMT-31"/>
       <use xlink:href="#ArialMT-30" x="55.615234"/>
      </g>
     </g>
    </g>
    <g id="xtick_12">
     <g id="text_12">
      <!-- 11 -->
      <g style="fill: #262626" transform="translate(439.472479 404.197812) scale(0.1 -0.1)">
       <use xlink:href="#ArialMT-31"/>
       <use xlink:href="#ArialMT-31" x="48.240234"/>
      </g>
     </g>
    </g>
    <g id="xtick_13">
     <g id="text_13">
      <!-- 12 -->
      <g style="fill: #262626" transform="translate(473.542396 404.197812) scale(0.1 -0.1)">
       <use xlink:href="#ArialMT-31"/>
       <use xlink:href="#ArialMT-32" x="55.615234"/>
      </g>
     </g>
    </g>
    <g id="xtick_14">
     <g id="text_14">
      <!-- 13 -->
      <g style="fill: #262626" transform="translate(507.981062 404.197812) scale(0.1 -0.1)">
       <use xlink:href="#ArialMT-31"/>
       <use xlink:href="#ArialMT-33" x="55.615234"/>
      </g>
     </g>
    </g>
    <g id="xtick_15">
     <g id="text_15">
      <!-- 14 -->
      <g style="fill: #262626" transform="translate(542.419729 404.197812) scale(0.1 -0.1)">
       <use xlink:href="#ArialMT-31"/>
       <use xlink:href="#ArialMT-34" x="55.615234"/>
      </g>
     </g>
    </g>
    <g id="text_16">
     <!-- Year -->
     <g style="fill: #262626" transform="translate(296.805312 417.343125) scale(0.1 -0.1)">
      <defs>
       <path id="ArialMT-59" d="M 1784 0 
L 1784 1941 
L 19 4581 
L 756 4581 
L 1659 3200 
Q 1909 2813 2125 2425 
Q 2331 2784 2625 3234 
L 3513 4581 
L 4219 4581 
L 2391 1941 
L 2391 0 
L 1784 0 
z
" transform="scale(0.015625)"/>
       <path id="ArialMT-65" d="M 2694 1069 
L 3275 997 
Q 3138 488 2766 206 
Q 2394 -75 1816 -75 
Q 1088 -75 661 373 
Q 234 822 234 1631 
Q 234 2469 665 2931 
Q 1097 3394 1784 3394 
Q 2450 3394 2872 2941 
Q 3294 2488 3294 1666 
Q 3294 1616 3291 1516 
L 816 1516 
Q 847 969 1125 678 
Q 1403 388 1819 388 
Q 2128 388 2347 550 
Q 2566 713 2694 1069 
z
M 847 1978 
L 2700 1978 
Q 2663 2397 2488 2606 
Q 2219 2931 1791 2931 
Q 1403 2931 1139 2672 
Q 875 2413 847 1978 
z
" transform="scale(0.015625)"/>
       <path id="ArialMT-61" d="M 2588 409 
Q 2275 144 1986 34 
Q 1697 -75 1366 -75 
Q 819 -75 525 192 
Q 231 459 231 875 
Q 231 1119 342 1320 
Q 453 1522 633 1644 
Q 813 1766 1038 1828 
Q 1203 1872 1538 1913 
Q 2219 1994 2541 2106 
Q 2544 2222 2544 2253 
Q 2544 2597 2384 2738 
Q 2169 2928 1744 2928 
Q 1347 2928 1158 2789 
Q 969 2650 878 2297 
L 328 2372 
Q 403 2725 575 2942 
Q 747 3159 1072 3276 
Q 1397 3394 1825 3394 
Q 2250 3394 2515 3294 
Q 2781 3194 2906 3042 
Q 3031 2891 3081 2659 
Q 3109 2516 3109 2141 
L 3109 1391 
Q 3109 606 3145 398 
Q 3181 191 3288 0 
L 2700 0 
Q 2613 175 2588 409 
z
M 2541 1666 
Q 2234 1541 1622 1453 
Q 1275 1403 1131 1340 
Q 988 1278 909 1158 
Q 831 1038 831 891 
Q 831 666 1001 516 
Q 1172 366 1500 366 
Q 1825 366 2078 508 
Q 2331 650 2450 897 
Q 2541 1088 2541 1459 
L 2541 1666 
z
" transform="scale(0.015625)"/>
       <path id="ArialMT-72" d="M 416 0 
L 416 3319 
L 922 3319 
L 922 2816 
Q 1116 3169 1280 3281 
Q 1444 3394 1641 3394 
Q 1925 3394 2219 3213 
L 2025 2691 
Q 1819 2813 1613 2813 
Q 1428 2813 1281 2702 
Q 1134 2591 1072 2394 
Q 978 2094 978 1738 
L 978 0 
L 416 0 
z
" transform="scale(0.015625)"/>
      </defs>
      <use xlink:href="#ArialMT-59"/>
      <use xlink:href="#ArialMT-65" x="57.574219"/>
      <use xlink:href="#ArialMT-61" x="113.189453"/>
      <use xlink:href="#ArialMT-72" x="168.804688"/>
     </g>
    </g>
   </g>
   <g id="matplotlib.axis_2">
    <g id="ytick_1">
     <g id="text_17">
      <!-- 50 -->
      <g style="fill: #262626" transform="translate(30.498125 378.995046) scale(0.1 -0.1)">
       <use xlink:href="#ArialMT-35"/>
       <use xlink:href="#ArialMT-30" x="55.615234"/>
      </g>
     </g>
    </g>
    <g id="ytick_2">
     <g id="text_18">
      <!-- 100 -->
      <g style="fill: #262626" transform="translate(24.937188 297.297502) scale(0.1 -0.1)">
       <use xlink:href="#ArialMT-31"/>
       <use xlink:href="#ArialMT-30" x="55.615234"/>
       <use xlink:href="#ArialMT-30" x="111.230469"/>
      </g>
     </g>
    </g>
    <g id="ytick_3">
     <g id="text_19">
      <!-- 150 -->
      <g style="fill: #262626" transform="translate(24.937188 215.599958) scale(0.1 -0.1)">
       <use xlink:href="#ArialMT-31"/>
       <use xlink:href="#ArialMT-35" x="55.615234"/>
       <use xlink:href="#ArialMT-30" x="111.230469"/>
      </g>
     </g>
    </g>
    <g id="ytick_4">
     <g id="text_20">
      <!-- 200 -->
      <g style="fill: #262626" transform="translate(24.937188 133.902413) scale(0.1 -0.1)">
       <use xlink:href="#ArialMT-32"/>
       <use xlink:href="#ArialMT-30" x="55.615234"/>
       <use xlink:href="#ArialMT-30" x="111.230469"/>
      </g>
     </g>
    </g>
    <g id="ytick_5">
     <g id="text_21">
      <!-- 250 -->
      <g style="fill: #262626" transform="translate(24.937188 52.204869) scale(0.1 -0.1)">
       <use xlink:href="#ArialMT-32"/>
       <use xlink:href="#ArialMT-35" x="55.615234"/>
       <use xlink:href="#ArialMT-30" x="111.230469"/>
      </g>
     </g>
    </g>
    <g id="text_22">
     <!-- Sail Area -->
     <g style="fill: #262626" transform="translate(18.949688 220.4325) rotate(-90) scale(0.1 -0.1)">
      <defs>
       <path id="ArialMT-53" d="M 288 1472 
L 859 1522 
Q 900 1178 1048 958 
Q 1197 738 1509 602 
Q 1822 466 2213 466 
Q 2559 466 2825 569 
Q 3091 672 3220 851 
Q 3350 1031 3350 1244 
Q 3350 1459 3225 1620 
Q 3100 1781 2813 1891 
Q 2628 1963 1997 2114 
Q 1366 2266 1113 2400 
Q 784 2572 623 2826 
Q 463 3081 463 3397 
Q 463 3744 659 4045 
Q 856 4347 1234 4503 
Q 1613 4659 2075 4659 
Q 2584 4659 2973 4495 
Q 3363 4331 3572 4012 
Q 3781 3694 3797 3291 
L 3216 3247 
Q 3169 3681 2898 3903 
Q 2628 4125 2100 4125 
Q 1550 4125 1298 3923 
Q 1047 3722 1047 3438 
Q 1047 3191 1225 3031 
Q 1400 2872 2139 2705 
Q 2878 2538 3153 2413 
Q 3553 2228 3743 1945 
Q 3934 1663 3934 1294 
Q 3934 928 3725 604 
Q 3516 281 3123 101 
Q 2731 -78 2241 -78 
Q 1619 -78 1198 103 
Q 778 284 539 648 
Q 300 1013 288 1472 
z
" transform="scale(0.015625)"/>
       <path id="ArialMT-69" d="M 425 3934 
L 425 4581 
L 988 4581 
L 988 3934 
L 425 3934 
z
M 425 0 
L 425 3319 
L 988 3319 
L 988 0 
L 425 0 
z
" transform="scale(0.015625)"/>
       <path id="ArialMT-6c" d="M 409 0 
L 409 4581 
L 972 4581 
L 972 0 
L 409 0 
z
" transform="scale(0.015625)"/>
       <path id="ArialMT-20" transform="scale(0.015625)"/>
       <path id="ArialMT-41" d="M -9 0 
L 1750 4581 
L 2403 4581 
L 4278 0 
L 3588 0 
L 3053 1388 
L 1138 1388 
L 634 0 
L -9 0 
z
M 1313 1881 
L 2866 1881 
L 2388 3150 
Q 2169 3728 2063 4100 
Q 1975 3659 1816 3225 
L 1313 1881 
z
" transform="scale(0.015625)"/>
      </defs>
      <use xlink:href="#ArialMT-53"/>
      <use xlink:href="#ArialMT-61" x="66.699219"/>
      <use xlink:href="#ArialMT-69" x="122.314453"/>
      <use xlink:href="#ArialMT-6c" x="144.53125"/>
      <use xlink:href="#ArialMT-20" x="166.748047"/>
      <use xlink:href="#ArialMT-41" x="189.03125"/>
      <use xlink:href="#ArialMT-72" x="255.730469"/>
      <use xlink:href="#ArialMT-65" x="289.03125"/>
      <use xlink:href="#ArialMT-61" x="344.646484"/>
     </g>
    </g>
   </g>
   <g id="patch_3">
    <path d="M 52.063867 320.678785 
L 79.6148 320.678785 
L 79.6148 272.150444 
L 52.063867 272.150444 
L 52.063867 320.678785 
z
" clip-path="url(#p15b0298ede)" style="fill: #ea96a3; stroke: #464646; stroke-width: 1.5; stroke-linejoin: miter"/>
   </g>
   <g id="patch_4">
    <path d="M 86.502533 324.355174 
L 114.053467 324.355174 
L 114.053467 260.059207 
L 86.502533 260.059207 
L 86.502533 324.355174 
z
" clip-path="url(#p15b0298ede)" style="fill: #e59471; stroke: #464646; stroke-width: 1.5; stroke-linejoin: miter"/>
   </g>
   <g id="patch_5">
    <path d="M 120.9412 317.451732 
L 148.492133 317.451732 
L 148.492133 248.907492 
L 120.9412 248.907492 
L 120.9412 317.451732 
z
" clip-path="url(#p15b0298ede)" style="fill: #c6994b; stroke: #464646; stroke-width: 1.5; stroke-linejoin: miter"/>
   </g>
   <g id="patch_6">
    <path d="M 155.379867 312.835821 
L 182.9308 312.835821 
L 182.9308 260.059207 
L 155.379867 260.059207 
L 155.379867 312.835821 
z
" clip-path="url(#p15b0298ede)" style="fill: #ab9e47; stroke: #464646; stroke-width: 1.5; stroke-linejoin: miter"/>
   </g>
   <g id="patch_7">
    <path d="M 189.818533 314.633167 
L 217.369467 314.633167 
L 217.369467 260.059207 
L 189.818533 260.059207 
L 189.818533 314.633167 
z
" clip-path="url(#p15b0298ede)" style="fill: #91a446; stroke: #464646; stroke-width: 1.5; stroke-linejoin: miter"/>
   </g>
   <g id="patch_8">
    <path d="M 224.2572 293.5552 
L 251.808133 293.5552 
L 251.808133 221.497966 
L 224.2572 221.497966 
L 224.2572 293.5552 
z
" clip-path="url(#p15b0298ede)" style="fill: #60ae47; stroke: #464646; stroke-width: 1.5; stroke-linejoin: miter"/>
   </g>
   <g id="patch_9">
    <path d="M 258.695867 314.633167 
L 286.2468 314.633167 
L 286.2468 242.575933 
L 258.695867 242.575933 
L 258.695867 314.633167 
z
" clip-path="url(#p15b0298ede)" style="fill: #49ae83; stroke: #464646; stroke-width: 1.5; stroke-linejoin: miter"/>
   </g>
   <g id="patch_10">
    <path d="M 293.134533 301.071374 
L 320.685467 301.071374 
L 320.685467 211.040681 
L 293.134533 211.040681 
L 293.134533 301.071374 
z
" clip-path="url(#p15b0298ede)" style="fill: #4aac9b; stroke: #464646; stroke-width: 1.5; stroke-linejoin: miter"/>
   </g>
   <g id="patch_11">
    <path d="M 327.5732 306.422564 
L 355.124133 306.422564 
L 355.124133 235.958432 
L 327.5732 235.958432 
L 327.5732 306.422564 
z
" clip-path="url(#p15b0298ede)" style="fill: #4cabad; stroke: #464646; stroke-width: 1.5; stroke-linejoin: miter"/>
   </g>
   <g id="patch_12">
    <path d="M 362.011867 293.718595 
L 389.5628 293.718595 
L 389.5628 232.445437 
L 362.011867 232.445437 
L 362.011867 293.718595 
z
" clip-path="url(#p15b0298ede)" style="fill: #50acc3; stroke: #464646; stroke-width: 1.5; stroke-linejoin: miter"/>
   </g>
   <g id="patch_13">
    <path d="M 396.450533 290.123903 
L 424.001467 290.123903 
L 424.001467 216.269324 
L 396.450533 216.269324 
L 396.450533 290.123903 
z
" clip-path="url(#p15b0298ede)" style="fill: #6daee2; stroke: #464646; stroke-width: 1.5; stroke-linejoin: miter"/>
   </g>
   <g id="patch_14">
    <path d="M 430.8892 290.24645 
L 458.440133 290.24645 
L 458.440133 250.418897 
L 430.8892 250.418897 
L 430.8892 290.24645 
z
" clip-path="url(#p15b0298ede)" style="fill: #adabeb; stroke: #464646; stroke-width: 1.5; stroke-linejoin: miter"/>
   </g>
   <g id="patch_15">
    <path d="M 465.327867 287.019397 
L 492.8788 287.019397 
L 492.8788 235.876734 
L 465.327867 235.876734 
L 465.327867 287.019397 
z
" clip-path="url(#p15b0298ede)" style="fill: #ce9be9; stroke: #464646; stroke-width: 1.5; stroke-linejoin: miter"/>
   </g>
   <g id="patch_16">
    <path d="M 499.766533 288.653348 
L 527.317467 288.653348 
L 527.317467 213.655002 
L 499.766533 213.655002 
L 499.766533 288.653348 
z
" clip-path="url(#p15b0298ede)" style="fill: #e78bdb; stroke: #464646; stroke-width: 1.5; stroke-linejoin: miter"/>
   </g>
   <g id="patch_17">
    <path d="M 534.2052 290.123903 
L 561.756133 290.123903 
L 561.756133 226.726609 
L 534.2052 226.726609 
L 534.2052 290.123903 
z
" clip-path="url(#p15b0298ede)" style="fill: #e891bf; stroke: #464646; stroke-width: 1.5; stroke-linejoin: miter"/>
   </g>
   <g id="line2d_1">
    <path d="M 65.839333 320.678785 
L 65.839333 355.155149 
" clip-path="url(#p15b0298ede)" style="fill: none; stroke: #464646; stroke-width: 1.5; stroke-linecap: round"/>
   </g>
   <g id="line2d_2">
    <path d="M 65.839333 272.150444 
L 65.839333 212.674632 
" clip-path="url(#p15b0298ede)" style="fill: none; stroke: #464646; stroke-width: 1.5; stroke-linecap: round"/>
   </g>
   <g id="line2d_3">
    <path d="M 58.9516 355.155149 
L 72.727067 355.155149 
" clip-path="url(#p15b0298ede)" style="fill: none; stroke: #464646; stroke-width: 1.5; stroke-linecap: round"/>
   </g>
   <g id="line2d_4">
    <path d="M 58.9516 212.674632 
L 72.727067 212.674632 
" clip-path="url(#p15b0298ede)" style="fill: none; stroke: #464646; stroke-width: 1.5; stroke-linecap: round"/>
   </g>
   <g id="line2d_5">
    <defs>
     <path id="ma751e35885" d="M 0 3.535534 
L 2.12132 0 
L 0 -3.535534 
L -2.12132 0 
z
" style="stroke: #464646; stroke-linejoin: miter"/>
    </defs>
    <g clip-path="url(#p15b0298ede)">
     <use xlink:href="#ma751e35885" x="65.839333" y="195.191357" style="fill: #464646; stroke: #464646; stroke-linejoin: miter"/>
     <use xlink:href="#ma751e35885" x="65.839333" y="189.799319" style="fill: #464646; stroke: #464646; stroke-linejoin: miter"/>
     <use xlink:href="#ma751e35885" x="65.839333" y="189.799319" style="fill: #464646; stroke: #464646; stroke-linejoin: miter"/>
     <use xlink:href="#ma751e35885" x="65.839333" y="189.799319" style="fill: #464646; stroke: #464646; stroke-linejoin: miter"/>
     <use xlink:href="#ma751e35885" x="65.839333" y="189.799319" style="fill: #464646; stroke: #464646; stroke-linejoin: miter"/>
    </g>
   </g>
   <g id="line2d_6">
    <path d="M 100.278 324.355174 
L 100.278 355.155149 
" clip-path="url(#p15b0298ede)" style="fill: none; stroke: #464646; stroke-width: 1.5; stroke-linecap: round"/>
   </g>
   <g id="line2d_7">
    <path d="M 100.278 260.059207 
L 100.278 189.799319 
" clip-path="url(#p15b0298ede)" style="fill: none; stroke: #464646; stroke-width: 1.5; stroke-linecap: round"/>
   </g>
   <g id="line2d_8">
    <path d="M 93.390267 355.155149 
L 107.165733 355.155149 
" clip-path="url(#p15b0298ede)" style="fill: none; stroke: #464646; stroke-width: 1.5; stroke-linecap: round"/>
   </g>
   <g id="line2d_9">
    <path d="M 93.390267 189.799319 
L 107.165733 189.799319 
" clip-path="url(#p15b0298ede)" style="fill: none; stroke: #464646; stroke-width: 1.5; stroke-linecap: round"/>
   </g>
   <g id="line2d_10">
    <g clip-path="url(#p15b0298ede)">
     <use xlink:href="#ma751e35885" x="100.278" y="158.100672" style="fill: #464646; stroke: #464646; stroke-linejoin: miter"/>
    </g>
   </g>
   <g id="line2d_11">
    <path d="M 134.716667 317.451732 
L 134.716667 360.383791 
" clip-path="url(#p15b0298ede)" style="fill: none; stroke: #464646; stroke-width: 1.5; stroke-linecap: round"/>
   </g>
   <g id="line2d_12">
    <path d="M 134.716667 248.907492 
L 134.716667 163.49271 
" clip-path="url(#p15b0298ede)" style="fill: none; stroke: #464646; stroke-width: 1.5; stroke-linecap: round"/>
   </g>
   <g id="line2d_13">
    <path d="M 127.828933 360.383791 
L 141.6044 360.383791 
" clip-path="url(#p15b0298ede)" style="fill: none; stroke: #464646; stroke-width: 1.5; stroke-linecap: round"/>
   </g>
   <g id="line2d_14">
    <path d="M 127.828933 163.49271 
L 141.6044 163.49271 
" clip-path="url(#p15b0298ede)" style="fill: none; stroke: #464646; stroke-width: 1.5; stroke-linecap: round"/>
   </g>
   <g id="line2d_15">
    <g clip-path="url(#p15b0298ede)">
     <use xlink:href="#ma751e35885" x="134.716667" y="145.84604" style="fill: #464646; stroke: #464646; stroke-linejoin: miter"/>
     <use xlink:href="#ma751e35885" x="134.716667" y="145.84604" style="fill: #464646; stroke: #464646; stroke-linejoin: miter"/>
     <use xlink:href="#ma751e35885" x="134.716667" y="79.017449" style="fill: #464646; stroke: #464646; stroke-linejoin: miter"/>
     <use xlink:href="#ma751e35885" x="134.716667" y="28.038182" style="fill: #464646; stroke: #464646; stroke-linejoin: miter"/>
    </g>
   </g>
   <g id="line2d_16">
    <path d="M 169.155333 312.835821 
L 169.155333 360.383791 
" clip-path="url(#p15b0298ede)" style="fill: none; stroke: #464646; stroke-width: 1.5; stroke-linecap: round"/>
   </g>
   <g id="line2d_17">
    <path d="M 169.155333 260.059207 
L 169.155333 189.799319 
" clip-path="url(#p15b0298ede)" style="fill: none; stroke: #464646; stroke-width: 1.5; stroke-linecap: round"/>
   </g>
   <g id="line2d_18">
    <path d="M 162.2676 360.383791 
L 176.043067 360.383791 
" clip-path="url(#p15b0298ede)" style="fill: none; stroke: #464646; stroke-width: 1.5; stroke-linecap: round"/>
   </g>
   <g id="line2d_19">
    <path d="M 162.2676 189.799319 
L 176.043067 189.799319 
" clip-path="url(#p15b0298ede)" style="fill: none; stroke: #464646; stroke-width: 1.5; stroke-linecap: round"/>
   </g>
   <g id="line2d_20">
    <g clip-path="url(#p15b0298ede)">
     <use xlink:href="#ma751e35885" x="169.155333" y="175.747342" style="fill: #464646; stroke: #464646; stroke-linejoin: miter"/>
     <use xlink:href="#ma751e35885" x="169.155333" y="175.747342" style="fill: #464646; stroke: #464646; stroke-linejoin: miter"/>
     <use xlink:href="#ma751e35885" x="169.155333" y="158.100672" style="fill: #464646; stroke: #464646; stroke-linejoin: miter"/>
     <use xlink:href="#ma751e35885" x="169.155333" y="158.100672" style="fill: #464646; stroke: #464646; stroke-linejoin: miter"/>
     <use xlink:href="#ma751e35885" x="169.155333" y="158.100672" style="fill: #464646; stroke: #464646; stroke-linejoin: miter"/>
     <use xlink:href="#ma751e35885" x="169.155333" y="158.100672" style="fill: #464646; stroke: #464646; stroke-linejoin: miter"/>
     <use xlink:href="#ma751e35885" x="169.155333" y="158.100672" style="fill: #464646; stroke: #464646; stroke-linejoin: miter"/>
     <use xlink:href="#ma751e35885" x="169.155333" y="145.84604" style="fill: #464646; stroke: #464646; stroke-linejoin: miter"/>
     <use xlink:href="#ma751e35885" x="169.155333" y="158.100672" style="fill: #464646; stroke: #464646; stroke-linejoin: miter"/>
     <use xlink:href="#ma751e35885" x="169.155333" y="158.100672" style="fill: #464646; stroke: #464646; stroke-linejoin: miter"/>
     <use xlink:href="#ma751e35885" x="169.155333" y="158.100672" style="fill: #464646; stroke: #464646; stroke-linejoin: miter"/>
     <use xlink:href="#ma751e35885" x="169.155333" y="79.017449" style="fill: #464646; stroke: #464646; stroke-linejoin: miter"/>
     <use xlink:href="#ma751e35885" x="169.155333" y="79.017449" style="fill: #464646; stroke: #464646; stroke-linejoin: miter"/>
     <use xlink:href="#ma751e35885" x="169.155333" y="79.017449" style="fill: #464646; stroke: #464646; stroke-linejoin: miter"/>
     <use xlink:href="#ma751e35885" x="169.155333" y="166.924007" style="fill: #464646; stroke: #464646; stroke-linejoin: miter"/>
     <use xlink:href="#ma751e35885" x="169.155333" y="175.747342" style="fill: #464646; stroke: #464646; stroke-linejoin: miter"/>
     <use xlink:href="#ma751e35885" x="169.155333" y="166.924007" style="fill: #464646; stroke: #464646; stroke-linejoin: miter"/>
    </g>
   </g>
   <g id="line2d_21">
    <path d="M 203.594 314.633167 
L 203.594 360.383791 
" clip-path="url(#p15b0298ede)" style="fill: none; stroke: #464646; stroke-width: 1.5; stroke-linecap: round"/>
   </g>
   <g id="line2d_22">
    <path d="M 203.594 260.059207 
L 203.594 186.204627 
" clip-path="url(#p15b0298ede)" style="fill: none; stroke: #464646; stroke-width: 1.5; stroke-linecap: round"/>
   </g>
   <g id="line2d_23">
    <path d="M 196.706267 360.383791 
L 210.481733 360.383791 
" clip-path="url(#p15b0298ede)" style="fill: none; stroke: #464646; stroke-width: 1.5; stroke-linecap: round"/>
   </g>
   <g id="line2d_24">
    <path d="M 196.706267 186.204627 
L 210.481733 186.204627 
" clip-path="url(#p15b0298ede)" style="fill: none; stroke: #464646; stroke-width: 1.5; stroke-linecap: round"/>
   </g>
   <g id="line2d_25">
    <g clip-path="url(#p15b0298ede)">
     <use xlink:href="#ma751e35885" x="203.594" y="158.100672" style="fill: #464646; stroke: #464646; stroke-linejoin: miter"/>
    </g>
   </g>
   <g id="line2d_26">
    <path d="M 238.032667 293.5552 
L 238.032667 360.383791 
" clip-path="url(#p15b0298ede)" style="fill: none; stroke: #464646; stroke-width: 1.5; stroke-linecap: round"/>
   </g>
   <g id="line2d_27">
    <path d="M 238.032667 221.497966 
L 238.032667 175.747342 
" clip-path="url(#p15b0298ede)" style="fill: none; stroke: #464646; stroke-width: 1.5; stroke-linecap: round"/>
   </g>
   <g id="line2d_28">
    <path d="M 231.144933 360.383791 
L 244.9204 360.383791 
" clip-path="url(#p15b0298ede)" style="fill: none; stroke: #464646; stroke-width: 1.5; stroke-linecap: round"/>
   </g>
   <g id="line2d_29">
    <path d="M 231.144933 175.747342 
L 244.9204 175.747342 
" clip-path="url(#p15b0298ede)" style="fill: none; stroke: #464646; stroke-width: 1.5; stroke-linecap: round"/>
   </g>
   <g id="line2d_30"/>
   <g id="line2d_31">
    <path d="M 272.471333 314.633167 
L 272.471333 372.801818 
" clip-path="url(#p15b0298ede)" style="fill: none; stroke: #464646; stroke-width: 1.5; stroke-linecap: round"/>
   </g>
   <g id="line2d_32">
    <path d="M 272.471333 242.575933 
L 272.471333 175.747342 
" clip-path="url(#p15b0298ede)" style="fill: none; stroke: #464646; stroke-width: 1.5; stroke-linecap: round"/>
   </g>
   <g id="line2d_33">
    <path d="M 265.5836 372.801818 
L 279.359067 372.801818 
" clip-path="url(#p15b0298ede)" style="fill: none; stroke: #464646; stroke-width: 1.5; stroke-linecap: round"/>
   </g>
   <g id="line2d_34">
    <path d="M 265.5836 175.747342 
L 279.359067 175.747342 
" clip-path="url(#p15b0298ede)" style="fill: none; stroke: #464646; stroke-width: 1.5; stroke-linecap: round"/>
   </g>
   <g id="line2d_35"/>
   <g id="line2d_36">
    <path d="M 306.91 301.071374 
L 306.91 346.005024 
" clip-path="url(#p15b0298ede)" style="fill: none; stroke: #464646; stroke-width: 1.5; stroke-linecap: round"/>
   </g>
   <g id="line2d_37">
    <path d="M 306.91 211.040681 
L 306.91 182.77333 
" clip-path="url(#p15b0298ede)" style="fill: none; stroke: #464646; stroke-width: 1.5; stroke-linecap: round"/>
   </g>
   <g id="line2d_38">
    <path d="M 300.022267 346.005024 
L 313.797733 346.005024 
" clip-path="url(#p15b0298ede)" style="fill: none; stroke: #464646; stroke-width: 1.5; stroke-linecap: round"/>
   </g>
   <g id="line2d_39">
    <path d="M 300.022267 182.77333 
L 313.797733 182.77333 
" clip-path="url(#p15b0298ede)" style="fill: none; stroke: #464646; stroke-width: 1.5; stroke-linecap: round"/>
   </g>
   <g id="line2d_40"/>
   <g id="line2d_41">
    <path d="M 341.348667 306.422564 
L 341.348667 372.801818 
" clip-path="url(#p15b0298ede)" style="fill: none; stroke: #464646; stroke-width: 1.5; stroke-linecap: round"/>
   </g>
   <g id="line2d_42">
    <path d="M 341.348667 235.958432 
L 341.348667 161.858759 
" clip-path="url(#p15b0298ede)" style="fill: none; stroke: #464646; stroke-width: 1.5; stroke-linecap: round"/>
   </g>
   <g id="line2d_43">
    <path d="M 334.460933 372.801818 
L 348.2364 372.801818 
" clip-path="url(#p15b0298ede)" style="fill: none; stroke: #464646; stroke-width: 1.5; stroke-linecap: round"/>
   </g>
   <g id="line2d_44">
    <path d="M 334.460933 161.858759 
L 348.2364 161.858759 
" clip-path="url(#p15b0298ede)" style="fill: none; stroke: #464646; stroke-width: 1.5; stroke-linecap: round"/>
   </g>
   <g id="line2d_45"/>
   <g id="line2d_46">
    <path d="M 375.787333 293.718595 
L 375.787333 344.697863 
" clip-path="url(#p15b0298ede)" style="fill: none; stroke: #464646; stroke-width: 1.5; stroke-linecap: round"/>
   </g>
   <g id="line2d_47">
    <path d="M 375.787333 232.445437 
L 375.787333 182.77333 
" clip-path="url(#p15b0298ede)" style="fill: none; stroke: #464646; stroke-width: 1.5; stroke-linecap: round"/>
   </g>
   <g id="line2d_48">
    <path d="M 368.8996 344.697863 
L 382.675067 344.697863 
" clip-path="url(#p15b0298ede)" style="fill: none; stroke: #464646; stroke-width: 1.5; stroke-linecap: round"/>
   </g>
   <g id="line2d_49">
    <path d="M 368.8996 182.77333 
L 382.675067 182.77333 
" clip-path="url(#p15b0298ede)" style="fill: none; stroke: #464646; stroke-width: 1.5; stroke-linecap: round"/>
   </g>
   <g id="line2d_50"/>
   <g id="line2d_51">
    <path d="M 410.226 290.123903 
L 410.226 344.697863 
" clip-path="url(#p15b0298ede)" style="fill: none; stroke: #464646; stroke-width: 1.5; stroke-linecap: round"/>
   </g>
   <g id="line2d_52">
    <path d="M 410.226 216.269324 
L 410.226 166.924007 
" clip-path="url(#p15b0298ede)" style="fill: none; stroke: #464646; stroke-width: 1.5; stroke-linecap: round"/>
   </g>
   <g id="line2d_53">
    <path d="M 403.338267 344.697863 
L 417.113733 344.697863 
" clip-path="url(#p15b0298ede)" style="fill: none; stroke: #464646; stroke-width: 1.5; stroke-linecap: round"/>
   </g>
   <g id="line2d_54">
    <path d="M 403.338267 166.924007 
L 417.113733 166.924007 
" clip-path="url(#p15b0298ede)" style="fill: none; stroke: #464646; stroke-width: 1.5; stroke-linecap: round"/>
   </g>
   <g id="line2d_55"/>
   <g id="line2d_56">
    <path d="M 444.664667 290.24645 
L 444.664667 348.12916 
" clip-path="url(#p15b0298ede)" style="fill: none; stroke: #464646; stroke-width: 1.5; stroke-linecap: round"/>
   </g>
   <g id="line2d_57">
    <path d="M 444.664667 250.418897 
L 444.664667 209.243335 
" clip-path="url(#p15b0298ede)" style="fill: none; stroke: #464646; stroke-width: 1.5; stroke-linecap: round"/>
   </g>
   <g id="line2d_58">
    <path d="M 437.776933 348.12916 
L 451.5524 348.12916 
" clip-path="url(#p15b0298ede)" style="fill: none; stroke: #464646; stroke-width: 1.5; stroke-linecap: round"/>
   </g>
   <g id="line2d_59">
    <path d="M 437.776933 209.243335 
L 451.5524 209.243335 
" clip-path="url(#p15b0298ede)" style="fill: none; stroke: #464646; stroke-width: 1.5; stroke-linecap: round"/>
   </g>
   <g id="line2d_60">
    <g clip-path="url(#p15b0298ede)">
     <use xlink:href="#ma751e35885" x="444.664667" y="166.924007" style="fill: #464646; stroke: #464646; stroke-linejoin: miter"/>
     <use xlink:href="#ma751e35885" x="444.664667" y="166.924007" style="fill: #464646; stroke: #464646; stroke-linejoin: miter"/>
     <use xlink:href="#ma751e35885" x="444.664667" y="166.924007" style="fill: #464646; stroke: #464646; stroke-linejoin: miter"/>
     <use xlink:href="#ma751e35885" x="444.664667" y="145.84604" style="fill: #464646; stroke: #464646; stroke-linejoin: miter"/>
     <use xlink:href="#ma751e35885" x="444.664667" y="145.84604" style="fill: #464646; stroke: #464646; stroke-linejoin: miter"/>
     <use xlink:href="#ma751e35885" x="444.664667" y="145.84604" style="fill: #464646; stroke: #464646; stroke-linejoin: miter"/>
    </g>
   </g>
   <g id="line2d_61">
    <path d="M 479.103333 287.019397 
L 479.103333 348.12916 
" clip-path="url(#p15b0298ede)" style="fill: none; stroke: #464646; stroke-width: 1.5; stroke-linecap: round"/>
   </g>
   <g id="line2d_62">
    <path d="M 479.103333 235.876734 
L 479.103333 209.243335 
" clip-path="url(#p15b0298ede)" style="fill: none; stroke: #464646; stroke-width: 1.5; stroke-linecap: round"/>
   </g>
   <g id="line2d_63">
    <path d="M 472.2156 348.12916 
L 485.991067 348.12916 
" clip-path="url(#p15b0298ede)" style="fill: none; stroke: #464646; stroke-width: 1.5; stroke-linecap: round"/>
   </g>
   <g id="line2d_64">
    <path d="M 472.2156 209.243335 
L 485.991067 209.243335 
" clip-path="url(#p15b0298ede)" style="fill: none; stroke: #464646; stroke-width: 1.5; stroke-linecap: round"/>
   </g>
   <g id="line2d_65"/>
   <g id="line2d_66">
    <path d="M 513.542 288.653348 
L 513.542 367.40978 
" clip-path="url(#p15b0298ede)" style="fill: none; stroke: #464646; stroke-width: 1.5; stroke-linecap: round"/>
   </g>
   <g id="line2d_67">
    <path d="M 513.542 213.655002 
L 513.542 166.924007 
" clip-path="url(#p15b0298ede)" style="fill: none; stroke: #464646; stroke-width: 1.5; stroke-linecap: round"/>
   </g>
   <g id="line2d_68">
    <path d="M 506.654267 367.40978 
L 520.429733 367.40978 
" clip-path="url(#p15b0298ede)" style="fill: none; stroke: #464646; stroke-width: 1.5; stroke-linecap: round"/>
   </g>
   <g id="line2d_69">
    <path d="M 506.654267 166.924007 
L 520.429733 166.924007 
" clip-path="url(#p15b0298ede)" style="fill: none; stroke: #464646; stroke-width: 1.5; stroke-linecap: round"/>
   </g>
   <g id="line2d_70"/>
   <g id="line2d_71">
    <path d="M 547.980667 290.123903 
L 547.980667 367.40978 
" clip-path="url(#p15b0298ede)" style="fill: none; stroke: #464646; stroke-width: 1.5; stroke-linecap: round"/>
   </g>
   <g id="line2d_72">
    <path d="M 547.980667 226.726609 
L 547.980667 157.120302 
" clip-path="url(#p15b0298ede)" style="fill: none; stroke: #464646; stroke-width: 1.5; stroke-linecap: round"/>
   </g>
   <g id="line2d_73">
    <path d="M 541.092933 367.40978 
L 554.8684 367.40978 
" clip-path="url(#p15b0298ede)" style="fill: none; stroke: #464646; stroke-width: 1.5; stroke-linecap: round"/>
   </g>
   <g id="line2d_74">
    <path d="M 541.092933 157.120302 
L 554.8684 157.120302 
" clip-path="url(#p15b0298ede)" style="fill: none; stroke: #464646; stroke-width: 1.5; stroke-linecap: round"/>
   </g>
   <g id="line2d_75">
    <g clip-path="url(#p15b0298ede)">
     <use xlink:href="#ma751e35885" x="547.980667" y="68.560164" style="fill: #464646; stroke: #464646; stroke-linejoin: miter"/>
     <use xlink:href="#ma751e35885" x="547.980667" y="68.560164" style="fill: #464646; stroke: #464646; stroke-linejoin: miter"/>
     <use xlink:href="#ma751e35885" x="547.980667" y="68.560164" style="fill: #464646; stroke: #464646; stroke-linejoin: miter"/>
     <use xlink:href="#ma751e35885" x="547.980667" y="68.560164" style="fill: #464646; stroke: #464646; stroke-linejoin: miter"/>
     <use xlink:href="#ma751e35885" x="547.980667" y="113.657208" style="fill: #464646; stroke: #464646; stroke-linejoin: miter"/>
    </g>
   </g>
   <g id="line2d_76">
    <path d="M 52.063867 291.921249 
L 79.6148 291.921249 
" clip-path="url(#p15b0298ede)" style="fill: none; stroke: #464646; stroke-width: 1.5; stroke-linecap: round"/>
   </g>
   <g id="line2d_77">
    <path d="M 86.502533 290.123903 
L 114.053467 290.123903 
" clip-path="url(#p15b0298ede)" style="fill: none; stroke: #464646; stroke-width: 1.5; stroke-linecap: round"/>
   </g>
   <g id="line2d_78">
    <path d="M 120.9412 281.300569 
L 148.492133 281.300569 
" clip-path="url(#p15b0298ede)" style="fill: none; stroke: #464646; stroke-width: 1.5; stroke-linecap: round"/>
   </g>
   <g id="line2d_79">
    <path d="M 155.379867 278.359457 
L 182.9308 278.359457 
" clip-path="url(#p15b0298ede)" style="fill: none; stroke: #464646; stroke-width: 1.5; stroke-linecap: round"/>
   </g>
   <g id="line2d_80">
    <path d="M 189.818533 281.300569 
L 217.369467 281.300569 
" clip-path="url(#p15b0298ede)" style="fill: none; stroke: #464646; stroke-width: 1.5; stroke-linecap: round"/>
   </g>
   <g id="line2d_81">
    <path d="M 224.2572 273.130814 
L 251.808133 273.130814 
" clip-path="url(#p15b0298ede)" style="fill: none; stroke: #464646; stroke-width: 1.5; stroke-linecap: round"/>
   </g>
   <g id="line2d_82">
    <path d="M 258.695867 286.529212 
L 286.2468 286.529212 
" clip-path="url(#p15b0298ede)" style="fill: none; stroke: #464646; stroke-width: 1.5; stroke-linecap: round"/>
   </g>
   <g id="line2d_83">
    <path d="M 293.134533 263.653899 
L 320.685467 263.653899 
" clip-path="url(#p15b0298ede)" style="fill: none; stroke: #464646; stroke-width: 1.5; stroke-linecap: round"/>
   </g>
   <g id="line2d_84">
    <path d="M 327.5732 286.692607 
L 355.124133 286.692607 
" clip-path="url(#p15b0298ede)" style="fill: none; stroke: #464646; stroke-width: 1.5; stroke-linecap: round"/>
   </g>
   <g id="line2d_85">
    <path d="M 362.011867 290.123903 
L 389.5628 290.123903 
" clip-path="url(#p15b0298ede)" style="fill: none; stroke: #464646; stroke-width: 1.5; stroke-linecap: round"/>
   </g>
   <g id="line2d_86">
    <path d="M 396.450533 262.510134 
L 424.001467 262.510134 
" clip-path="url(#p15b0298ede)" style="fill: none; stroke: #464646; stroke-width: 1.5; stroke-linecap: round"/>
   </g>
   <g id="line2d_87">
    <path d="M 430.8892 284.56847 
L 458.440133 284.56847 
" clip-path="url(#p15b0298ede)" style="fill: none; stroke: #464646; stroke-width: 1.5; stroke-linecap: round"/>
   </g>
   <g id="line2d_88">
    <path d="M 465.327867 274.27458 
L 492.8788 274.27458 
" clip-path="url(#p15b0298ede)" style="fill: none; stroke: #464646; stroke-width: 1.5; stroke-linecap: round"/>
   </g>
   <g id="line2d_89">
    <path d="M 499.766533 274.27458 
L 527.317467 274.27458 
" clip-path="url(#p15b0298ede)" style="fill: none; stroke: #464646; stroke-width: 1.5; stroke-linecap: round"/>
   </g>
   <g id="line2d_90">
    <path d="M 534.2052 274.27458 
L 561.756133 274.27458 
" clip-path="url(#p15b0298ede)" style="fill: none; stroke: #464646; stroke-width: 1.5; stroke-linecap: round"/>
   </g>
   <g id="patch_18">
    <path d="M 48.62 390.04 
L 48.62 10.8 
" style="fill: none; stroke: #262626; stroke-width: 0.8; stroke-linejoin: miter; stroke-linecap: square"/>
   </g>
   <g id="patch_19">
    <path d="M 565.2 390.04 
L 565.2 10.8 
" style="fill: none; stroke: #262626; stroke-width: 0.8; stroke-linejoin: miter; stroke-linecap: square"/>
   </g>
   <g id="patch_20">
    <path d="M 48.62 390.04 
L 565.2 390.04 
" style="fill: none; stroke: #262626; stroke-width: 0.8; stroke-linejoin: miter; stroke-linecap: square"/>
   </g>
   <g id="patch_21">
    <path d="M 48.62 10.8 
L 565.2 10.8 
" style="fill: none; stroke: #262626; stroke-width: 0.8; stroke-linejoin: miter; stroke-linecap: square"/>
   </g>
  </g>
 </g>
 <defs>
  <clipPath id="p15b0298ede">
   <rect x="48.62" y="10.8" width="516.58" height="379.24"/>
  </clipPath>
 </defs>
</svg>
